<?xml version="1.0" encoding="utf-8"?>
<!-- Generator: Adobe Illustrator 17.1.0, SVG Export Plug-In . SVG Version: 6.00 Build 0)  -->
<!DOCTYPE svg PUBLIC "-//W3C//DTD SVG 1.1//EN" "http://www.w3.org/Graphics/SVG/1.1/DTD/svg11.dtd">
<svg version="1.1" id="Laag_1" xmlns="http://www.w3.org/2000/svg" xmlns:xlink="http://www.w3.org/1999/xlink" x="0px" y="0px"
	 viewBox="0 0 46.1 50" enable-background="new 0 0 46.1 50" xml:space="preserve">
<g>
	<path fill="#E86324" d="M19.5,14.3c3.3,0,6.1,1.8,8.3,5.3c1.5,2.3,2.1,4.5,2.1,4.6c0,0-1.9-1.1-4.1-2.3c-1.6-0.9-3.2-2.2-6.3-2.3
		c-3.2-0.1-5.9,5.1-6.5,7l-4.8-1.7c0-0.1,0.9-2.5,2.6-5C13.3,16.2,16.3,14.3,19.5,14.3z"/>
	<path fill="#E86324" d="M35,26.5c-1.6,2.8-4.6,4.4-8.7,4.6c-2.7,0.1-5-0.5-5.1-0.5c0,0,1.9-1.1,4-2.4c1.6-0.9,3.5-1.7,5.1-4.3
		c1.7-2.7-1.5-7.6-2.8-9.1l3.9-3.3c0.1,0.1,1.7,2.1,3,4.7C36.5,20.2,36.6,23.7,35,26.5z"/>
	<path fill="#E86324" d="M17,33.7c-1.6-2.8-1.5-6.2,0.4-9.8c1.3-2.4,2.9-4.1,2.9-4.2c0,0,0,2.2,0,4.7c0,1.9-0.3,3.9,1.2,6.6
		c1.5,2.8,7.4,2.5,9.3,2.1l0.9,5c-0.1,0-2.7,0.5-5.6,0.3C21.8,38.1,18.6,36.5,17,33.7z"/>
</g>
</svg>
