<?xml version="1.0" encoding="utf-8"?>
<!-- Generator: Adobe Illustrator 17.1.0, SVG Export Plug-In . SVG Version: 6.00 Build 0)  -->
<!DOCTYPE svg PUBLIC "-//W3C//DTD SVG 1.1//EN" "http://www.w3.org/Graphics/SVG/1.1/DTD/svg11.dtd">
<svg version="1.1" id="Laag_1" xmlns="http://www.w3.org/2000/svg" xmlns:xlink="http://www.w3.org/1999/xlink" x="0px" y="0px"
	 viewBox="0 0 46.1 50" enable-background="new 0 0 46.1 50" xml:space="preserve">
<path fill="#6666AC" d="M35.1,25.3c-0.1-0.2-0.2-0.4-0.3-0.6c0.1-0.2,0.2-0.3,0.3-0.5c1.2-2.3,1.3-4.4,0.2-6.2c-1-1.8-3-2.8-5.8-3
	c-0.2,0-0.4,0-0.6,0c-0.1-0.1-0.2-0.3-0.3-0.4c-1.4-2.2-3.2-3.3-5.3-3.3c-2,0-4,1.2-5.5,3.5c-0.1,0.2-0.2,0.4-0.3,0.5
	c-0.2,0-0.4,0-0.6,0c-2.6,0.1-4.5,1.1-5.5,2.9c-1,1.8-0.9,4,0.3,6.5c0.1,0.2,0.2,0.4,0.3,0.6c-0.1,0.2-0.2,0.3-0.3,0.5
	c-1.2,2.3-1.3,4.4-0.2,6.2c1,1.8,3,2.8,5.8,3c0.2,0,0.4,0,0.6,0c0.1,0.1,0.2,0.3,0.3,0.4c1.4,2.2,3.2,3.3,5.3,3.3c2,0,4-1.2,5.5-3.5
	c0.1-0.2,0.2-0.4,0.3-0.5c0.2,0,0.4,0,0.6,0c2.6-0.1,4.5-1.1,5.5-2.9C36.4,30.1,36.3,27.8,35.1,25.3z M21.5,29.1
	c-0.8,0.1-3.1,0.3-3.7-0.8c-0.3-0.6-0.4-1.1-0.5-1.6c0,0,0,0,0,0l1.5-1.3c-0.5-0.6-1.8-2.6-1.1-3.6c0.4-0.6,0.8-0.9,1.2-1.2
	c0,0,0,0,0,0l1.9,0.7c0.3-0.7,1.3-2.8,2.6-2.8c0.7,0,1.2,0.2,1.6,0.4c0,0,0,0,0,0l0.4,2c0.8-0.1,3.1-0.3,3.7,0.8
	c0.3,0.6,0.4,1.1,0.5,1.6c0,0,0,0,0,0L28,24.6c0.5,0.6,1.8,2.6,1.1,3.6c-0.4,0.6-0.8,0.9-1.2,1.2c0,0,0,0,0,0L26,28.8
	c-0.3,0.7-1.3,2.8-2.6,2.8c-0.7,0-1.2-0.2-1.6-0.4c0,0,0,0,0,0L21.5,29.1z"/>
</svg>
