<?xml version="1.0" encoding="utf-8"?>
<!-- Generator: Adobe Illustrator 17.1.0, SVG Export Plug-In . SVG Version: 6.00 Build 0)  -->
<!DOCTYPE svg PUBLIC "-//W3C//DTD SVG 1.1//EN" "http://www.w3.org/Graphics/SVG/1.1/DTD/svg11.dtd">
<svg version="1.1" id="Laag_1" xmlns="http://www.w3.org/2000/svg" xmlns:xlink="http://www.w3.org/1999/xlink" x="0px" y="0px"
	 viewBox="0 0 46.1 50" enable-background="new 0 0 46.1 50" xml:space="preserve">
<g>
	<path fill="#04A6A8" d="M23.3,38.5c-2.8,0-5.3-1.6-7.2-4.6c-1.3-2-1.8-3.9-1.8-4c0,0,1.7,1,3.5,2c1.4,0.8,2.8,1.9,5.4,2
		c2.8,0.1,5.1-4.4,5.7-6l4.1,1.5c0,0.1-0.8,2.2-2.3,4.3C28.7,36.9,26.1,38.5,23.3,38.5z"/>
	<path fill="#04A6A8" d="M10.7,17.3c1.4-2.5,4-3.8,7.5-4c2.4-0.1,4.3,0.4,4.4,0.4c0,0-1.7,1-3.5,2c-1.4,0.8-3.1,1.5-4.5,3.7
		c-1.5,2.4,1.3,6.6,2.4,7.9l-3.4,2.8c-0.1-0.1-1.5-1.8-2.6-4.1C9.4,22.8,9.3,19.7,10.7,17.3z"/>
	<path fill="#04A6A8" d="M35.4,17.1c1.4,2.4,1.3,5.4-0.3,8.5c-1.1,2.1-2.5,3.5-2.6,3.6c0,0,0-1.9,0-4.1c0-1.6,0.3-3.4-1-5.7
		c-1.3-2.4-6.4-2.1-8.1-1.8l-0.8-4.3c0.1,0,2.3-0.4,4.9-0.2C31.2,13.3,34,14.7,35.4,17.1z"/>
</g>
</svg>
