<?xml version="1.0" encoding="utf-8"?>
<!-- Generator: Adobe Illustrator 19.1.0, SVG Export Plug-In . SVG Version: 6.00 Build 0)  -->
<!DOCTYPE svg PUBLIC "-//W3C//DTD SVG 1.1//EN" "http://www.w3.org/Graphics/SVG/1.1/DTD/svg11.dtd">
<svg version="1.1" id="Layer_1" xmlns="http://www.w3.org/2000/svg" xmlns:xlink="http://www.w3.org/1999/xlink" x="0px" y="0px"
	 viewBox="0 0 300 300" enable-background="new 0 0 300 300" xml:space="preserve">
<circle fill="#FFFFFF" cx="151" cy="148.6" r="132.7"/>
<g>
	<g>
		<path fill="#04A6A8" d="M48.3,216.8c-4.1,5-6.4,8.1-6.4,8.1c-9.7-13.9-16.9-29.7-20.8-47c-1.3-5.7-2.2-11.6-2.7-17.7
			c-0.8-9.1-0.7-18.1,0.3-26.9s2.9-17.3,5.5-25.5s6.1-16.1,10.2-23.6c15.7-29.7,44.3-53.9,78.2-63c8.5-2.5,17.3-4.2,26.5-5
			c0.1,0.2,0.2,0.3,0.2,0.5c0.5,1.2,1.8,4.4,3.6,9c12.8,33.3,6.6,71.4,11.3,103c-2,4.7-4.4,9.1-7.6,13.1c-3.8,4.8-8.3,9-13.2,12.9
			c-28.4,2.8-57.9,28.7-79.7,55.2C51.9,212.2,50.1,214.4,48.3,216.8z"/>
		<g>
			<g>
				<g>
					<g opacity="0.85">
						<g>
							<path fill="#24B1B3" d="M78.9,184.1c1.3-1.2,2.7-2.4,4.1-3.6c-0.7,0.6-1.4,1.1-2.1,1.7C79.9,183,79.5,183.5,78.9,184.1z"/>
							<path fill="#24B1B3" d="M86.9,177.3c0.3-0.2,0.5-0.4,0.8-0.6c0.2-0.2,0.4-0.4,0.6-0.5C87.8,176.6,87.3,177,86.9,177.3z"/>
							<path fill="#24B1B3" d="M94.4,171.6c-1.4,1-2.7,1.9-3.9,2.8C91.6,173.6,92.9,172.8,94.4,171.6z"/>
							<path fill="#24B1B3" d="M88.3,176.1c0.5-0.3,0.7-0.5,0,0.1c0,0,0,0,0,0c0.7-0.6,1.5-1.2,2.2-1.8
								C89.7,175.1,89,175.6,88.3,176.1z"/>
							<path fill="#24B1B3" d="M88.3,176.1c-0.5,0.3-1.2,0.8-1.4,1C87.3,176.8,87.8,176.5,88.3,176.1z"/>
							<path fill="#24B1B3" d="M89.7,174c0.8-0.6,0.7-0.3,2.2-1.5c1.8-1.3,3.4-2.6,5.1-3.7c1.7-1.1,3.3-2.3,5.1-3.3
								c0.8-0.5,1.9-1.1,3-1.6c0.5-0.3,1.1-0.6,1.6-0.8c0.5-0.2,1-0.5,1.4-0.7c1-0.5,2.4-1.2,3.8-2c1.5-0.7,3-1.3,4.1-1.8
								c1.2-0.6,2.1-0.9,2.2-0.9c0.1,0,0,0-0.3,0.1c-0.3,0.1-0.8,0.3-1.6,0.6c-2.3,1-4.5,1.8-6.4,2.9c-1,0.5-1.9,1-2.9,1.4
								c-0.9,0.5-1.8,1-2.7,1.5c-1.8,1-3.5,2-5.2,3.1c-1.7,1.1-3.5,2.2-5.3,3.6c-6,4.3-11.4,8.9-16.9,14c-1.6,1.4-3,2.8-4.4,4.1
								c1.9-1.8,3.8-3.6,6.1-5.5c0.7-0.6,1.5-1.3,2.3-2.1c0.8-0.7,1.7-1.5,2.6-2.3c0.9-0.8,1.8-1.7,2.9-2.5
								C87.4,175.8,88.6,175,89.7,174z"/>
							<path fill="#24B1B3" d="M51.3,213.2c0.6-0.7,1.8-2.2,1.8-2.2c1.5-1.5,2.8-3.2,4.3-4.9c1.4-1.7,2.9-3.3,4.3-5
								c-0.5,0.5-0.9,0.9-1.4,1.4c-1.7,1.9-1.8,2.2-0.3,0.5c-1.8,1.9-3.4,3.8-5,5.7c-1.6,1.9-3.3,3.7-4.8,5.7
								C50.4,214.2,50.4,214.3,51.3,213.2z"/>
							<path fill="#24B1B3" d="M48.4,216.7c0.6-0.8,1.2-1.6,1.7-2.4c0,0-0.1,0-0.1,0.1C49.5,215.2,48.9,216,48.4,216.7L48.4,216.7z"
								/>
							<path fill="#24B1B3" d="M111.6,161.3c5.7-2.6,11.6-4.6,17.4-5.7c1.5-0.2,3-0.4,4.4-0.7c1.2-0.9,2.3-1.8,3.5-2.8
								c2.2-1.9,4.4-3.9,6.3-6c0.6-0.7,1-1.2,1.8-2.1c0.6-0.7,1.2-1.3,1.8-2c1-1.3,2-2.7,2.9-4.1c0.3-0.5,0.6-1,0.9-1.5c0,0,0,0,0,0
								c0.5-0.8,0.3-0.6,0-0.1c-0.4,0.6-0.7,1.1-1,1.5c0.2-0.3,0.7-1,1-1.5c0.4-0.7,0.9-1.4,1.4-2.4c0.7-1.4,1.4-2.8,2.1-4.4
								c-0.7,1.7-1.4,3.2-2.1,4.4c-0.5,0.9-0.9,1.7-1.4,2.5c-0.1,0.2-0.3,0.5-0.4,0.7c1-1.6,1.9-3.3,2.8-5.1
								c0.4-0.9,0.8-1.7,1.2-2.6c0.3-0.5,0.1-1,0.1-1.5l-0.2-1.4c-0.1-0.9-0.2-1.7-0.3-2.4c-0.4-2.8-0.6-5.5-0.7-7.3
								c0-0.7-0.1-1.4-0.1-2.1c0,0.1,0,0.3,0,0.4c0-0.3,0-0.6,0-0.8c-0.1-1.4-0.2-2.9-0.2-4.4c-0.1-1.5-0.1-2.9-0.2-4.4
								c-0.1-1.9-0.2-3.8-0.3-5.8c0,0,0-1.3,0.1-2c-0.1-0.8-0.1-1.9-0.2-3.3c0,1.6-0.1,3-0.1,4.3c0,2,0.3,4.4,0.2,6.7
								c0.1-2.3-0.3-4.7-0.2-6.7c0-1.3,0-2.8,0.1-4.3c-0.1-2.8-0.1-6.3-0.1-9.2c0.2,3.6,0.2,6.6,0.1,9.2c0,1.3,0.1,2.5,0.2,3.3
								c0,0.6-0.1,2-0.1,2c0.1,1.9,0.2,3.9,0.3,5.8c-0.2-5.7-0.3-11.5-0.4-17.4c-0.2-9.5-0.5-18.8-1.4-28c-0.9-9.2-2.4-18.3-5-27.1
								c-0.3-1.1-0.7-2.2-1.1-3.3l-1.1-3.3c-0.8-2.2-1.7-4.3-2.5-6.5l-1.3-3.3l-0.2-0.5l-0.1-0.3l-0.1-0.1c0,0-0.1,0-0.1,0l-1.1,0.1
								l-1.8,0.2c-2.3,0.2-4.7,0.6-7,0.9c-9.3,1.5-18.6,4-27.9,7.4c-10.1,3.7-19.3,8.8-27.8,14.7c-4.3,2.9-8.2,6.2-12.1,9.5
								c-1.9,1.7-3.8,3.4-5.5,5.2l-2.6,2.7L52.1,58l-1.2,1.4c-6.7,7.5-12.4,15.7-17,24.2c-4.8,8.5-8.5,17.4-11.3,26.7
								c-5.6,18.5-7.2,38.3-4.4,58.5c1,7.8,3.6,18.8,7.7,29.1c2.1,5.2,4.4,10.2,6.9,14.7c2.4,4.5,4.9,8.4,7.1,11.5
								c0.7,1,1.4,2,2,2.9c0,0,0.1,0.1,0.1,0.1L42,227l0.3-0.3c0.2-0.2,0.3-0.4,0.5-0.6c0.3-0.4,0.6-0.8,0.9-1.2
								c0.2-0.3,0.4-0.6,0.7-0.9c0.1-0.2,0.3-0.4,0.4-0.6c0.3-0.4,0.5-0.7,0.8-1c1-1.3,1.7-2.3,2.2-3.1c1-1.5,1.2-2.1,1.1-2.1
								c-0.4,0-2.3,2.1-2.6,2.4c-1,1.2-2,2.3-3,3.4c-0.4,0.5-0.8,0.9-1.2,1.4c0,0,0,0-0.1,0l-0.1-0.1l-0.1-0.2l-0.2-0.4l-0.5-0.8
								c-1.6-2.5-3.3-5.2-5-8.3c-1.7-3.1-3.6-6.6-5.5-10.8c-1.9-4.2-3.8-9.1-5.6-15.1c1.2,4.1,1.7,5.3,1.4,4.8
								c-0.2-0.6-1.2-3-2.3-6.5c-1.1-3.5-2.2-8-3.1-12.7c-0.9-4.7-1.4-9.5-1.7-13.5c-0.3-5.8-0.4-12.2,0-19
								c0.4-6.8,1.3-13.9,2.9-21.1c1.5-7.2,3.7-14.4,6.5-21.4c1.4-3.5,2.9-6.9,4.6-10.1c1.7-3.3,3.5-6.5,5.3-9.6
								c3.7-6.1,8.1-12.3,13.7-18.7c14.7-16.5,33-28.8,53.4-35.9c5.1-1.7,10.4-3.3,15.7-4.5c5.3-1.2,10.7-2.1,16.3-2.7l0.7-0.1
								c0,0,0.1,0,0.1,0l0.6,1.4c0.5,1.3,1,2.6,1.6,3.9c0.5,1.3,1.1,2.6,1.5,3.9c0.5,1.3,0.9,2.7,1.4,4c0.5,1.3,0.9,2.7,1.2,4.1
								c0.4,1.4,0.8,2.7,1.1,4.1c0.3,1.4,0.6,2.8,0.9,4.2c0.1,0.7,0.3,1.4,0.5,2.1l0.4,2.1c2.1,12.2,2.8,23.1,3.3,33.5
								c0.3,7.6,0.3,15.8,0.5,22.1c0.1,2.5,0.2,4.8,0.3,7.1c0.2,2.3,0.3,4.5,0.5,6.7c0.2,2.2,0.4,4.3,0.6,6.4c0.1,1,0.3,2.1,0.4,3.1
								c0.1,0.5,0.1,1,0.2,1.5l0.1,0.6c0,0,0,0.1,0,0.1l-0.1,0.2l0.1-0.3c0,0,0-0.1,0-0.2c0-0.3-0.1-0.5-0.1-0.7
								c-0.1-0.5-0.1-1.1-0.2-1.6c-0.1-1.1-0.3-2.1-0.4-3.1c-0.2-2-0.4-4-0.6-6c-0.1-2-0.3-4.1-0.4-6.2c-0.1-2.2-0.2-4.5-0.3-7
								c-0.1-3.4,0-2.2,0.2,0.4c0.2,2.6,0.4,6.5,0.6,8.7c0.1,0.9,0.1,2.2,0.1,3.4c0,1.2,0.1,2.5,0.2,3.4c0.1,1,0.2,2,0.3,3.1
								c0.1,1,0.3,2,0.4,3c0.1,0.9,0.3,1.9,0.4,2.9c0,0.1,0,0.1-0.1,0.2l-0.1,0.3c-0.1,0.2-0.2,0.5-0.3,0.7c-0.2,0.5-0.4,1-0.7,1.5
								c-0.8,1.7-0.9,1.4-1.3,2.3c-1.4,2.6-2.8,4.9-4.1,6.9c-1.3,1.9-2.7,3.6-4.1,5c-2,2.1-3.9,3.9-5.9,5.6c-0.6,0.5-1.2,1-1.9,1.6
								c-0.6,0.5-1.2,1-1.9,1.5c-0.1,0.1-0.1,0.1-0.2,0.1l-0.3,0.1l-0.8,0.1c-0.5,0.1-1.1,0.2-1.7,0.3c0.9-0.1,1.2,0,1.5,0
								c-1.6,0.2-3.9,0.4-5.4,0.9c1.5-0.5,3.8-0.6,5.4-0.9c-0.3,0-0.6-0.1-1.5,0c-7.9,1.3-16.7,4.7-24.1,8.9c0,0,0.1,0,0.1,0
								c4.4-2.3,8.9-4.4,13.9-5.9c-2.1,0.7-1.9,0.5,0.5-0.3c0.6-0.2,1.3-0.3,1.9-0.5c-1.1,0.4-2.1,0.7-3.2,1.1
								c-1,0.4-2.1,0.7-3.1,1.1c-2,0.9-4.1,1.6-6,2.5c0,0-1.7,0.9-2.5,1.3c-1.3,0.6-1.2,0.5-1.5,0.6c-0.8,0.5-1.7,1-2.6,1.5
								c0.9-0.4,2.8-1.5,4.6-2.3C110.1,162,111.6,161.3,111.6,161.3z"/>
							<path fill="#24B1B3" d="M152.1,133.7c-0.3,0.6-0.7,1.3-1.1,2.1c0.8-1.4,1.6-2.8,2.3-4.3c0.3-0.7,0.7-1.5,1-2.2l0.1-0.3
								c0-0.1,0.1-0.2,0.1-0.3l-0.1-0.6l-0.1-1.2c0,0.4,0.1,0.9,0.1,1.5c0,0.1,0,0.3,0,0.4c0,0.1-0.1,0.3-0.2,0.4
								c-0.1,0.3-0.2,0.6-0.4,0.8C153.4,131.2,152.8,132.4,152.1,133.7z"/>
						</g>
					</g>
				</g>
			</g>
		</g>
	</g>
	<g>
		<path fill="#6666AC" d="M148,155.5c6.1,1.4,12.2,3.5,18.2,6c19.3,26.7,62.6,38.2,100.5,42.7c2.9,0.4,4.5,0.6,4.5,0.6
			c-9.5,20.5-24.4,38.8-44.2,52.7c-60.1,42.1-143,27.6-185.1-32.5c0,0,2.3-3.1,6.4-8.1c1.8-2.3,3.6-4.6,5.5-6.8
			c22-24.8,56.1-36.4,79.7-55.2C138.4,154.3,143.2,154.5,148,155.5z"/>
		<g>
			<g>
				<g>
					<g opacity="0.85">
						<g>
							<path fill="#7979B7" d="M108,171.2c-1.6,0.9-3.1,1.8-4.7,2.7c0.8-0.4,1.6-0.9,2.4-1.3C106.8,172,107.3,171.6,108,171.2z"/>
							<path fill="#7979B7" d="M98.9,176.4c-0.3,0.2-0.6,0.3-0.8,0.5c-0.2,0.2-0.5,0.3-0.7,0.4C97.9,177,98.4,176.7,98.9,176.4z"/>
							<path fill="#7979B7" d="M90.8,181.2c1.4-0.9,2.8-1.7,4.2-2.5C93.7,179.4,92.3,180.2,90.8,181.2z"/>
							<path fill="#7979B7" d="M97.3,177.4c-0.5,0.3-0.8,0.4,0-0.1c0,0,0,0,0,0c-0.8,0.5-1.6,1-2.5,1.5
								C95.8,178.3,96.6,177.8,97.3,177.4z"/>
							<path fill="#7979B7" d="M97.3,177.4c0.5-0.3,1.3-0.7,1.6-0.8C98.4,176.9,97.9,177.1,97.3,177.4z"/>
							<path fill="#7979B7" d="M95.6,179.3c-0.8,0.5-0.7,0.2-2.3,1.2c-1.9,1.2-3.6,2.2-5.4,3.3c-1.7,1.1-3.4,2.1-5.1,3.3
								c-1.5,1.1-4.2,2.5-5.7,3.6c-3.7,2.5-12.4,9.7-7.2,5.6c1-0.8,1.9-1.5,2.9-2.2c0.9-0.7,1.9-1.3,2.7-1.9
								c1.7-1.3,3.4-2.4,5.1-3.5c1.7-1.1,3.3-2.2,5.1-3.3c1.7-1.1,3.5-2.2,5.5-3.3c6.3-3.8,12.4-7.4,18.8-11.2
								c1.8-1.1,3.5-2.1,5.2-3.1c-2.2,1.3-4.5,2.6-7.1,4.1C104.7,173.7,100.8,176.2,95.6,179.3z"/>
							<path fill="#7979B7" d="M143.3,154.6c-0.5,0-1.2-0.1-1.8-0.1c-0.6,0-1.1,0-1.1,0c-2.1-0.2-4.3-0.1-6.5,0.1l-0.5,0
								c-0.2,0-0.3,0.2-0.4,0.2l-0.7,0.5l-1.3,1c-0.9,0.7-1.7,1.4-2.6,2c0.6-0.3,1.1-0.7,1.6-1.1c2-1.5,2.2-1.8,0.4-0.4
								c0.5-0.4,1-0.8,1.6-1.1l0.8-0.6l0.4-0.3l0.2-0.1c0.1,0,0.2,0,0.2,0c1.3-0.1,2.5-0.2,3.8-0.2c2.5,0,5,0.1,7.5,0.4
								C144.7,154.9,144.8,154.8,143.3,154.6z"/>
							<path fill="#7979B7" d="M147.9,155.4c-1-0.2-1.9-0.3-2.9-0.5c0,0,0.1,0,0.1,0c1,0.1,2,0.3,2.9,0.5L147.9,155.4z"/>
							<path fill="#7979B7" d="M73.9,192.3c-5.1,3.7-10,7.5-14.3,11.7l-1.6,1.5l-1.5,1.6c-1,1.1-2.1,2.1-3,3.2
								c-1.8,2.3-3.7,4.6-5.5,6.8c-0.5,0.7-0.9,1.2-1.6,2.2c-0.6,0.7-1.2,1.4-1.7,2.1l-1.6,2l-0.8,1l-0.4,0.5
								c0.1,0.2,0.3,0.4,0.4,0.5c0.4,0.5,0.7,1,1.1,1.5c0,0,0,0,0,0c0.6,0.8,0.4,0.5,0.1,0c-0.4-0.5-0.7-1-1-1.5
								c0.2,0.3,0.7,1,1,1.5c0.5,0.7,1,1.4,1.6,2.2c0.9,1.3,2,2.5,3,3.8c-1.2-1.4-2.2-2.6-3-3.8c-0.6-0.8-1.2-1.5-1.7-2.3
								c-0.2-0.2-0.3-0.4-0.5-0.7c1.2,1.6,2.3,3.1,3.5,4.6l3.7,4.5c0.6,0.7,1.2,1.3,1.6,1.8c0.9,1,1.9,2.1,2.7,3
								c0.8,0.9,1.7,1.7,2.2,2.4c0.5,0.5,1,1,1.5,1.5c-0.1-0.1-0.2-0.2-0.3-0.3c0.2,0.2,0.4,0.4,0.5,0.6c1,1,2.1,2,3.2,3
								c1.1,1,2.2,2,3.3,2.9c1.5,1.2,3,2.4,4.6,3.6c0,0,0.2,0.2,0.6,0.5c0.3,0.3,0.7,0.6,0.9,0.8c0.7,0.4,1.6,1.1,2.7,1.8
								c-1.2-1-2.4-1.9-3.4-2.7c-1.5-1.3-3.5-2.6-5.2-4.2c1.7,1.6,3.7,2.9,5.2,4.2c1,0.8,2.2,1.7,3.4,2.7c1.1,0.8,2.4,1.7,3.8,2.6
								c1.3,0.9,2.6,1.9,3.9,2.6c-1.6-0.9-2.9-1.8-4.2-2.7c-1.3-0.9-2.4-1.7-3.4-2.5c-1.1-0.8-2-1.4-2.7-1.8
								c-0.3-0.2-0.6-0.5-0.9-0.8c-0.3-0.3-0.6-0.5-0.6-0.5c-1.5-1.2-3.1-2.4-4.6-3.6c2.2,1.8,4.4,3.7,6.8,5.4
								c1.2,0.9,2.3,1.7,3.5,2.6c1.2,0.8,2.4,1.6,3.7,2.4c15.9,10.4,33.5,16.9,51.7,19.7c9.1,1.4,18.4,1.9,27.8,1.4
								c9.4-0.5,19-2,28.5-4.6c10.3-2.9,20.1-6.9,29.1-11.9c9-5,17.4-10.9,24.9-17.7c7.5-6.7,14.1-14.1,19.7-22.1
								c2.8-4,5.4-8.1,7.7-12.4c0.6-1.1,1.1-2.1,1.7-3.2c0.3-0.5,0.6-1.1,0.8-1.6l0.9-1.8l0.6-1.3l0.3-0.7l0.2-0.3c0,0,0-0.1,0-0.1
								l-0.1,0l-0.2,0l-2.9-0.4l-3.6-0.5c-9.5-1.2-19-2.7-28.4-4.9c-9.5-2.2-18.9-4.9-28.2-8.6c-7.2-2.8-17.2-7.4-26.1-13.7
								c-4.4-3.1-8.5-6.7-11.8-10.4c-0.8-0.9-1.6-1.8-2.3-2.8c-0.4-0.5-0.7-0.9-1.1-1.4c-0.2-0.3-0.5-0.6-0.7-0.9
								c-0.1-0.1-0.2-0.1-0.4-0.2l-0.4-0.2l-0.4-0.2c-2.1-0.9-4.1-1.6-5.9-2.2c-4.8-1.6-7.9-2.3-9.7-2.6c-1.8-0.3-2.4-0.3-2.3-0.1
								c0.1,0.3,2.8,1.2,3.3,1.4c2.9,1,5.7,2,8.5,3.1c1.4,0.6,2.8,1.1,4.3,1.7c0.4,0.2,0.7,0.3,1.1,0.5c0.4,0.2,0.6,0.2,0.8,0.5
								c0.5,0.7,1,1.4,1.6,2.1c4.5,5.6,10.9,11.8,21.7,18.4c-1.8-1.1-3-1.9-3.7-2.4c-0.7-0.5-0.8-0.6-0.5-0.4c0.3,0.2,1,0.6,2,1.2
								c1,0.6,2.4,1.4,4,2.3c3.2,1.8,7.4,3.9,11.8,5.9c4.4,1.9,9,3.7,12.8,5.1c11,4.1,25,7.5,39.7,9.7c3.7,0.6,7.4,1,11.2,1.5
								l2.5,0.3l0.2,0c0,0,0,0.1,0,0.1l-1,2l-1.3,2.5c-3.5,6.6-7.6,12.9-11.9,18.5c-2.2,2.8-4.6,5.7-7.2,8.5
								c-2.6,2.9-5.5,5.7-8.6,8.6c-8.2,7.4-17.2,13.6-26.8,18.7c-9.5,5.1-19.6,9.1-30.1,11.6l-3.9,1l-4,0.8
								c-2.7,0.6-5.4,0.9-8.1,1.3c-5.4,0.6-10.9,1-16.5,0.9c-5.5,0-11.1-0.4-16.8-1.1c-2.8-0.4-5.6-0.8-8.4-1.4
								c-2.8-0.5-5.6-1.3-8.4-2c-1.5-0.4-2.9-0.9-4.4-1.3c-1.4-0.4-2.9-0.8-4.2-1.3c-1.4-0.5-2.7-0.9-4.1-1.4
								c-1.3-0.5-2.6-1-3.9-1.6c-0.6-0.3-1.3-0.5-1.9-0.8c-0.6-0.3-1.3-0.6-1.9-0.8c-1.2-0.6-2.5-1.1-3.7-1.7
								c-1.2-0.6-2.4-1.2-3.6-1.8c-1.2-0.6-2.4-1.2-3.5-1.8c-1.6-1-3.3-1.9-5-2.9c-1.6-1.1-3.2-2.1-4.8-3.2c-3-2.2-5.9-4.3-8.3-6.3
								c-7.5-6.2-13.4-12.2-18.6-18.3c0.7,0.9,1.4,1.7,2.1,2.5c0.7,0.8,1.4,1.5,2.1,2.3c1.4,1.5,2.7,3,4.1,4.3
								c1.4,1.4,2.8,2.9,4.5,4.3c1.6,1.4,3.3,3,5.2,4.5c2.6,2.1,1.6,1.4-0.4-0.1c-0.5-0.4-1.1-0.8-1.7-1.3c-0.6-0.5-1.2-1-1.8-1.5
								c-1.2-1-2.4-2-3.2-2.8c-1.4-1.3-3.3-3.6-4.7-4.9c-1.4-1.5-2.7-3-4.1-4.4c-1.3-1.5-2.6-3.1-4.1-4.8c-1.2-1.4-0.9-1.4-1.5-2.2
								c-0.5-0.6-0.9-1.2-1.3-1.7c-0.4-0.5-0.8-1-1.1-1.5c-0.1-0.1-0.3-0.3-0.1-0.4c0.1-0.2,0.3-0.4,0.4-0.5c0.4-0.5,0.7-1,1.1-1.5
								c1.4-1.9,2.7-3.6,3.9-5.1c1.9-2.3,3.5-4.3,5.2-6.3l0.8-0.9l0.8-0.9c0.6-0.6,1.1-1.2,1.7-1.8c0.7-0.8,1.4-1.6,2.2-2.4
								c-0.7,0.5-1,0.7-1.2,0.9c1.1-1.1,2.8-2.6,4-3.7c-1.2,1.1-2.9,2.6-4,3.7c0.3-0.2,0.5-0.3,1.2-0.9c5.6-5.7,12.8-11.4,19.8-16.2
								c0,0-0.1,0-0.1,0c-2.1,1.4-4.1,2.8-6.1,4.2c-1,0.7-2,1.5-3,2.2c-1,0.8-2.1,1.5-3.1,2.3c0.9-0.7,1.3-1,1.2-0.9
								c-0.1,0.1-0.6,0.5-1.6,1.4c-0.5,0.4-1.1,0.8-1.6,1.2c0.8-0.7,1.7-1.5,2.5-2.2c0.9-0.7,1.7-1.4,2.6-2c0.9-0.7,1.7-1.3,2.6-2
								c0.9-0.6,1.8-1.2,2.7-1.8c0,0,1.5-1.1,2.3-1.7c1.2-0.7,1.2-0.7,1.5-0.8c0.8-0.5,1.6-1.1,2.5-1.6c-0.9,0.5-2.7,1.6-4.3,2.7
								C75.3,191.3,73.9,192.3,73.9,192.3z"/>
							<path fill="#7979B7" d="M45.1,229.3c-0.4-0.5-0.9-1.2-1.4-1.9c1,1.3,1.9,2.6,2.9,3.9c1,1.3,2,2.5,3.1,3.8
								c-0.5-0.7-1.2-1.6-2-2.6C46.8,231.5,45.9,230.5,45.1,229.3z"/>
						</g>
					</g>
				</g>
			</g>
		</g>
	</g>
	<g opacity="0.5">
		<path fill="#6666AC" d="M133.5,154.8c-23.6,18.8-57.8,30.3-79.7,55.2C75.7,183.5,105.2,157.7,133.5,154.8z"/>
		<g>
			<g>
				<g>
					<g opacity="0.85">
						<g>
							<path fill="#7979B7" d="M117.8,158.3c-0.6,0.2-1.2,0.5-1.8,0.7c0.3-0.1,0.6-0.2,0.9-0.3C117.3,158.6,117.5,158.4,117.8,158.3
								z"/>
							<path fill="#7979B7" d="M114.2,159.7c-0.1,0-0.2,0.1-0.3,0.1c-0.1,0-0.2,0.1-0.3,0.1L114.2,159.7z"/>
							<path fill="#7979B7" d="M111.1,161.2c0.5-0.3,1.1-0.5,1.6-0.7C112.2,160.6,111.7,160.8,111.1,161.2z"/>
							<path fill="#7979B7" d="M113.6,160.1C113.4,160.1,113.3,160.2,113.6,160.1c0-0.1,0-0.1,0-0.1c-0.3,0.1-0.6,0.3-0.9,0.4
								C113,160.3,113.4,160.2,113.6,160.1z"/>
							<path fill="#7979B7" d="M113.6,160.1c0.2-0.1,0.5-0.1,0.6-0.2C114.1,160,113.9,160,113.6,160.1z"/>
							<path fill="#7979B7" d="M113.2,161.1c-0.3,0.2-0.3-0.1-0.9,0.2c-1.4,0.8-2.6,1.5-3.9,2.1c-0.3,0.2-0.7,0.3-1.1,0.5
								c-0.4,0.2-0.8,0.3-1.1,0.5c-1.4,0.8-4.8,3.1-2.7,1.9c1.6-0.9,2.8-1.7,4.1-2.4c1.3-0.7,2.5-1.3,4-2c1.1-0.7,2.3-1.1,3.5-1.7
								c0.6-0.3,1.2-0.5,1.8-0.8l0.9-0.4c0.3-0.1,0.6-0.2,0.9-0.3c0.7-0.2,1.4-0.5,2.1-0.7c-0.9,0.3-1.8,0.5-2.8,0.8
								C116.6,159.3,115.1,160.3,113.2,161.1z"/>
							<path fill="#7979B7" d="M131.8,154.9c-0.3,0.1-1,0.2-1,0.2c-0.8,0-1.5,0.1-2.3,0.2c-0.8,0.1-1.5,0.4-2.3,0.6
								c0.2,0,0.5,0,0.7-0.1c0.9-0.2,1-0.3,0.2-0.2c0.9-0.2,1.8-0.3,2.7-0.4c0.9-0.1,1.8-0.2,2.7-0.4
								C132.3,154.9,132.3,154.9,131.8,154.9z"/>
							<path fill="#7979B7" d="M133.5,154.8c-0.4,0.1-0.7,0.1-1,0.2c0,0,0,0,0,0C132.8,154.9,133.2,154.9,133.5,154.8L133.5,154.8z"
								/>
							<path fill="#7979B7" d="M104.8,164.7c-1,0.6-2,1.1-2.9,1.7c-0.9,0.6-1.9,1.2-2.8,1.8c-0.9,0.6-1.8,1.2-2.7,1.7
								c-0.9,0.6-1.7,1.2-2.6,1.8c-0.2,0.2-0.4,0.4-0.8,0.6c-0.3,0.2-0.6,0.3-0.8,0.5c-0.5,0.4-1,0.7-1.5,1.1
								c-0.2,0.1-0.3,0.3-0.5,0.4l0,0c-0.3,0.2-0.2,0.2,0,0.1c0.2-0.1,0.4-0.2,0.6-0.3c-0.1,0.1-0.4,0.2-0.6,0.3
								c-0.2,0.2-0.5,0.3-0.8,0.6c-0.4,0.4-0.9,0.7-1.4,1.1c0.5-0.4,1-0.8,1.4-1.1c0.3-0.2,0.5-0.4,0.8-0.7c0.1-0.1,0.1-0.1,0.2-0.2
								c-1.1,0.8-2.2,1.7-3.3,2.5c-0.2,0.2-0.5,0.4-0.7,0.5c-0.8,0.6-1.5,1.3-2.1,1.6c-0.2,0.2-0.4,0.3-0.6,0.5l0.1-0.1
								c-0.1,0.1-0.2,0.1-0.2,0.2c-0.8,0.7-1.6,1.3-2.4,2c-0.5,0.5-1,1-1.5,1.5c0,0-0.4,0.3-0.6,0.4c-0.2,0.2-0.5,0.5-0.8,0.9
								c0.5-0.3,0.9-0.6,1.3-0.9c0.6-0.4,1-1.2,1.8-1.6c-0.8,0.4-1.2,1.2-1.8,1.6c-0.4,0.3-0.8,0.6-1.3,0.9
								c-0.7,0.7-1.7,1.5-2.5,2.2c0.9-0.9,1.8-1.6,2.5-2.2c0.3-0.3,0.6-0.6,0.8-0.9c0.2-0.1,0.6-0.4,0.6-0.4c0.5-0.5,1-1,1.5-1.5
								c-1.5,1.4-3.1,2.7-4.7,4.1c-8.4,7.6-15.6,15.4-23.1,24.3l0.7,0.6c1.5-1.6,3.1-3.3,4.9-5c5.5-5.3,11.4-9.8,17.4-13.7
								c12-7.9,23.5-14.3,36.3-21.3c1.2-0.7,2.7-1.5,4.3-2.5c1.6-1,3.3-2,5-3.1c1.7-1.1,3.4-2.2,4.8-3.2c1.5-1.1,2.9-2,4-2.8
								c5.6-4.7,2-3.1,1.7-3c-2,1-3.6,2.2-5.8,3.6c-2.1,1.4-4.7,3.2-8.7,5.4c5.3-3.1-3.6,2.9-8.9,5.3c-7.7,3.5-17.9,9.9-26.8,15.3
								c-1.1,0.7-2.2,1.4-3.4,2.2c-1.2,0.8-2.4,1.6-3.7,2.5c-8.4,5.6-15.8,11.8-22.5,19.3l2,1.7c3.8-4.6,7.8-9.3,12.3-13.9
								c3.1-3.2,5.7-6.1,8.4-8.8c1-1,2-1.9,3.1-2.8c1-0.9,2-1.7,2.8-2.5c1.3-1.1,2.6-2.2,3.7-3.2c0.6-0.5,1.2-1,1.7-1.5
								c0.6-0.5,1.1-0.9,1.7-1.4c-0.6,0.5-1.2,1-1.8,1.4c-0.6,0.5-1.1,0.9-1.6,1.4c-1.1,0.9-2.2,1.9-3.6,3.1c-0.9,0.8-0.6,0.5,0-0.2
								c0.6-0.7,1.7-1.6,2.3-2.2c0.5-0.5,1.5-1,2-1.5c1.1-0.9,2.2-1.8,3.4-2.9c0.5-0.5,0.6-0.2,0.8-0.5c1.7-1.4,2.9-2.6,4.1-3.3
								c0.9-0.6,1.7-1.1,2.4-1.6c0.5-0.3,1-0.6,1.5-1c0.3-0.2,0.6-0.5,1-0.7c-0.3,0.1-0.4,0.1-0.6,0.1c0.5-0.3,1.2-0.7,1.7-1
								c-0.5,0.3-1.2,0.7-1.7,1c0.1,0,0.3,0,0.6-0.1c1.2-0.8,2.4-1.8,3.8-2.6c1.3-0.8,2.7-1.7,4-2.5l0,0c-1.6,0.9-3.1,1.8-4.8,2.6
								c0.7-0.4,0.7-0.3-0.1,0.2c-0.2,0.1-0.4,0.2-0.7,0.3c1.3-0.9,2.7-1.7,4.1-2.3c0,0,0.6-0.4,0.9-0.6c0.5-0.2,0.5-0.2,0.6-0.2
								c0.3-0.2,0.6-0.3,0.9-0.5c-0.4,0.1-1.1,0.4-1.7,0.7C105.3,164.4,104.8,164.7,104.8,164.7z"/>
							<path fill="#7979B7" d="M89.4,174.9c0.2-0.2,0.4-0.3,0.7-0.5c-0.9,0.7-1.9,1.4-2.8,2.1C87.8,176.2,88.6,175.6,89.4,174.9z"/>
						</g>
					</g>
				</g>
			</g>
		</g>
	</g>
	<g>
		<path fill="#E86324" d="M166.2,161.5c-3.3-4.5-5.9-9.5-7.6-14.9c-2-5.6-3.3-11.6-4.3-17.8c13.3-31.9,1-76.9-15-112
			c-0.2-0.4-0.2-0.6-0.2-0.6c16.9-1.5,34.2,0.2,51.1,5.5c5.6,1.8,11.2,3.9,16.7,6.5c8.3,3.9,16,8.5,23.1,13.8
			c14.2,10.5,25.9,23.6,34.6,38.2c4.4,7.3,8.1,15,11,23c2.9,8,5.1,16.3,6.4,24.7c2.7,16.9,2.2,34.3-1.9,51.5c-2,8.6-5,17.1-8.9,25.4
			c-1.5-0.2-3-0.3-4.5-0.5c-1.6-0.2-3.5-0.5-5.8-0.9C226,197.2,196,173.9,166.2,161.5z"/>
		<g>
			<g>
				<g>
					<g opacity="0.85">
						<g>
							<path fill="#EB7641" d="M206,182.1c1.6,0.8,3.2,1.7,4.8,2.6c-0.8-0.4-1.6-0.9-2.4-1.4C207.3,182.7,206.8,182.5,206,182.1z"/>
							<path fill="#EB7641" d="M215.2,187c0.3,0.2,0.6,0.3,0.9,0.4c0.3,0.1,0.5,0.2,0.7,0.4C216.3,187.5,215.8,187.3,215.2,187z"/>
							<path fill="#EB7641" d="M223.8,191.1c-1.5-0.7-3-1.4-4.4-2.1C220.6,189.6,222.1,190.4,223.8,191.1z"/>
							<path fill="#EB7641" d="M217,187.8c0.5,0.3,0.7,0.5-0.1,0c0,0,0,0,0,0c0.8,0.4,1.7,0.8,2.6,1.2
								C218.5,188.6,217.7,188.2,217,187.8z"/>
							<path fill="#EB7641" d="M217,187.8c-0.5-0.3-1.3-0.7-1.5-0.9C215.9,187.2,216.4,187.5,217,187.8z"/>
							<path fill="#EB7641" d="M219.5,188.1c0.9,0.4,0.6,0.5,2.3,1.3c2,1,3.9,1.7,5.7,2.6c1.8,0.8,3.7,1.6,5.6,2.3
								c0.9,0.3,2,0.9,3.1,1.3c1.1,0.5,2.2,0.9,3.1,1.2c2.1,0.8,5.9,1.9,8.3,2.6c2.5,0.6,3.6,0.8,0.4,0c-9.6-2.9-15.6-5.4-23.8-9.1
								c-6.7-3-12.9-6.2-19.6-9.7c-1.8-1-3.6-1.9-5.3-2.9c2.3,1.3,4.6,2.5,7.1,4C209.8,183.6,214.1,185.5,219.5,188.1z"/>
							<path fill="#EB7641" d="M170.5,163.5c0.9,0.3,2.6,1.1,2.6,1.1c3.8,1.9,7.7,3.9,11.7,5.9c-0.6-0.3-1.1-0.7-1.7-1
								c-2.3-1.1-2.6-1.2-0.6-0.2c-4.5-2.4-8.9-4.7-13.5-6.6C169.3,162.9,169.2,163,170.5,163.5z"/>
							<path fill="#EB7641" d="M166.3,161.6c0.9,0.4,1.8,0.8,2.7,1.2c0,0-0.1,0-0.1-0.1C168,162.3,167.1,161.9,166.3,161.6
								L166.3,161.6z"/>
							<path fill="#EB7641" d="M242.5,198.6c3,1,5.9,2,8.9,2.7c2.9,0.9,5.9,1.4,8.9,2c1.5,0.3,3,0.5,4.4,0.7
								c0.7,0.1,1.5,0.2,2.2,0.3l2.2,0.2l2.2,0.3c0.2-0.3,0.3-0.7,0.5-1l0.5-1c0.6-1.3,1.2-2.7,1.7-4c0.3-0.8,0.5-1.4,0.9-2.5
								c0.4-0.8,0.7-1.7,1-2.5c0.6-1.6,1.1-3.2,1.6-4.8c0.2-0.6,0.3-1.1,0.5-1.7c0,0,0,0,0,0c0.2-0.9,0.1-0.7-0.1-0.1
								c-0.2,0.6-0.4,1.2-0.6,1.7c0.1-0.3,0.4-1.1,0.6-1.7c0.3-0.8,0.5-1.6,0.8-2.6c0.4-1.5,0.8-3.1,1.2-4.7
								c-0.4,1.8-0.8,3.4-1.2,4.7c-0.3,0.9-0.5,1.8-0.8,2.7c-0.1,0.3-0.1,0.5-0.2,0.8c1.2-3.7,2.2-7.4,3-11.2
								c0.2-0.9,0.3-1.7,0.5-2.4c0.5-2.7,0.9-5.5,1.3-7.2c0.1-0.7,0.2-1.4,0.3-2c0,0.1,0,0.3-0.1,0.4c0-0.3,0.1-0.6,0.1-0.8
								c0.4-2.9,0.6-5.8,0.8-8.7c0-0.9,0-1.9,0.1-2.9c0-1,0-1.9,0-2.9c0,0,0.1-1.3,0.1-2c0-0.8-0.1-1.9-0.2-3.3c0,1.6-0.1,3-0.1,4.3
								c-0.1,2,0.1,4.4-0.2,6.7c0.3-2.3,0.1-4.7,0.2-6.7c0-1.3,0.1-2.8,0.1-4.3c-0.1-2.8-0.3-6.3-0.5-9.2c0.4,3.6,0.5,6.6,0.5,9.2
								c0.1,1.3,0.1,2.4,0.2,3.3c0,0.6-0.1,2-0.1,2c0,1,0,1.9,0,2.9c0,1,0,1.9-0.1,2.9c0.3-5.7,0.3-11.5-0.1-17.4
								c-1.4-18.9-6.7-36.8-15.3-53.1c-8.7-16.2-20.8-31-36.4-43c-17-13-36.3-21.5-56.1-25.4c-9.9-2-19.8-2.7-29.5-2.4
								c-1.2,0-2.4,0.1-3.6,0.2c-0.3,0-0.6,0-0.9,0.1l-1,0.1l-2.9,0.2c1.1,2.6,2.2,5.2,3.4,7.7c1.9,4.4,3.6,8.8,5.3,13.3
								c3.3,9,6.1,18.1,8.3,27.6c2.1,9.4,3.6,19.2,3.9,29.2c0.1,3.8,0.1,8.5-0.4,13.5c-0.5,5-1.4,10.4-3,15.5
								c-0.4,1.3-0.8,2.6-1.3,3.8c-0.2,0.6-0.5,1.3-0.7,1.9c-0.1,0.4-0.3,0.6-0.2,1l0.1,0.7l0.2,1c0.4,2.7,1,5.3,1.6,7.8
								c0.6,2.5,1.3,4.8,2,7c0.7,2.1,1.4,4.2,2.2,5.9c2.1,4.7,4,7.3,5.1,8.8c1.2,1.5,1.6,1.8,1.7,1.6c0.1-0.3-1.3-2.8-1.5-3.2
								c-1.5-2.7-2.7-5.3-3.8-8.1c-0.5-1.4-1-2.8-1.5-4.4c-0.5-1.5-1-3.1-1.5-4.8c-0.9-3.4-1.8-7.2-2.4-11.8l-0.1-0.4
								c0-0.1-0.1-0.2,0-0.2c0.1-0.2,0.2-0.5,0.3-0.7c0.2-0.6,0.5-1.1,0.7-1.7c0.4-1.2,0.9-2.4,1.3-3.7c0.8-2.6,1.6-5.4,2.2-8.5
								c-0.4,2.1-0.8,3.5-1,4.3c-0.2,0.8-0.3,0.9-0.2,0.6c0-0.3,0.2-1.1,0.5-2.3c0.2-1.2,0.5-2.7,0.8-4.5c0.6-3.6,1-8.3,1.1-13.2
								c0.1-4.8-0.1-9.7-0.3-13.8c-0.4-5.9-1.3-12.3-2.7-19.1c-1.4-6.8-3.3-13.8-5.7-20.9c-2.3-7.1-5-14.2-8-21.2
								c-0.7-1.7-1.5-3.5-2.2-5.2l-0.7-1.6c0,0,0-0.1,0-0.1l0.1,0l0.3,0c3.7-0.3,7.3-0.4,10.9-0.3c7.1,0.1,14.7,0.7,23.1,2.3
								c10.9,2.1,21.2,5.6,31,10.1c9.8,4.6,19,10.3,27.4,17c16.8,13.5,30.6,31.5,39.2,53.1c4.6,11.4,7.3,22,8.8,32.3
								c1.1,7.5,1.2,15.7,0.9,21.8c-0.4,9.7-1.6,18-3.4,25.8c1-4.4,1.7-8.2,2.3-12.1c0.5-4,0.9-8.1,1.2-13.1
								c0.1-3.3,0.2-2.2,0.1,0.4c0,2.5-0.3,6.5-0.5,8.7c-0.2,1.9-0.8,4.8-1.1,6.7c-0.7,4-1.3,7.8-2.4,12.1c-0.4,1.8-0.6,1.6-0.8,2.5
								c-1.6,5.8-3,10.2-4.5,13.8c-0.6,1.3-1.1,2.6-1.7,3.8c-0.3,0.6-0.5,1.1-0.8,1.6l-0.1,0.3c-0.1,0.1-0.2,0-0.3,0l-0.7-0.1
								c-1.6-0.2-3.2-0.4-4.9-0.6c-1.1-0.1-2.2-0.3-3.2-0.4c0.9,0.2,1.2,0.3,1.4,0.4c-0.8-0.1-1.7-0.3-2.7-0.5
								c-0.9-0.2-1.9-0.4-2.6-0.6c0.8,0.2,1.7,0.4,2.6,0.6c0.9,0.2,1.9,0.3,2.7,0.5c-0.3-0.1-0.6-0.3-1.4-0.4
								c-7.8-1.2-16.7-3.6-24.7-6.6c0,0,0.1,0,0.1,0.1c2.3,0.8,4.6,1.8,7,2.5c1.2,0.4,2.4,0.8,3.6,1.2c1.2,0.4,2.4,0.7,3.7,1.1
								c-2.2-0.6-1.9-0.6,0.6,0c0.6,0.2,1.2,0.4,1.9,0.6c-2.2-0.6-4.3-1-6.4-1.7c-2.1-0.7-4.1-1.3-6.1-2.1c0,0-1.8-0.6-2.7-0.9
								c-1.3-0.5-1.2-0.6-1.5-0.7c-0.9-0.3-1.8-0.7-2.7-1.1c0.9,0.5,2.9,1.3,4.7,2c0.9,0.4,1.7,0.7,2.3,0.9
								C242.1,198.4,242.5,198.6,242.5,198.6z"/>
							<path fill="#EB7641" d="M278.9,184.3c-0.2,0.7-0.4,1.5-0.7,2.3c0.9-3.1,1.8-6.2,2.5-9.4C280.2,178.9,279.6,181.6,278.9,184.3
								z"/>
						</g>
					</g>
				</g>
			</g>
		</g>
	</g>
	<g opacity="0.5">
		<path fill="#04A6A8" d="M154.3,128.8c-4.7-31.6,1.5-69.7-11.3-103c-1.8-4.6-3.1-7.8-3.6-9C155.3,51.9,167.7,96.9,154.3,128.8z"/>
		<g>
			<g>
				<g>
					<g opacity="0.85">
						<g>
							<path fill="#24B1B3" d="M159.4,110.6c0.1-0.8,0.2-1.5,0.3-2.3c-0.1,0.4-0.1,0.8-0.2,1.1C159.4,110,159.4,110.2,159.4,110.6z"
								/>
							<path fill="#24B1B3" d="M160,106.2c0-0.1,0-0.3,0-0.4c0-0.1,0-0.2,0-0.4L160,106.2z"/>
							<path fill="#24B1B3" d="M160.2,102.2c0,0.7-0.1,1.4-0.1,2C160.1,103.7,160.2,103,160.2,102.2z"/>
							<path fill="#24B1B3" d="M159.9,105.4C160,105.2,160,105,159.9,105.4L159.9,105.4c0.1-0.3,0.1-0.7,0.1-1.1
								C160,104.7,160,105.1,159.9,105.4z"/>
							<path fill="#24B1B3" d="M159.9,105.4c0,0.2-0.1,0.6-0.1,0.7C159.8,105.9,159.9,105.7,159.9,105.4z"/>
							<path fill="#24B1B3" d="M159.2,104.3c0-0.4,0.2-0.3,0.2-1.1c0-1.9,0-3.5,0-5.2c-0.1-0.8,0.2-2,0.1-2.8
								c-0.1-1.9-0.7-6.6-0.5-3.8c0.2,4.2,0.3,7,0.2,10.7c-0.1,3.1-0.2,6-0.6,9.2c-0.1,0.9-0.2,1.7-0.4,2.5c0.3-1.1,0.4-2.2,0.6-3.4
								c0.2-0.8,0.2-1.7,0.2-2.7C159.1,106.7,159.2,105.6,159.2,104.3z"/>
							<path fill="#24B1B3" d="M155.2,127c0.1-0.4,0.4-1.1,0.4-1.1c0.7-1.6,1.3-3.4,1.7-5.3c-0.1,0.3-0.2,0.5-0.3,0.8
								c-0.3,1-0.3,1.2,0.1,0.3c-0.3,1-0.7,2-1.1,3c-0.3,1-0.7,2-1.1,3C154.9,127.5,155,127.6,155.2,127z"/>
							<path fill="#24B1B3" d="M154.4,128.8c0.1-0.4,0.3-0.8,0.4-1.2c0,0,0,0,0,0C154.6,128,154.5,128.4,154.4,128.8L154.4,128.8z"
								/>
							<path fill="#24B1B3" d="M160,93.7c-0.2-5.3-0.7-10.3-1.3-15.2c-0.1-0.4-0.2-0.6-0.2-1.1c0-0.4-0.1-0.8-0.1-1.1
								c-0.1-0.7-0.2-1.4-0.3-2.1c0-0.2-0.1-0.5-0.1-0.7c0,0,0,0,0,0c-0.1-0.4-0.1-0.3-0.1,0c0,0.3,0.1,0.5,0.1,0.7
								c0-0.1,0-0.5-0.1-0.7c0-0.3-0.1-0.7-0.1-1.1c-0.1-0.6-0.3-1.3-0.4-2c0.2,0.8,0.3,1.4,0.4,2c0.1,0.4,0.2,0.8,0.2,1.2
								c0,0.1,0.1,0.2,0.1,0.3c-0.3-1.6-0.6-3.2-0.9-4.8c-0.1-0.4-0.2-0.7-0.2-1c-0.3-1.1-0.5-2.3-0.6-3c-0.1-0.3-0.1-0.6-0.2-0.9
								l0,0.2c0-0.1,0-0.2-0.1-0.3c-0.3-1.2-0.6-2.4-0.8-3.6c-0.2-0.8-0.5-1.6-0.7-2.3c0,0-0.1-0.6-0.1-0.8
								c-0.1-0.3-0.3-0.8-0.5-1.3c0.1,0.7,0.2,1.3,0.3,1.8c0.1,0.8,0.7,1.7,0.7,2.7c0-1-0.6-1.9-0.7-2.7c-0.1-0.5-0.2-1.2-0.3-1.8
								c-0.3-1.1-0.7-2.6-1-3.8c0.5,1.4,0.8,2.7,1,3.8c0.2,0.5,0.3,1,0.5,1.3c0,0.3,0.1,0.8,0.1,0.8c0.2,0.8,0.5,1.6,0.7,2.3
								c-0.6-2.3-1.2-4.7-1.9-7.1c-3.6-12.8-8-24.4-13.5-36.7l-0.8,0.4c0.9,2.4,2,5,3,7.6c3.2,8.4,5.2,16.7,6.4,25.1
								c2.4,16.6,2.6,32,2.5,49.1c0,3.3,0.1,8,0.4,12.6c0.3,4.7,0.7,9.3,1.1,12.5c1.4,8.4,1.8,3.9,1.8,3.5c0.1-2.6-0.2-4.9-0.3-7.9
								c-0.1-1.5-0.3-3.1-0.3-5.1c-0.1-1.9-0.2-4.2-0.1-6.8c0,7.2-0.8-5.3-0.3-12.1c0.3-4.9,0.2-10.9,0-17.2
								c-0.3-6.3-0.7-12.8-1.3-18.9c-0.1-1.5-0.3-3.1-0.5-4.7c-0.2-1.6-0.4-3.4-0.7-5.2c-0.2-1.5-0.5-2.9-0.7-4.3
								c-0.3-1.4-0.6-2.9-0.9-4.3c-0.5-2.9-1.4-5.6-2.2-8.4c-0.4-1.4-0.9-2.7-1.4-4.1c-0.5-1.3-0.9-2.7-1.5-4.1
								c-1.1-2.7-2.2-5.3-3.2-8l-2.4,1.1c2.9,6.4,5.7,13,8.3,20.1c1.8,4.9,3.4,9.2,4.8,13.4c1,3.1,1.8,6.4,2.4,8.9
								c1,4,1.9,7.4,2.6,10.7c-0.8-3.7-1.4-6.4-2.5-10.5c-0.7-2.7,0.8,1.8,1.2,3.6c0.2,0.8,0.3,2,0.5,2.8c0.4,1.7,0.8,3.2,1.2,5.1
								c0.2,0.8,0,0.7,0.1,1.1c0.5,2.5,1.1,4.4,1.3,6c0.1,1.2,0.3,2.3,0.4,3.4c0.1,0.7,0.1,1.4,0.2,2.1c0.1,0.4,0.1,0.9,0.2,1.4
								c0-0.4,0.1-0.5,0.2-0.6c0.1,0.7,0.1,1.6,0.1,2.3c0-0.7-0.1-1.6-0.1-2.3c-0.1,0.1-0.1,0.3-0.2,0.6c0.5,3.3,0.8,7.2,0.9,10.8
								l0,0c-0.1-2.1-0.1-4.1-0.1-6.3c0,0.9-0.1,0.8-0.1-0.2c0-0.3,0-0.6,0.1-0.8c0.2,1.9,0.4,3.7,0.2,5.5c0,0,0.1,0.8,0.1,1.2
								c0,0.6-0.1,0.6-0.1,0.7c0,0.4,0,0.8,0,1.2c0-0.4,0.1-1.3,0.1-2.1C160,94.4,160,93.7,160,93.7z"/>
							<path fill="#24B1B3" d="M157.6,72.2c0.1,0.3,0.1,0.6,0.2,1c-0.2-1.3-0.5-2.7-0.7-4C157.1,69.9,157.3,71.1,157.6,72.2z"/>
						</g>
					</g>
				</g>
			</g>
		</g>
	</g>
	<g opacity="0.5">
		<path fill="#E86324" d="M166.2,161.5c29.8,12.4,59.7,35.7,94.8,41.8c2.3,0.4,4.2,0.6,5.8,0.9C228.9,199.7,185.6,188.2,166.2,161.5
			z"/>
		<g>
			<g>
				<g>
					<g opacity="0.85">
						<g>
							<path fill="#EB7740" d="M178.7,174.8c0.6,0.5,1.2,0.9,1.8,1.4c-0.3-0.2-0.6-0.5-0.9-0.7C179.3,175.1,179,175,178.7,174.8z"/>
							<path fill="#EB7740" d="M182.1,177.4c0.1,0.1,0.2,0.2,0.3,0.2c0.1,0.1,0.2,0.1,0.3,0.2L182.1,177.4z"/>
							<path fill="#EB7740" d="M185.4,179.5c-0.6-0.4-1.1-0.7-1.6-1.1C184.2,178.8,184.7,179.1,185.4,179.5z"/>
							<path fill="#EB7740" d="M182.8,177.7C183,177.9,183.1,178,182.8,177.7C182.8,177.8,182.8,177.8,182.8,177.7
								c0.2,0.3,0.5,0.5,0.9,0.7C183.4,178.2,183.1,177.9,182.8,177.7z"/>
							<path fill="#EB7740" d="M182.8,177.7c-0.2-0.2-0.4-0.4-0.5-0.5C182.5,177.4,182.6,177.6,182.8,177.7z"/>
							<path fill="#EB7740" d="M184.1,177.7c0.3,0.2,0.1,0.3,0.8,0.7c1.6,0.9,2.9,1.7,4.3,2.5c0.7,0.3,1.6,1.2,2.3,1.5
								c1.6,0.9,5.8,2.7,3.4,1.5c-3.6-1.9-6-3.1-9-5.1c-2.5-1.6-4.9-3.1-7.3-5c-0.7-0.5-1.3-1-1.9-1.6c0.8,0.7,1.6,1.4,2.5,2.2
								C180.4,175.4,182,176.3,184.1,177.7z"/>
							<path fill="#EB7740" d="M167.3,163.1c0.3,0.3,0.8,0.9,0.8,0.9c1,1.4,2.2,2.8,3.5,4c-0.2-0.2-0.3-0.4-0.5-0.7
								c-0.7-0.7-0.8-0.8-0.3-0.1c-0.7-0.8-1.3-1.6-2-2.4c-0.7-0.8-1.3-1.6-1.9-2.4C167,162.6,166.9,162.7,167.3,163.1z"/>
							<path fill="#EB7740" d="M166.2,161.6c0.2,0.3,0.5,0.6,0.7,0.9c0,0,0,0,0,0C166.7,162.1,166.4,161.8,166.2,161.6L166.2,161.6z
								"/>
							<path fill="#EB7740" d="M192.5,183.5c4.5,2.5,8.9,4.5,13.3,6.3c0.4,0.1,0.6,0.1,1.1,0.3c0.3,0.2,0.7,0.3,1,0.5
								c0.6,0.3,1.3,0.5,1.9,0.8c0.2,0.1,0.5,0.2,0.7,0.2c0,0,0,0,0,0c0.4,0.1,0.3,0,0.1-0.1c-0.2-0.1-0.5-0.2-0.7-0.3
								c0.1,0.1,0.4,0.2,0.7,0.3c0.3,0.1,0.6,0.3,1,0.4c0.6,0.2,1.2,0.4,1.9,0.7c-0.7-0.2-1.3-0.5-1.9-0.7c-0.4-0.1-0.7-0.2-1.1-0.4
								c-0.1,0-0.2-0.1-0.3-0.1c1.5,0.5,2.9,1.1,4.4,1.6c0.3,0.1,0.7,0.2,0.9,0.3c1.1,0.3,2.2,0.6,2.8,1c0.3,0.1,0.5,0.2,0.8,0.3
								l-0.1-0.1c0.1,0,0.2,0.1,0.3,0.1c1.1,0.4,2.3,0.7,3.4,1.1c0.8,0.2,1.5,0.4,2.3,0.5c0,0,0.5,0.2,0.7,0.3
								c0.3,0,0.8,0.1,1.3,0.2c-0.6-0.2-1.2-0.5-1.7-0.6c-0.7-0.3-1.8-0.3-2.6-0.7c0.8,0.5,1.9,0.4,2.6,0.7c0.5,0.2,1.1,0.4,1.7,0.6
								c1.1,0.2,2.5,0.7,3.6,1c-1.4-0.3-2.6-0.7-3.6-1c-0.5-0.1-1-0.2-1.3-0.2c-0.2-0.1-0.7-0.3-0.7-0.3c-0.8-0.2-1.6-0.4-2.3-0.5
								c2.2,0.7,4.5,1.3,6.8,1.9c12.4,3.3,24.3,5.3,37.2,7l0.1-0.9c-1.2-0.2-2.5-0.4-3.8-0.6c-0.6-0.1-1.3-0.2-2-0.3
								c-0.7-0.1-1.3-0.3-2-0.4c-8.5-1.7-16.4-4.3-23.9-7.5c-7.5-3.1-14.5-6.5-21.4-10.1c-6.9-3.6-13.7-7.4-20.9-11.6
								c-2.7-1.6-6.7-3.7-10.7-5.8c-4-2.1-8.1-4-10.9-5.2c-7.7-3-4.1-0.4-3.8-0.2c2.1,1.4,4.2,2.3,6.7,3.6c2.6,1.3,5.7,2.8,10.2,5.4
								c-6-3.5,4.8,1.9,10.3,5.5c8,5.3,20.2,11.3,30.8,16.3c1.3,0.6,2.7,1.3,4.2,1.9c1.5,0.6,3,1.3,4.6,1.9
								c10.4,4.4,21.1,7.2,32.2,8.6l0.3-2.6c-6.8-0.8-13.7-1.7-20.8-3.1c-5-0.9-9.3-1.7-13.5-2.6c-3-0.7-6.2-1.7-8.6-2.3
								c-3.8-1.1-7.1-2.1-10.2-3.1c3.5,1.2,6,1.9,10,3c1.3,0.4,0.8,0.3-0.2,0.1c-1-0.2-2.6-0.6-3.5-0.8c-0.8-0.2-1.8-0.8-2.6-1
								c-1.6-0.5-3.1-0.9-4.8-1.5c-0.7-0.2-0.6-0.4-1-0.5c-2.3-0.8-4.2-1.2-5.6-1.9c-1.1-0.5-2.1-0.9-3-1.4
								c-0.6-0.3-1.2-0.6-1.8-0.8c-0.4-0.2-0.8-0.3-1.2-0.5c0.3,0.2,0.4,0.3,0.5,0.5c-0.6-0.3-1.4-0.7-2-1c0.6,0.3,1.4,0.7,2,1
								c-0.1-0.1-0.2-0.3-0.5-0.5c-3-1.2-6.4-2.8-9.4-4.5l0,0c0.9,0.5,1.8,1,2.6,1.5c0.9,0.5,1.8,1,2.7,1.5c-0.8-0.5-0.7-0.5,0.3,0
								c0.2,0.2,0.4,0.3,0.7,0.5c-1.6-0.8-3.3-1.5-4.7-2.5c0,0-0.7-0.3-1.1-0.5c-0.5-0.3-0.4-0.4-0.5-0.5c-0.3-0.2-0.7-0.4-1-0.6
								C190.2,182.1,192.5,183.5,192.5,183.5z"/>
							<path fill="#EB7740" d="M211.6,192c-0.3-0.1-0.6-0.2-0.9-0.3c1.2,0.5,2.5,0.9,3.7,1.3C213.8,192.7,212.7,192.4,211.6,192z"/>
						</g>
					</g>
				</g>
			</g>
		</g>
	</g>
</g>
<g>
	<path fill="#FFFFFF" d="M94.5,130.5c-4.4,0.4-8.5-1.7-11.8-6.1c-2.2-3-3.3-5.9-3.4-6c0,0,2.7,1.3,5.7,2.7c2.3,1.1,4.6,2.6,8.7,2.4
		c4.3-0.2,7.3-7.6,8-10.1l6.6,1.8c0,0.1-0.9,3.5-2.9,7C102.7,127.2,98.9,130.2,94.5,130.5z"/>
	<path fill="#FFFFFF" d="M72,99.4c1.8-4,5.7-6.5,11.1-7.2c3.7-0.5,6.7,0,6.9,0.1c0,0-2.4,1.7-5.2,3.6c-2,1.4-4.6,2.7-6.4,6.4
		c-1.9,3.8,3,10.1,4.8,12l-4.8,4.9c-0.1-0.1-2.6-2.6-4.6-6C70.8,108.1,70.2,103.3,72,99.4z"/>
	<path fill="#FFFFFF" d="M110.3,95.7c2.6,3.6,2.8,8.2,0.7,13.2c-1.4,3.4-3.4,5.8-3.5,5.9c0,0-0.3-3-0.6-6.3
		c-0.2-2.5-0.1-5.3-2.4-8.7c-2.4-3.6-10.2-2.4-12.8-1.7l-1.8-6.6c0.1,0,3.5-1,7.5-1C103.3,90.3,107.8,92.2,110.3,95.7z"/>
</g>
<g>
	<path fill="#FFFFFF" d="M213.4,96.7c5.1-0.4,9.7,2,13.5,7c2.6,3.4,3.8,6.8,3.9,6.9c0,0-3.1-1.4-6.6-3.1c-2.6-1.2-5.3-3-10.1-2.8
		c-5,0.3-8.4,8.7-9.2,11.7l-7.6-2c0-0.2,1.1-4.1,3.4-8.1C204,100.5,208.4,97.1,213.4,96.7z"/>
	<path fill="#FFFFFF" d="M239.1,113.5c-2.1,4.6-6.6,7.5-12.8,8.3c-4.2,0.5-7.8,0-7.9-0.1c0,0,2.8-2,6-4.2c2.4-1.7,5.2-3.1,7.4-7.4
		c2.2-4.4-3.4-11.6-5.6-13.8l5.6-5.6c0.1,0.1,3,3,5.3,6.9C240.5,103.5,241.2,109,239.1,113.5z"/>
	<path fill="#FFFFFF" d="M212.1,127.1c-2.9-4.1-3.2-9.4-0.8-15.2c1.6-3.9,3.9-6.7,4-6.8c0,0,0.3,3.4,0.7,7.3
		c0.3,2.9,0.1,6.1,2.7,10.1c2.7,4.1,11.8,2.8,14.7,2l2.1,7.6c-0.2,0-4,1.1-8.6,1.2C220.1,133.3,215,131.2,212.1,127.1z"/>
</g>
<path fill="#FFFFFF" d="M168,219.7c-0.2-0.3-0.4-0.6-0.5-0.8c0.1-0.3,0.2-0.5,0.4-0.8c1.5-3.7,1.4-7.1-0.5-9.7
	c-1.8-2.6-5.1-3.9-9.4-3.9c-0.3,0-0.6,0-0.9,0c-0.1-0.2-0.3-0.4-0.5-0.6c-2.4-3.2-5.4-4.8-8.6-4.5c-3.2,0.3-6,2.4-8.1,6.2
	c-0.2,0.3-0.3,0.6-0.5,0.9c-0.3,0-0.6,0-0.9,0.1c-4,0.5-6.8,2.3-8.2,5.3c-1.3,2.9-0.9,6.4,1.3,10.1c0.2,0.3,0.4,0.6,0.5,0.8
	c-0.1,0.3-0.2,0.5-0.4,0.8c-1.5,3.7-1.4,7.1,0.5,9.7c1.8,2.6,5.1,3.9,9.4,3.9c0.3,0,0.6,0,0.9,0c0.1,0.2,0.3,0.4,0.5,0.6
	c2.4,3.2,5.4,4.8,8.6,4.5c3.2-0.3,6-2.4,8.1-6.2c0.2-0.3,0.3-0.6,0.5-0.9c0.3,0,0.6,0,0.9-0.1c4-0.5,6.8-2.3,8.2-5.3
	C170.6,226.9,170.2,223.4,168,219.7z M147.4,227.5c-1.2,0.3-4.8,0.8-5.9-0.8c-0.6-0.9-0.8-1.7-0.9-2.4c0,0,0,0,0,0l2.2-2.2
	c-0.9-0.9-3.1-3.7-2.2-5.5c0.5-1,1.1-1.6,1.7-2c0,0,0,0,0,0l3,0.8c0.3-1.2,1.7-4.5,3.6-4.6c1-0.1,1.8,0.1,2.5,0.4c0,0,0,0,0,0l0.8,3
	c1.2-0.3,4.8-0.8,5.9,0.8c0.6,0.9,0.8,1.7,0.9,2.4c0,0,0,0,0,0l-2.2,2.2c0.9,0.9,3.1,3.7,2.2,5.5c-0.5,1-1.1,1.6-1.7,2c0,0,0,0,0,0
	l-3-0.8c-0.3,1.2-1.7,4.5-3.7,4.6c-1,0.1-1.8-0.1-2.5-0.4c0,0,0,0,0,0L147.4,227.5z"/>
<g>
	<g>
		<g>
			<g>
				<g>
					<g opacity="0.85">
						<g opacity="0.9">
							<path fill="#F2F2F2" d="M175.8,17.9c-2.4-0.7-4.4-1.3-6-1.9c-2.3-0.3-4.7-0.5-7-0.8c-2.4-0.1-4.7-0.3-7.1-0.4
								c-2.1,0-4.2,0-6.3-0.1C158.5,14.8,167.3,16,175.8,17.9z"/>
							<path fill="#F2F2F2" d="M251.3,66.5c-2.9-4.4-8.2-10.8-15.4-17.1c-7.1-6.4-16-12.7-25.3-17.7C226.8,40.8,240.5,53,251.3,66.5
								z"/>
							<path fill="#F2F2F2" d="M285.1,125.1c-0.2-2-0.5-3.9-0.6-5.8c-2.3-10-5.8-19.7-10.2-28.8c0.4,1,0.8,2,1.2,3
								c0.4,1,0.7,2,1.1,3C280.4,105.7,283.3,115.3,285.1,125.1z"/>
							<path fill="#F2F2F2" d="M177.2,16.3c1.5,0.3,2.9,0.6,4.4,0.9c1.5,0.3,2.9,0.7,4.4,1.1c3,0.7,5.8,1.8,8.8,2.7
								c5.8,2.1,11.6,4.6,17.1,7.5c11.1,5.9,21.4,13.5,30.3,22.1l1.7,1.6l1.6,1.7c1.1,1.1,2.2,2.2,3.2,3.4c2,2.3,4.1,4.6,5.9,7
								c2,2.3,3.7,4.8,5.5,7.2c0.9,1.2,1.7,2.5,2.5,3.7l1.2,1.8l1.1,1.9c0.8,1.3,1.5,2.5,2.3,3.8c0.7,1.3,1.4,2.5,2.1,3.8
								c0.3,0.6,0.7,1.3,1,1.9c0.3,0.6,0.6,1.3,1,1.9c0.6,1.3,1.3,2.5,1.9,3.8c2.3,5.1,4.5,10.1,6.3,15.1c-1.4-6.4-3.5-13.3-6.3-20
								c-4.7-9.7-10.7-18.8-17.6-27.1c-6.9-8.3-14.8-15.7-23.4-22.2l-1.9-1.5l-2-1.4c-1.3-0.9-2.7-1.8-4-2.7l-4.1-2.5
								c-1.4-0.9-2.8-1.6-4.2-2.4l-2.1-1.2c-0.7-0.4-1.4-0.7-2.2-1.1c-1.5-0.7-2.9-1.4-4.4-2.1c-3-1.3-5.9-2.6-9-3.7
								c-5.2-2-10.6-3.5-16-4.9l-4.1-0.9l-2-0.4l-2.1-0.3l-4.1-0.7c-1.4-0.2-2.8-0.3-4.1-0.5c0.4,0.7,1.8,1.4,4,2.2
								c8.6,1.2,17.1,3.3,25.3,6.2c-1.4-0.6-2.8-1.1-4.3-1.7c-0.7-0.3-1.4-0.6-2.2-0.8c-0.7-0.2-1.5-0.5-2.2-0.7
								c-1.5-0.5-3-1-4.5-1.4C180.4,17.2,178.8,16.8,177.2,16.3z"/>
							<path fill="#F2F2F2" d="M271.3,84.8c-4.8-8.8-10.5-17-17.1-24.5c-6.6-7.5-14-14.3-21.9-20.2c8.6,6.4,16.5,13.8,23.4,22.2
								c6.9,8.3,12.9,17.3,17.6,27.1C272.7,87.8,272,86.3,271.3,84.8z"/>
							<path fill="#F2F2F2" d="M234.2,47.2c-6.4-5.4-12.6-10.1-19-14.2c-6.4-4.1-12.9-7.7-20-10.7c-8.2-2.9-16.7-5-25.3-6.2
								c1.6,0.6,3.6,1.3,6,1.9c10.8,2.6,21,6.4,30.7,11.3c2.4,1.3,4.8,2.5,7.2,3.9c1.2,0.7,2.4,1.4,3.5,2.1c1.2,0.7,2.3,1.5,3.5,2.2
								l1.7,1.1l1.7,1.2c1.1,0.8,2.3,1.6,3.4,2.4c1.1,0.8,2.2,1.7,3.3,2.5l1.7,1.2L234.2,47.2z"/>
							<path fill="#F2F2F2" d="M210.5,31.7c-2.4-1.3-4.7-2.6-7.2-3.7c-1.2-0.6-2.4-1.2-3.7-1.7c-1.3-0.5-2.5-1.1-3.8-1.6l-1.9-0.8
								l-1.9-0.7l-3.9-1.4l-3.9-1.2c-1.3-0.4-2.6-0.8-4-1.2c0.5,0.2,1.1,0.3,1.6,0.5c0.5,0.2,1.1,0.4,1.7,0.6
								c1.1,0.4,2.3,0.8,3.5,1.2c1.2,0.4,2.4,0.9,3.7,1.3c1.2,0.5,2.5,0.9,3.8,1.4c2.5,1.1,5.2,2.1,7.9,3.4c1.3,0.6,2.7,1.2,4,1.9
								C207.9,30.3,209.2,31,210.5,31.7z"/>
							<path fill="#F2F2F2" d="M198.2,21.5c3.1,1.1,6,2.4,9,3.7c1.5,0.7,2.9,1.4,4.4,2.1c0.7,0.4,1.5,0.7,2.2,1.1l2.1,1.2
								c1.4,0.8,2.9,1.5,4.2,2.4l4.1,2.5c1.4,0.9,2.7,1.8,4,2.7l2,1.4l1.9,1.5l-1.9-1.5l-2-1.4c-1.3-0.9-2.7-1.8-4-2.7l-4.1-2.5
								c-1.4-0.9-2.8-1.6-4.2-2.4l-2.1-1.2c-0.7-0.4-1.4-0.7-2.2-1.1c-1.5-0.7-2.9-1.4-4.4-2.1C204.2,24,201.3,22.6,198.2,21.5z"/>
							<path fill="#F2F2F2" d="M287.2,156.4c0.4-3,0.4-6,0.5-9.1c0-1.5-0.1-2.9-0.1-4.4c-0.1-1.4-0.1-2.9-0.2-4.3
								c-0.3-2.9-0.5-5.8-0.9-8.6c-0.2-1.5-0.5-3-0.7-4.4c-0.4-2.1-0.9-4.1-1.3-6.2c0.2,1.9,0.4,3.8,0.6,5.8
								C287,135.4,287.6,145.9,287.2,156.4z"/>
							<path fill="#F2F2F2" d="M274.9,196.1c0.6-1.1,1.1-2.3,1.7-3.5c2-5.9,3.7-12,4.9-18.1C280,181.8,277.7,189.1,274.9,196.1z"/>
							<path fill="#F2F2F2" d="M165.7,13.5c0,0.1,0.1,0.2,0.1,0.3c1.4,0.2,2.8,0.3,4.1,0.5l4.1,0.7l2.1,0.3l2,0.4l4.1,0.9
								c5.4,1.4,10.8,2.9,16,4.9c-5.2-2-10.6-3.6-16-5l-4.1-0.9l-2-0.5l-2.1-0.4l-4.1-0.7C168.5,13.8,167.1,13.7,165.7,13.5z"/>
							<path fill="#F2F2F2" d="M276.6,192.6c-8.1,23.4-22.9,44.3-41.9,60c1.1-0.9,2.2-1.7,3.4-2.6l3.2-2.7c0.5-0.5,1.1-0.9,1.6-1.4
								l1.6-1.4l3.1-2.9l3-3.1l1.5-1.5l1.4-1.6l2.8-3.2l2.7-3.4l1.3-1.7l1.3-1.7l2.5-3.5c0.8-1.2,1.6-2.4,2.4-3.6l1.2-1.8l1.1-1.9
								c0.7-1.3,1.5-2.5,2.2-3.8c0.7-1.3,1.3-2.6,2-3.9c0.3-0.7,0.7-1.3,1-2l0.9-2c0.6-1.3,1.2-2.7,1.8-4.1c2.8-6.7,5-13.7,6.8-20.8
								c0.4-1.8,0.9-3.5,1.2-5.4l1-5.4c0.5-3.6,1.1-7.3,1.4-10.9c0.5-10.5-0.2-21-2.1-31.3c1.1,10.5,1.5,22.3,0.2,34.2
								C284.1,171.1,281.1,182.8,276.6,192.6z"/>
							<path fill="#F2F2F2" d="M276.5,96.5c-0.5-1.2-1-2.5-1.6-3.6l-1.7-3.6c2.9,6.8,5,13.6,6.3,20c-1.8-5-4-10-6.3-15.1
								c-0.6-1.3-1.3-2.5-1.9-3.8c-0.3-0.6-0.6-1.3-1-1.9c-0.3-0.6-0.7-1.3-1-1.9c-0.7-1.3-1.4-2.5-2.1-3.8
								c-0.8-1.2-1.5-2.5-2.3-3.8l-1.1-1.9l-1.2-1.8c-0.8-1.2-1.6-2.5-2.5-3.7c-1.8-2.4-3.5-4.9-5.5-7.2c-1.9-2.4-3.9-4.7-5.9-7
								c-1-1.2-2.1-2.2-3.2-3.4l-1.6-1.7l-1.7-1.6c-8.9-8.7-19.3-16.2-30.3-22.1c-5.5-3-11.3-5.4-17.1-7.5c-2.9-0.9-5.8-2-8.8-2.7
								c-1.5-0.4-2.9-0.8-4.4-1.1c-1.5-0.3-2.9-0.6-4.4-0.9c1.6,0.4,3.2,0.8,4.7,1.2c1.5,0.4,3,1,4.5,1.4c0.7,0.2,1.5,0.5,2.2,0.7
								c0.7,0.3,1.4,0.6,2.2,0.8c1.4,0.6,2.9,1.1,4.3,1.7c15.3,5.4,29.4,13.6,41.7,24C249,56.5,259.4,69,267.1,82.9
								c7.7,13.9,12.9,29.1,15.4,44.7c1.3,7.8,1.7,15.7,1.6,23.5c-0.2,7.9-1,15.7-2.5,23.4C287.2,148.6,285.5,121.3,276.5,96.5z"/>
							<path fill="#F2F2F2" d="M285.1,125.1c-1.8-9.8-4.7-19.4-8.6-28.6c8.9,24.7,10.7,52.1,5,77.9c-1.2,6.2-2.9,12.2-4.9,18.1
								c4.4-9.8,7.5-21.5,8.7-33.3C286.6,147.4,286.2,135.6,285.1,125.1z"/>
							<path fill="#F2F2F2" d="M276.5,96.5c-0.4-1-0.7-2-1.1-3c-0.4-1-0.8-2-1.2-3l-1.4-2.9l-1.5-2.8c0.7,1.5,1.4,3,2,4.5l1.7,3.6
								C275.5,94.1,276,95.3,276.5,96.5z"/>
							<path fill="#F2F2F2" d="M145.7,14.8c1.2,0,2.4-0.1,3.7-0.1c2.1,0,4.2,0,6.3,0.1c2.4,0.1,4.7,0.3,7.1,0.4
								c2.3,0.3,4.7,0.5,7,0.8c-2.2-0.8-3.6-1.5-4-2.2c-12.1-1.4-24.3-1.1-36.3,0.6c-1.5,0.2-3,0.5-4.5,0.8c-1.5,0.3-3,0.5-4.5,0.9
								c-2.9,0.7-5.9,1.3-8.8,2.2c-5.8,1.6-11.5,3.7-17.1,6.1c-1.4,0.7-2.8,1.5-4.2,2.2c-1.4,0.7-2.6,1.6-3.9,2.3
								c9.1-4.7,18.8-8.3,28.8-10.6C125.4,15.9,135.6,14.8,145.7,14.8z"/>
							<path fill="#F2F2F2" d="M274.2,90.5c-0.6-1.5-1.2-3.1-2-4.6c-1.1-2.1-2.2-4.3-3.5-6.3c0.9,1.7,1.7,3.5,2.5,5.2l1.5,2.8
								L274.2,90.5z"/>
							<path fill="#F2F2F2" d="M285.7,125.5c-0.4-2.2-0.9-4.3-1.3-6.5c0,0.1,0,0.2,0,0.3C284.9,121.4,285.3,123.5,285.7,125.5z"/>
							<path fill="#F2F2F2" d="M284.5,119.3c0-0.1,0-0.2,0-0.3c-1.4-5.7-2.9-11.4-5-16.9c-0.9-2.8-2.2-5.5-3.3-8.2
								c-0.6-1.4-1.3-2.7-1.9-4c-0.6-1.3-1.3-2.7-2-4c0.8,1.5,1.3,3.1,2,4.6C278.7,99.7,282.2,109.3,284.5,119.3z"/>
							<path fill="#F2F2F2" d="M165.7,13.5c1.4,0.2,2.8,0.3,4.2,0.5l4.1,0.7l2.1,0.4l2,0.5l4.1,0.9c5.4,1.4,10.8,3,16,5
								c3.1,1.1,6,2.4,9,3.7c1.5,0.7,2.9,1.4,4.4,2.1c0.7,0.4,1.5,0.7,2.2,1.1l2.1,1.2c1.4,0.8,2.9,1.5,4.2,2.4l4.1,2.5
								c1.4,0.9,2.7,1.8,4,2.7l2,1.4l1.9,1.5c8,5.9,15.4,12.7,21.9,20.2c6.5,7.5,12.3,15.7,17.1,24.5c-0.8-1.7-1.6-3.5-2.5-5.2
								c-3.8-6.4-8.1-12.7-13-18.6c-4.9-5.9-10.4-11.5-16.4-16.8c-7-5.9-14.2-10.7-21.4-14.8c-7.3-4-14.6-7.3-22.2-9.9
								c-7.6-2.6-15.3-4.5-23.4-5.8c-8.1-1.3-16.5-2-25.4-1.8c-7.5,0.2-16.5,1.1-25.6,3.2c-9.1,2-18.4,5.3-26.5,9.4
								c5.6-2.4,11.2-4.5,17.1-6.1c2.9-0.9,5.9-1.5,8.8-2.2c1.5-0.4,3-0.6,4.5-0.9c1.5-0.3,3-0.6,4.5-0.8c12-1.7,24.2-2.1,36.3-0.6
								C165.8,13.7,165.7,13.6,165.7,13.5z"/>
							<path fill="#F2F2F2" d="M31,93c7.8-17.1,19.2-32.6,33.4-45.3c14.2-12.6,31.3-22.2,49.9-27.7c-18.5,4.4-36,12.7-51.4,24.5
								c-1.8,1.5-3.5,3.1-5.2,4.6c-1.7,1.6-3.3,3.2-4.9,4.9c-1.1,1.5-2.1,3-3.2,4.4c-1.1,1.4-2,2.7-2.9,3.7
								c-1.7,1.8-3.1,3.6-4.6,5.5c-1.5,1.8-2.8,3.7-4.2,5.5c-10.6,16.5-16.6,35.2-18,53.3l0.4-2.2c0.2-0.7,0.3-1.4,0.5-2.2l1-4.3
								l1.2-4.3l0.6-2.1l0.7-2.1l1.4-4.2l1.6-4.1c0.5-1.4,1.1-2.7,1.7-4C29.7,95.6,30.3,94.3,31,93z"/>
							<path fill="#F2F2F2" d="M68.6,40.1c-1,0.7-2,1.4-3,2.1c-1,0.7-2,1.5-3.1,2.3c-2,1.6-4.1,3.3-6.1,5c-0.4,0.5-0.8,1-1.3,1.5
								l1.9-1.7c0.6-0.6,1.3-1.1,1.9-1.6c1.3-1,2.6-2.1,3.9-3.1c0.9-0.8,1.9-1.5,2.9-2.3C66.7,41.5,67.6,40.8,68.6,40.1z"/>
							<path fill="#F2F2F2" d="M17.7,144.3c0.1-1.5,0.2-3,0.3-4.5c0.1-1.5,0.2-3,0.4-4.5c0.2-1.5,0.4-3,0.6-4.5
								c0.2-1.5,0.5-3,0.8-4.4c1.3-18,7.4-36.7,18-53.3c-4.5,6.3-8.3,12.7-11.6,19.7c-3.3,6.9-6.1,14.4-8.3,22.9
								c-0.9,4.8-0.9,8.3-0.8,11.6c0,1.7,0.1,3.3,0.1,5c0,1.7-0.1,3.6-0.3,5.7c-1.7,14.7-1.1,31.9,3.2,48.5
								c2.2,8.3,5.3,16.3,9.1,23.8c3.9,7.4,8.5,14.2,13.6,19.9c6.6,8.4,14.8,16.5,24,23.7c1.2,0.9,2.4,1.7,3.5,2.6l1.8,1.3l1.8,1.2
								c1.2,0.8,2.5,1.6,3.7,2.4l3.8,2.2c0.6,0.4,1.3,0.8,1.9,1.1l2,1c1.3,0.7,2.6,1.4,3.9,2c2.7,1.2,5.3,2.5,8.1,3.6
								c5.4,2.3,11,4,16.4,5.5c1.4,0.3,2.8,0.6,4.1,1c0.7,0.2,1.4,0.3,2,0.5c0.7,0.1,1.4,0.2,2,0.4c1.4,0.2,2.7,0.5,4.1,0.7
								c1.4,0.2,2.7,0.3,4,0.5c10.7,1.3,20.7,1.1,29.4-0.1c-21.5,1.6-42.2-1.9-60.4-9.4c-9.1-3.7-17.6-8.4-25.3-13.8
								c-7.8-5.4-14.7-11.5-20.9-18.1c-12.4-13.3-21.7-28.6-27.5-44.7C19.7,177.6,17.2,160.8,17.7,144.3z"/>
							<path fill="#F2F2F2" d="M55.2,51c-0.8,1-1.6,2-2.4,3.1c1.6-1.6,3.3-3.3,4.9-4.9c1.7-1.5,3.4-3.1,5.2-4.6
								c-1.3,1-2.6,2.1-3.9,3.1c-0.6,0.5-1.3,1-1.9,1.6L55.2,51z"/>
							<path fill="#F2F2F2" d="M287.2,156.4c-0.2,6.3-1.1,12.5-2.2,18.7c1.9-9.2,2.8-18.5,2.7-27.8
								C287.5,150.3,287.5,153.4,287.2,156.4z"/>
							<path fill="#F2F2F2" d="M144.2,14.9l3.6-0.2c-0.7,0-1.4,0-2.1,0c-1.1,0-2.2,0-3.2,0.1C143.1,14.9,143.6,14.9,144.2,14.9z"/>
							<path fill="#F2F2F2" d="M191.8,24.2c-8.4-3.1-16.6-5.2-24.5-6.7c-7.9-1.5-15.6-2.3-23.1-2.6c-10.2,0.6-20.2,2.2-29.9,5.1
								C139.6,14.1,166.6,15.2,191.8,24.2z"/>
							<path fill="#F2F2F2" d="M142.5,14.8c1.1,0,2.2,0,3.2-0.1c-10.1,0-20.3,1.1-30.3,3.5c-10,2.4-19.7,6-28.8,10.6
								c-0.6,0.4-1.3,0.8-1.9,1.2c-1.2,0.7-2.4,1.5-3.7,2.3c-1.3,0.8-2.6,1.5-4,2.4c-1.4,0.8-2.7,1.7-4.2,2.6
								c-1.4,0.9-2.8,1.9-4.3,2.8c-1,0.7-2,1.5-2.9,2.2c-1,0.8-1.9,1.5-2.9,2.3c15.4-11.8,32.9-20.1,51.4-24.5
								c9.7-2.9,19.7-4.6,29.9-5.1C143.6,14.9,143.1,14.9,142.5,14.8z"/>
							<path fill="#F2F2F2" d="M180.3,19.4c-1.6-0.5-3.1-1-4.5-1.4c-8.5-2-17.3-3.1-26.4-3.2c-0.5,0-1.1,0-1.6,0
								C158.9,14.9,169.9,16.6,180.3,19.4z"/>
							<path fill="#F2F2F2" d="M149.4,14.7c-1.2,0-2.4,0-3.7,0.1c0.7,0,1.4,0,2.1,0C148.3,14.7,148.9,14.7,149.4,14.7z"/>
							<path fill="#F2F2F2" d="M276.6,192.6c-0.6,1.2-1.2,2.4-1.7,3.5c2.8-7,5.1-14.2,6.6-21.6c1.5-7.7,2.3-15.5,2.5-23.4
								c0.2-7.9-0.3-15.7-1.6-23.5c-2.4-15.6-7.6-30.8-15.4-44.7C259.4,69,249,56.5,236.8,46.2c-12.2-10.4-26.4-18.6-41.7-24
								c7.1,3,13.6,6.6,20,10.7c6.4,4.1,12.6,8.8,19,14.2l-1.6-1.3l-1.7-1.2c-1.1-0.8-2.2-1.7-3.3-2.5c-1.1-0.8-2.3-1.6-3.4-2.4
								l-1.7-1.2l-1.7-1.1c-1.2-0.7-2.3-1.5-3.5-2.2c-1.2-0.7-2.4-1.4-3.5-2.1c-2.3-1.4-4.8-2.6-7.2-3.9
								c-9.7-4.9-19.9-8.7-30.7-11.3c1.4,0.5,2.9,0.9,4.5,1.4c1.3,0.3,2.7,0.7,4,1.2l3.9,1.2l3.9,1.4l1.9,0.7l1.9,0.8
								c1.3,0.5,2.5,1.1,3.8,1.6c1.2,0.5,2.5,1.2,3.7,1.7c2.5,1.1,4.8,2.5,7.2,3.7c9.3,5,18.2,11.3,25.3,17.7
								c7.1,6.3,12.4,12.7,15.4,17.1c-10.7-13.5-24.4-25.7-40.7-34.8c-1.3-0.7-2.7-1.4-4-2.1c-1.3-0.7-2.7-1.3-4-1.9
								c-2.6-1.3-5.3-2.3-7.9-3.4c-1.3-0.5-2.6-1-3.8-1.4c-1.3-0.4-2.5-1-3.7-1.3c-1.2-0.4-2.4-0.8-3.5-1.2
								c-0.6-0.2-1.1-0.4-1.7-0.6c-0.6-0.2-1.1-0.3-1.6-0.5c-10.5-2.8-21.4-4.5-32.5-4.6l-3.6,0.2c7.5,0.3,15.2,1.1,23.1,2.6
								c7.9,1.5,16.1,3.6,24.5,6.7c-25.2-8.9-52.2-10.1-77.5-4.1c-18.5,5.5-35.6,15.1-49.9,27.7C50.2,60.3,38.8,75.9,31,93
								c6.4-13,14.8-24.8,24.9-35c5-5.1,10.5-9.7,16.2-14c1.5-1,2.9-2.1,4.4-3.1L81,38l4.6-2.7c1.5-0.9,3.2-1.7,4.7-2.5
								c6.4-3.2,13-5.9,19.9-8.1c6.9-2.1,13.9-3.7,21.1-4.7c1.8-0.2,3.6-0.5,5.4-0.7c1.8-0.2,3.6-0.3,5.4-0.5
								c1.8-0.1,3.6-0.1,5.5-0.2l1.4,0l1.4,0l2.8,0c7.3,0.2,14.7,0.9,22,2.3c6,1.4,12.2,3.1,18.3,5.2c6.1,2.2,12.2,4.7,18.2,7.7
								c8.3,4,15.8,9.5,22.6,15.7c6.8,6.2,13,13,18.8,20c11.4,13.9,20,30.7,24.4,48.7c4.5,18,5,37.3,1.2,55.7
								c-3.8,18.4-11.8,35.9-23.1,50.8c-11.3,14.8-25.9,27-42,35.3c-5.4,2.8-11.4,5.9-17.9,8.9c-6.5,3-13.6,5.7-21,7.8
								c-2,0.6-3.7,1.1-5.2,1.6c-1.5,0.5-2.8,1-3.9,1.4c25.5-2.7,49.2-12.1,69-27C253.8,236.9,268.5,216,276.6,192.6z"/>
							<path fill="#F2F2F2" d="M276.7,198.8c-0.6,1.4-1.2,2.7-1.8,4.1l-0.9,2c-0.3,0.7-0.7,1.3-1,2c-0.7,1.3-1.3,2.6-2,3.9
								c-0.7,1.3-1.5,2.5-2.2,3.8l-1.1,1.9l-1.2,1.8c-0.8,1.2-1.6,2.4-2.4,3.6l-2.5,3.5l-1.3,1.7l-1.3,1.7l-2.7,3.4l-2.8,3.2
								L252,237l-1.5,1.5l-3,3.1l-3.1,2.9l-1.6,1.4c-0.5,0.5-1.1,0.9-1.6,1.4L238,250c-1.1,0.9-2.2,1.7-3.4,2.6
								c-10.3,8.5-21.8,15.4-34.2,20.6c-1.5,0.7-3.1,1.2-4.7,1.8c-1.6,0.6-3.1,1.2-4.7,1.7c-1.6,0.5-3.2,1.1-4.8,1.5l-4.9,1.3
								c-1.6,0.5-3.3,0.8-4.9,1.1c-1.6,0.4-3.3,0.7-4.9,1l-5,0.8l-5,0.6c0.4,0.7,1.9,1.1,4.4,1.2c4.6,1,13-0.4,22-3.5
								c9.1-3.1,18.5-8,26.5-12.3c8.7-4.7,17-10.3,24.7-16.7c7.6-6.5,14.6-13.8,20.7-21.9c12.3-16,20.9-35,25-54.8
								c1.1-6.2,1.9-12.4,2.2-18.7c-0.3,3.7-0.8,7.3-1.4,10.9l-1,5.4c-0.3,1.8-0.8,3.6-1.2,5.4C281.7,185.1,279.5,192.1,276.7,198.8
								z"/>
							<path fill="#F2F2F2" d="M165.7,279.7c-3.4,1.3-4.7,2.6-4.1,3.5l5-0.6l5-0.8c1.7-0.2,3.3-0.6,4.9-1c1.6-0.4,3.3-0.7,4.9-1.1
								l4.9-1.3c1.6-0.5,3.2-1,4.8-1.5c1.6-0.5,3.2-1.1,4.7-1.7c1.6-0.6,3.2-1.1,4.7-1.8c12.3-5.2,23.9-12.1,34.2-20.6
								C214.9,267.6,191.2,277,165.7,279.7z"/>
							<path fill="#E3E3E3" d="M285.1,125.4c0-0.1,0-0.1,0-0.2c0-0.2-0.1-0.4-0.1-0.6C285,124.8,285.1,125.1,285.1,125.4z"/>
							<path fill="#E3E3E3" d="M198.2,21.5c3.1,1.1,6,2.4,9,3.7c1.5,0.7,2.9,1.4,4.4,2.1c0.7,0.4,1.5,0.7,2.2,1.1l2.1,1.2
								c1.4,0.8,2.9,1.5,4.2,2.4l4.1,2.5c1.4,0.9,2.7,1.8,4,2.7l2,1.4l1.9,1.5l-1.9-1.5l-2-1.4c-1.3-0.9-2.7-1.8-4-2.7l-4.1-2.5
								c-1.4-0.9-2.8-1.6-4.2-2.4l-2.1-1.2c-0.7-0.4-1.4-0.7-2.2-1.1c-1.5-0.7-2.9-1.4-4.4-2.1C204.2,24,201.3,22.6,198.2,21.5z"/>
							<path fill="#E3E3E3" d="M287.6,149.1l0-2.2c0-0.7,0-1.4-0.1-2.2c-0.1-1.4-0.1-2.9-0.2-4.3c-0.1-1.4-0.2-2.9-0.4-4.3
								c-0.2-1.4-0.2-2.9-0.4-4.3c-0.1-0.8-0.2-1.5-0.3-2.3c-0.1-0.5-0.3-0.9-0.4-1.4c0.2,2.1,0.2,2.1,0.5,4.3
								c-0.5-2.5-0.8-4.9-1.2-7.1c1.9,10.2,2.5,20.7,2,31.1C287.4,153.9,287.5,151.5,287.6,149.1z"/>
							<path fill="#E3E3E3" d="M98.3,22.8c-0.4,0.2-0.8,0.4-1.2,0.5c0.4-0.2,0.9-0.3,1.3-0.5C98.4,22.8,98.3,22.8,98.3,22.8z"/>
							<path fill="#E3E3E3" d="M105.8,19.7c-0.3,0.1-0.6,0.2-0.8,0.3c0.1,0.1,0.3,0.1,0.6,0.2c1.5-0.5,3.1-1.1,4.6-1.5
								c-0.7,0.2-1.4,0.3-2.2,0.5C107.3,19.4,106.6,19.5,105.8,19.7z"/>
							<path fill="#E3E3E3" d="M274.9,196.1c0.6-1.1,1.1-2.3,1.7-3.5c2-5.9,3.7-12,4.9-18.1C280,181.8,277.7,189.1,274.9,196.1z"/>
							<path opacity="0.9" fill="#E3E3E3" d="M165.7,13.5c1.4,0.2,2.8,0.3,4.2,0.5l4.1,0.7l2.1,0.4l2,0.5l4.1,0.9
								c5.4,1.4,10.8,3,16,5c3.1,1.1,6,2.4,9,3.7c1.5,0.7,2.9,1.4,4.4,2.1c0.7,0.4,1.5,0.7,2.2,1.1l2.1,1.2c1.4,0.8,2.9,1.5,4.2,2.4
								l4.1,2.5c1.4,0.9,2.7,1.8,4,2.7l2,1.4l1.9,1.5c8,5.9,15.4,12.7,21.9,20.2c6.5,7.5,12.3,15.7,17.1,24.5
								c-0.4-0.8-0.7-1.6-1.1-2.3c-0.7-1.3-1.6-2.5-2.3-3.7c-0.8-1.2-1.5-2.5-2.4-3.8c0,0,0.4,0.5,0.8,1c0.4,0.5,0.8,1.1,0.8,1.1
								c-0.3-0.6-0.8-1.4-1.3-2.2c-4.4-6.9-9.5-13.6-15.3-19.9c-1.6-1.6-3.2-3.1-4.6-4.6c-1.4-1.4-2.7-2.6-3.8-3.8
								c-0.5-0.4-0.9-0.9-1.4-1.3c-13.6-11.7-27.7-19.5-42.4-24.9c-0.1,0.1-0.3,0.2-0.6,0.2c-1.7-0.7-3.5-1.4-5.2-2
								c-1.7-0.6-3.5-1.3-5.2-1.8c-8.5-2.3-17.3-3.9-26.6-4.7c-1.3,0.2,3.5,1,1,1c-0.3,0-0.6,0-0.9,0c1.7,0.1,3.4,0.3,5.1,0.5
								C165.8,13.7,165.7,13.6,165.7,13.5z"/>
							<path fill="#E3E3E3" d="M274.2,90.5c-0.5-1.2-1-2.3-1.5-3.5c-0.3-0.6-0.6-1.1-0.9-1.7c-0.6-1-1.1-1.9-1.7-2.9
								c0.4,0.8,0.7,1.5,1.1,2.3l1.5,2.8L274.2,90.5z"/>
							<path fill="#E3E3E3" d="M105.9,20.9l2.4-0.8c0.8-0.2,1.6-0.4,2.5-0.7c1.6-0.4,3.3-0.9,4.9-1.3l5-1.1c1.6-0.4,3.3-0.6,5-0.8
								l2.5-0.4c0.8-0.1,1.7-0.2,2.5-0.3c1.7-0.2,3.3-0.4,5-0.5c3.4-0.2,6.7-0.4,10.1-0.3c1.2,0,2.4-0.1,3.7-0.1
								c2.1,0,4.2,0,6.3,0.1c2.4,0.1,4.7,0.3,7.1,0.4c2.3,0.3,4.7,0.5,7,0.8c-2.2-0.8-3.6-1.5-4-2.2c-1.7-0.2-3.4-0.4-5.1-0.5
								c-1.7-0.1-3.1-0.2-4.3-0.3c-7.2-0.3-14.5,0-21.7,0.7c-7.2,0.8-14.3,2.2-21.3,4.1c-1,0.4-2.1,0.7-3.3,0.9
								c-1.5,0.4-3.1,0.9-4.6,1.5C106.2,20.3,106.9,20.4,105.9,20.9z"/>
							<path fill="#E3E3E3" d="M22.3,182.1c0-0.2-0.1-0.4-0.1-0.5c-0.1-0.2-0.1-0.4-0.2-0.6C22.1,181.3,22.2,181.7,22.3,182.1z"/>
							<path opacity="0.9" fill="#E7E7E7" d="M30.6,93.9c7.8-17.4,19.2-33,33.5-45.8c14.3-12.8,31.5-22.4,50.2-28l-5.2,1.3l-5.1,1.6
								c-0.9,0.2-1.7,0.5-2.5,0.9l-2.5,0.9l-2.5,0.9l-2.5,1c-6.6,2.7-13.1,6-19.2,9.8c-0.9,0.6-1.8,1.2-2.7,1.8
								c0.4-0.3,0.8-0.6,1.1-0.9c-1.1,0.8-2.2,1.5-3.4,2.2c-0.3,0.5-0.3,0.8,0,1c-1.7,0.9-4.3,3-6.4,4.6c-2.1,1.7-3.7,2.9-3.4,2.1
								c0-0.1,0.1-0.2,0.3-0.4c-1,0.9-2,1.8-3,2.7l-2.8,2.8c-1.2,1.5-2.3,3.1-3.4,4.5c-1.1,1.4-2.2,2.8-3.1,3.9
								c-0.4,0.4-0.7,0.8-1,1.2c-0.6,0.7-1.2,1.4-1.8,2.1c-0.6,0.7-1.3,1.5-2,2.3c0,0,0,0,0,0c-0.1,0.9,1.2-0.2,2.4-1.2
								c1.2-1,2.2-1.9,1.4-0.8c-1.8,2.4-3.2,4.5-4.4,6c-1.2,1.6-2.1,2.7-2.9,3.5c-1.6,1.5-2.4,1.7-2.7,0.8
								c-9.9,16.2-15.6,34.3-16.9,51.7C21.9,115.2,25.7,104.2,30.6,93.9z"/>
							<path opacity="0.9" fill="#E6E6E6" d="M22.2,181.6c0,0.2,0.1,0.3,0.1,0.5c-0.1-0.4-0.2-0.8-0.3-1.1c-0.9-3.1-1.5-6.3-2.2-9.5
								c-0.3-1.6-0.5-3.2-0.8-4.8l-0.4-2.4l-0.2-2.4c-0.8-6.4-0.8-12.9-0.6-19.3c0.2-2.7,0.4-5.4,0.8-8l0.5-4l0.7-3.9
								c1.3-17.5,7-35.5,16.9-51.7c0,0,0-0.1,0-0.1c-4,5.8-7.4,11.7-10.5,18.2c-3.1,6.4-5.6,13.4-7.7,21.1c-1.1,4.7-2,10.5-2.6,16.2
								c-0.5,5.7-0.9,11.3-1,15.6c-0.5,7.5-0.1,14.5,0.8,21.1c0.2,1.6,0.4,3.3,0.7,4.9c0.3,1.6,0.6,3.2,1,4.8
								c0.3,1.6,0.7,3.1,1.1,4.7c0.4,1.5,0.8,3.1,1.3,4.6c1.9,6.1,4.4,12,7.4,18c3.1,5.9,6.8,11.9,11.4,18c0.8,1.2,1.6,2.4,2.4,3.6
								c0.8,1.2,1.7,2.3,2.5,3.4c1.6,2.3,3.5,4.4,5.2,6.6c3.6,4.2,7.4,8.2,11.4,11.8c4,3.7,8.2,7,12.5,10.1c1.1,0.8,2.2,1.5,3.3,2.2
								c1.1,0.7,2.2,1.5,3.3,2.1c2.3,1.3,4.5,2.7,6.8,3.9c18.4,9.9,38.8,14.9,59.4,14.8c-6.4-0.1-13.1-0.9-19.7-2.1
								c-6.7-1.2-13.4-3.1-20-5.4c-1.6-0.6-3.3-1.2-5-1.9c-1.6-0.7-3.3-1.4-4.9-2.1c-1.6-0.8-3.2-1.6-4.8-2.3
								c-1.6-0.8-3.2-1.7-4.8-2.6c-6.3-3.5-12.3-7.6-18-12.2c-11.4-9.1-21.2-20.2-29-32.2C31.4,207.5,25.7,194.5,22.2,181.6z"/>
							<path fill="#E3E3E3" d="M60.8,46.3c-1.5,1.2-3,2.4-4.4,3.7c-0.7,0.8-1.3,1.7-2,2.5l2.8-2.8c1-0.9,2-1.8,3-2.7
								C60.4,46.7,60.6,46.5,60.8,46.3z"/>
							<path fill="#E3E3E3" d="M148.3,11.8c-1.6,0.1-3.3,0.1-5.1,0.2c-1.1,0.2-3.2,0.3-5,0.4c-1.1,0.1-2.1,0.2-3.2,0.3
								c-1.1,0.2-2.2,0.3-3.3,0.5c-1.1,0.2-2.2,0.3-3.4,0.5c-1.1,0.2-2.3,0.4-3.4,0.7c-0.1,0.1-0.1,0.1-0.2,0.2c0,0-0.5,0-1.3,0.1
								c-2.5,0.4-4.9,1.2-7.4,1.8c-0.3,0.2-0.5,0.4-0.7,0.6c-0.6,0.3-1.3,0.5-1.9,0.8c7-1.9,14.1-3.3,21.3-4.1
								c7.2-0.7,14.5-1,21.7-0.7c-1.7-0.2-3-0.3-4.3-0.5C151,12.3,149.8,12,148.3,11.8z"/>
							<path fill="#E3E3E3" d="M101.4,22.4c-1.5,0.4-2.5,0.5-3,0.4c-0.4,0.2-0.8,0.3-1.3,0.5c-1.5,0.7-3,1.5-4.4,2.2
								c-1.4,0.8-2.9,1.5-4.2,2.3l1.6-0.8l1.6-0.7l3.2-1.4C97,24.1,99.2,23.3,101.4,22.4z"/>
							<path fill="#E3E3E3" d="M62.8,44.2c-1.7,1.3-3.3,2.7-5.1,4.1c-0.5,0.5-0.9,1-1.4,1.6c1.4-1.3,2.9-2.4,4.4-3.7
								C61.3,45.7,62,44.9,62.8,44.2z"/>
							<path fill="#E3E3E3" d="M165.7,13.5c0,0.1,0.1,0.2,0.1,0.3c1.4,0.2,2.8,0.3,4.1,0.5l4.1,0.7l2.1,0.3l2,0.4l4.1,0.9
								c5.4,1.4,10.8,2.9,16,4.9c-5.2-2-10.6-3.6-16-5l-4.1-0.9l-2-0.5l-2.1-0.4l-4.1-0.7C168.5,13.8,167.1,13.7,165.7,13.5z"/>
							<path opacity="0.9" fill="#E3E3E3" d="M281.6,174.5c-1.2,6.2-2.9,12.2-4.9,18.1c4.4-9.8,7.4-21.4,8.7-33.1
								c1.2-11.8,0.9-23.5-0.2-34c-0.4-1.6-0.9-3.3-1.4-5.1c0.5,1.2,0.8,2.6,1.2,4.2c-0.1-0.3-0.1-0.6-0.2-0.9
								c-1.8-9.3-4.6-18.4-8.3-27.1C285.5,121.3,287.2,148.6,281.6,174.5z"/>
							<path opacity="0.9" fill="#F0F0F0" d="M276.6,192.6c-0.6,1.2-1.2,2.4-1.7,3.5c2.8-7,5.1-14.2,6.6-21.6
								c1.5-7.7,2.3-15.5,2.5-23.4c0.2-7.9-0.3-15.7-1.6-23.5c-2.4-15.6-7.6-30.8-15.4-44.7C259.4,69,249,56.5,236.8,46.2
								c-12.2-10.4-26.4-18.6-41.7-24c7.1,3,13.6,6.6,20,10.7c6.4,4.1,12.6,8.8,19,14.2l-1.6-1.3l-1.7-1.2c-1.1-0.8-2.2-1.7-3.3-2.5
								c-1.1-0.8-2.3-1.6-3.4-2.4l-1.7-1.2l-1.7-1.1c-1.2-0.7-2.3-1.5-3.5-2.2c-1.2-0.7-2.4-1.4-3.5-2.1c-2.3-1.4-4.8-2.6-7.2-3.9
								c-9.7-4.9-19.9-8.7-30.7-11.3c1.4,0.5,2.9,0.9,4.5,1.4c1.3,0.3,2.7,0.7,4,1.2l3.9,1.2l3.9,1.4l1.9,0.7l1.9,0.8
								c1.3,0.5,2.5,1.1,3.8,1.6c1.2,0.5,2.5,1.2,3.7,1.7c2.5,1.1,4.8,2.5,7.2,3.7c7.7,4.1,15.2,9.1,21.5,14.4
								c6.4,5.2,11.6,10.7,15.3,15.2c2.2,2.5,4.3,5.1,6.4,7.8c1,1.4,2,2.7,3,4.1c1,1.3,1.9,2.8,2.8,4.2c3.7,5.7,7.1,11.7,10.2,18.2
								c0.6,1.3,1.3,2.8,2,4.3c0.8,1.6,1.4,3.3,2,5.1c1.2,2.8,2.1,5.9,3.1,9.1c0.7,1.9,1.4,4.4,2,6.9c0.5,2.5,1,5,1.3,6.7
								c1.6,7.6,1.8,15.4,1.4,22.8c0,0.7,0,1.5,0,2.2c0.1,1,0,2.8-0.2,4.8c-0.1,1-0.2,2.1-0.4,3.1c-0.2,1-0.4,2.1-0.6,3l-0.3,2.9
								l-0.5,2.9l-0.5,2.9c-0.2,1-0.4,1.9-0.6,2.9c-0.2,0.9-0.4,1.7-0.6,2.5c-0.3,1.7-0.9,3.3-1.3,5l-0.7,2.5l-0.8,2.5
								c-0.2,1.3-0.7,2.7-1.4,4.2c-5.4,15-13.9,28.9-24.4,40.7c-10.6,11.8-23.3,21.4-37.1,28.4c-5.4,2.8-11.4,5.8-18,8.6
								c-6.6,2.9-13.7,5.5-21.1,7.5c-4.1,1-7.1,2.1-9.3,2.9c26.2-2.4,50.6-11.9,70.9-27.2C253.8,236.9,268.5,216,276.6,192.6z"/>
							<path fill="#E3E3E3" d="M220.4,37.8l-0.5,0l2,1.2c0.6,0.4,1.3,0.9,1.9,1.3c1.3,0.9,2.5,1.7,3.7,2.6c-1.1-0.9-2.3-1.7-3.5-2.6
								l-1.8-1.3L220.4,37.8z"/>
							<path fill="#E3E3E3" d="M276.5,96.5c3.7,8.7,6.5,17.8,8.3,27.1c-0.7-4.1-1.6-8.4-2.4-12.2c-2.1-7.2-4.9-14.2-8.1-20.9
								c0.4,1,0.8,2,1.2,3C275.8,94.5,276.2,95.5,276.5,96.5z"/>
							<path fill="#EAEAEA" d="M180.3,19.4c-10.5-2.8-21.4-4.5-32.5-4.6l-3.6,0.2c7.5,0.3,15.2,1.1,23.1,2.6
								c7.9,1.5,16.1,3.6,24.5,6.7c-25.2-8.9-52.2-10.1-77.5-4.1c-18.7,5.6-35.9,15.2-50.2,28C49.8,60.8,38.3,76.5,30.6,93.9
								c14.3-29.7,39.4-53.2,69.6-65.4c2-1,3.4-2,3.8-2.6c14.1-4.1,28.9-7.1,44.4-7.5c15.3-0.4,31.2,1.8,45.6,7.4
								c0.5,0.3,0.1,0.2-0.6,0c-0.7-0.2-1.6-0.5-2.2-0.6c0.9,0.3,1.8,0.5,2.6,0.8l2.6,1c1.7,0.6,3.4,1.3,5.1,2
								c5.7,1.9,11.5,4.3,18,8.2c-1.4-1-2.9-1.9-4.4-2.8c-1.5-0.9-3-1.8-4.5-2.7c-1.3-0.7-2.7-1.4-4-2.1c-1.3-0.7-2.7-1.3-4-1.9
								c-2.6-1.3-5.3-2.3-7.9-3.4c-1.3-0.5-2.6-1-3.8-1.4c-1.3-0.4-2.5-1-3.7-1.3c-1.2-0.4-2.4-0.8-3.5-1.2
								c-0.6-0.2-1.1-0.4-1.7-0.6C181.4,19.7,180.9,19.5,180.3,19.4z"/>
							<path fill="#E3E3E3" d="M191.8,24.2c-8.4-3.1-16.6-5.2-24.5-6.7c-7.9-1.5-15.6-2.3-23.1-2.6c-10.2,0.6-20.2,2.2-29.9,5.1
								C139.6,14.1,166.6,15.2,191.8,24.2z"/>
							<path fill="#E3E3E3" d="M210.5,31.7c1.6,0.8,3,1.8,4.5,2.7c1.5,0.9,2.9,1.8,4.4,2.8c0.3,0.2,0.7,0.4,1,0.6l-0.1,0l1.8,1.2
								l1.8,1.3c1.2,0.9,2.4,1.7,3.5,2.6c7.4,5.4,14,11.6,19.9,18.4c-3.7-4.6-8.9-10-15.3-15.2C225.7,40.8,218.2,35.8,210.5,31.7z"
								/>
							<path fill="#E3E3E3" d="M287.6,149.1c-0.1,2.4-0.2,4.9-0.5,7.3L287,160c-0.1,1.2-0.2,2.4-0.3,3.6l-0.4,3.6l-0.5,3.5
								c0-0.1,0-0.1,0.1-0.2C287,163.3,287.6,156.2,287.6,149.1z"/>
							<path opacity="0.9" fill="#EDEDED" d="M234.7,252.6c-10.5,8.7-22.3,15.7-34.9,21c-6.3,2.6-12.9,4.7-19.5,6.4
								c-6.7,1.6-13.5,2.7-20.3,3.4c0.5,0.6,2,1.1,4.3,1.1c1,0.2,2.1,0.4,3.4,0.4c1.3,0,2.7-0.1,4.2-0.2c0.8-0.1,1.6-0.2,2.4-0.3
								c0.8-0.2,1.6-0.3,2.5-0.5c1.7-0.4,3.5-0.7,5.4-1.3c0-0.2-8.9,1.8-3.8,0.4c3-1.1,10.2-3.3,16.3-5.1c1.1-0.4,2.1-0.7,3-1
								c0.4-0.2,0.8-0.4,1.2-0.5c0.3-0.4,0.8-0.7,2.1-1c1-0.5,3.3-1.4,6.1-2.6c1.4-0.6,2.9-1.3,4.5-2.1c1.6-0.7,3.2-1.6,4.9-2.4
								c6.5-3.4,12.7-7.4,14.4-8.7c0,0-0.3,0.2-0.7,0.5c-0.5,0.3-1.1,0.7-1.9,1.2c-0.8,0.5-1.8,1.1-2.8,1.7c-0.5,0.3-1,0.6-1.6,0.9
								c-0.5,0.3-1.1,0.6-1.7,0.9c-2.2,1.2-4.4,2.4-6.2,3.2c-1.7,0.8-2.8,1.3-2.8,1.3c0.9-0.6,1.9-1.2,3-1.8
								c-0.1,0.1-0.1,0.2-0.2,0.3c1.1-0.6,2.2-1.2,3.3-1.9c1-1,1.2-1.7,3.4-3.1c-1.9,1-1.9,1-3.7,2.1c2.4-2,7.9-5.2,11.4-7.7
								c-0.2,0.5-1.2,1.5-2.4,2.3c-1.2,0.8-2.6,1.7-3.5,2.2l1.8-1.1c-0.9,0.6-2.3,1.5-3.3,2.3c-1,0.7-1.6,1.2-0.8,1
								c1.2-0.3,3.8-2.4,5.8-3.8c0.4-0.3,0.9-0.6,1.3-1c0.1-0.1,0.3-0.2,0.4-0.3c-0.1,0.1-0.2,0.2-0.4,0.3c-0.4,0.3-0.8,0.6-1.3,1
								c-0.7,0.5-1.2,1-1.1,1.1c1.8-1.1,3.5-2.4,5.2-3.7c0.2-0.2,0.5-0.5,0.8-0.8c-0.4,0.3-0.9,0.6-1.4,0.9l1.8-1.2l-0.3,0.3
								c0.5-0.3,0.9-0.6,1.3-0.9c0.4-0.3,0.7-0.6,1-0.9c0.6-0.6,1.2-1.1,1.7-1.7c1.1-1.1,2.1-2.2,3.6-3.7c-1.7,1.8,1,0-0.2,1.4
								c0.4-0.3,0.7-0.6,1.1-1c0.8-0.8,1.6-1.6,2.4-2.4c0.8-0.8,1.7-1.7,2.5-2.5c2-2.3,3.7-4.7,5.4-6.8c0.7,0.1-0.5,1.6-1.9,3.4
								c1.6-1.7,3.4-3.4,5-5.2c0.4-0.8,0.5-1.2,0.9-1.9c0.2-0.4,0.5-0.8,1-1.5c0.5-0.7,1.1-1.5,2-2.7c0,0.5,0.1,0.8,0,1.5
								c2.7-3.4,5.3-7,7.6-10.7c0.4-0.8,0.8-1.5,1.2-2.3c0-0.1,0.1-0.6,1.1-2.4c-0.3,0.8-0.8,1.6-1.1,2.4l0,0c1.1-1.6,2.1-3.3,3.1-5
								c3.6-6.5,6.7-13.2,9.2-20.1c-0.1,0.1-0.2,0.2-0.3,0.4c-0.1,0.2-0.2,0.5-0.3,0.7c0.1-0.3,0.2-0.5,0.3-0.7
								c0.7-1.5,0.9-2.7,1.2-3.9c0.3-1.2,0.6-2.4,1.3-4.1c0,0-0.2,0.5-0.3,1c-0.2,0.5-0.4,1-0.4,1c1-2.6,1.6-5,2.2-7.4
								c0.5-2.4,0.8-4.6,1.1-6.8c-1.9,8.6-4.5,17-7.8,25c-0.6,1.4-1.2,2.7-1.8,4.1l-0.9,2c-0.3,0.7-0.7,1.3-1,2
								c-0.7,1.3-1.3,2.6-2,3.9c-0.7,1.3-1.5,2.5-2.2,3.8l-1.1,1.9l-1.2,1.8c-0.8,1.2-1.6,2.4-2.4,3.6l-2.5,3.5l-1.3,1.7l-1.3,1.7
								l-2.7,3.4l-2.8,3.2L252,237l-1.5,1.5l-3,3.1l-3.1,2.9l-1.6,1.4c-0.5,0.5-1.1,0.9-1.6,1.4L238,250
								C236.9,250.9,235.8,251.8,234.7,252.6z"/>
							<path fill="#E3E3E3" d="M285.3,170c-0.1,0.8-0.1,1.5-0.2,3c0.2-0.8,0.4-1.6,0.7-2.3l0.5-3.5l0.4-3.6c0.1-1.2,0.3-2.4,0.3-3.6
								l0.2-3.6l-0.3,3.4c-0.1,1.1-0.3,2.3-0.5,3.4l-0.5,3.4C285.7,167.7,285.5,168.8,285.3,170z"/>
							<path fill="#E8E8E8" d="M285.1,125.3c0,0,0-0.1,0-0.2C285.1,125.2,285.1,125.3,285.1,125.3c0,0.1,0,0.2,0,0.3
								c0.2,0.7,0.2,1.4,0.3,2c-0.1-0.7-0.2-1.4-0.3-2c0,0,0-0.1,0-0.1c1.1,10.5,1.4,22.2,0.2,34c-1.3,11.7-4.3,23.4-8.7,33.1
								c-8.1,23.4-22.9,44.3-41.9,60c1.1-0.9,2.2-1.7,3.4-2.6l3.2-2.7c0.5-0.5,1.1-0.9,1.6-1.4l1.6-1.4l3.1-2.9l3-3.1l1.5-1.5
								l1.4-1.6l2.8-3.2l2.7-3.4l1.3-1.7l1.3-1.7l2.5-3.5c0.8-1.2,1.6-2.4,2.4-3.6l1.2-1.8l1.1-1.9c0.7-1.3,1.5-2.5,2.2-3.8
								c0.7-1.3,1.3-2.6,2-3.9c0.3-0.7,0.7-1.3,1-2l0.9-2c0.6-1.3,1.2-2.7,1.8-4.1c3.3-8,6-16.4,7.8-25c0.2-2.1,0.5-4.1,0.9-6.2
								c-0.1,1.1-0.1,1.7-0.2,2.3c0.2-1.1,0.5-2.2,0.6-3.4l0.5-3.4c0.1-1.1,0.4-2.3,0.5-3.4l0.3-3.4
								C287.6,146,287,135.5,285.1,125.3z"/>
							<path fill="#E6E6E6" d="M163.8,279.8c-3.4,1.3-4.6,2.6-3.9,3.5c6.9-0.7,13.6-1.8,20.3-3.4c6.7-1.7,13.2-3.8,19.5-6.4
								c12.6-5.2,24.5-12.3,34.9-21C214.4,268,190,277.4,163.8,279.8z"/>
							<path fill="#F5F5F5" d="M142.5,14.8c1.1,0,2.2,0,3.2-0.1c-3.3-0.1-6.7,0.2-10.1,0.3c-1.7,0.1-3.3,0.3-5,0.5
								c-0.8,0.1-1.7,0.2-2.5,0.3l-2.5,0.4c-1.7,0.3-3.3,0.5-5,0.8l-5,1.1c-1.7,0.4-3.3,0.9-4.9,1.3c-0.8,0.2-1.6,0.4-2.5,0.7
								l-2.4,0.8c-0.1,0.1-0.2,0.1-0.3,0.2c-1.7,0.6-3.1,1-4.2,1.3c-2.2,0.9-4.4,1.6-6.5,2.6l-3.2,1.4l-1.6,0.7l-1.6,0.8
								c-0.7,0.4-1.4,0.9-2.1,1.3c-0.8,0.5-1.6,0.9-2.5,1.4c-0.8,0.5-1.7,1-2.6,1.5c-1.1,0.7-2.2,1.3-3.3,2
								c-1.1,0.7-2.2,1.5-3.4,2.3c6.1-3.8,12.6-7.1,19.2-9.8l2.5-1l2.5-0.9l2.5-0.9c0.8-0.3,1.7-0.6,2.5-0.9l5.1-1.6l5.2-1.3
								c9.7-2.9,19.7-4.6,29.9-5.1C143.6,14.9,143.1,14.9,142.5,14.8z"/>
							<path fill="#E3E3E3" d="M149.4,14.7c-1.2,0-2.4,0-3.7,0.1c0.7,0,1.4,0,2.1,0C148.3,14.7,148.9,14.7,149.4,14.7z"/>
							<path fill="#E3E3E3" d="M234.2,47.2c-6.4-5.4-12.6-10.1-19-14.2c-6.4-4.1-12.9-7.7-20-10.7c-8.2-2.9-16.7-5-25.3-6.2
								c1.6,0.6,3.6,1.3,6,1.9c10.8,2.6,21,6.4,30.7,11.3c2.4,1.3,4.8,2.5,7.2,3.9c1.2,0.7,2.4,1.4,3.5,2.1c1.2,0.7,2.3,1.5,3.5,2.2
								l1.7,1.1l1.7,1.2c1.1,0.8,2.3,1.6,3.4,2.4c1.1,0.8,2.2,1.7,3.3,2.5l1.7,1.2L234.2,47.2z"/>
							<path fill="#E6E6E6" d="M177.2,16.3c1.5,0.3,2.9,0.6,4.4,0.9c1.5,0.3,2.9,0.7,4.4,1.1c3,0.7,5.8,1.8,8.8,2.7
								c5.8,2.1,11.6,4.6,17.1,7.5c11.1,5.9,21.4,13.5,30.3,22.1l1.7,1.6l1.6,1.7c1.1,1.1,2.2,2.2,3.2,3.4c2,2.3,4.1,4.6,5.9,7
								c2,2.3,3.7,4.8,5.5,7.2c0.9,1.2,1.7,2.5,2.5,3.7l1.2,1.8l1.1,1.9c0.8,1.3,1.5,2.5,2.3,3.8c0.7,1.3,1.4,2.5,2.1,3.8
								c0.3,0.6,0.7,1.3,1,1.9c0.3,0.6,0.6,1.3,1,1.9c0.6,1.3,1.3,2.5,1.9,3.8c2.3,5.1,4.5,10.1,6.3,15.1c-1.4-6.4-3.5-13.3-6.3-20
								c-4.7-9.7-10.7-18.8-17.6-27.1c-6.9-8.3-14.8-15.7-23.4-22.2l-1.9-1.5l-2-1.4c-1.3-0.9-2.7-1.8-4-2.7l-4.1-2.5
								c-1.4-0.9-2.8-1.6-4.2-2.4l-2.1-1.2c-0.7-0.4-1.4-0.7-2.2-1.1c-1.5-0.7-2.9-1.4-4.4-2.1c-3-1.3-5.9-2.6-9-3.7
								c-5.2-2-10.6-3.5-16-4.9l-4.1-0.9l-2-0.4l-2.1-0.3l-4.1-0.7c-1.4-0.2-2.8-0.3-4.1-0.5c0.4,0.7,1.8,1.4,4,2.2
								c8.6,1.2,17.1,3.3,25.3,6.2c-1.4-0.6-2.8-1.1-4.3-1.7c-0.7-0.3-1.4-0.6-2.2-0.8c-0.7-0.2-1.5-0.5-2.2-0.7
								c-1.5-0.5-3-1-4.5-1.4C180.4,17.2,178.8,16.8,177.2,16.3z"/>
							<path fill="#EFEFEF" d="M271.3,84.8c-4.8-8.8-10.5-17-17.1-24.5c-6.6-7.5-14-14.3-21.9-20.2c8.6,6.4,16.5,13.8,23.4,22.2
								c6.9,8.3,12.9,17.3,17.6,27.1C272.7,87.8,272,86.3,271.3,84.8z"/>
							<path fill="#E3E3E3" d="M282.4,111.4C282.4,111.4,282.3,111.4,282.4,111.4c-2.4-8.4-5.6-16.5-9.6-24.4c0.5,1.1,1,2.3,1.5,3.5
								C277.5,97.2,280.3,104.2,282.4,111.4z"/>
							<path fill="#F0F0F0" d="M210.5,31.7c-2.4-1.3-4.7-2.6-7.2-3.7c-1.2-0.6-2.4-1.2-3.7-1.7c-1.3-0.5-2.5-1.1-3.8-1.6l-1.9-0.8
								l-1.9-0.7l-3.9-1.4l-3.9-1.2c-1.3-0.4-2.6-0.8-4-1.2c0.5,0.2,1.1,0.3,1.6,0.5c0.5,0.2,1.1,0.4,1.7,0.6
								c1.1,0.4,2.3,0.8,3.5,1.2c1.2,0.4,2.4,0.9,3.7,1.3c1.2,0.5,2.5,0.9,3.8,1.4c2.5,1.1,5.2,2.1,7.9,3.4c1.3,0.6,2.7,1.2,4,1.9
								C207.9,30.3,209.2,31,210.5,31.7z"/>
							<path fill="#E3E3E3" d="M276.5,96.5c-0.4-1-0.7-2-1.1-3c-0.4-1-0.8-2-1.2-3l-1.4-2.9l-1.5-2.8c0.7,1.5,1.4,3,2,4.5l1.7,3.6
								C275.5,94.1,276,95.3,276.5,96.5z"/>
							<path fill="#E3E3E3" d="M74.9,36c-0.8,0.5-1.5,0.9-2.3,1.4c-0.8,0.5-1.5,1-2.3,1.5c-0.3,0.3-0.4,0.5-0.5,0.7
								c1.1-0.7,2.2-1.5,3.4-2.2C73.9,36.8,74.5,36.4,74.9,36z"/>
							<path fill="#E3E3E3" d="M144.2,14.9l3.6-0.2c-0.7,0-1.4,0-2.1,0c-1.1,0-2.2,0-3.2,0.1C143.1,14.9,143.6,14.9,144.2,14.9z"/>
							<path fill="#E3E3E3" d="M180.3,19.4c-1.6-0.5-3.1-1-4.5-1.4c-8.5-2-17.3-3.1-26.4-3.2c-0.5,0-1.1,0-1.6,0
								C158.9,14.9,169.9,16.6,180.3,19.4z"/>
							<path fill="#EFEFEF" d="M175.8,17.9c-2.4-0.7-4.4-1.3-6-1.9c-2.3-0.3-4.7-0.5-7-0.8c-2.4-0.1-4.7-0.3-7.1-0.4
								c-2.1,0-4.2,0-6.3-0.1C158.5,14.8,167.3,16,175.8,17.9z"/>
							<path fill="#E3E3E3" d="M279.6,109.3c-1.8-5-4-10-6.3-15.1c-0.6-1.3-1.3-2.5-1.9-3.8c-0.3-0.6-0.6-1.3-1-1.9
								c-0.3-0.6-0.7-1.3-1-1.9c-0.7-1.3-1.4-2.5-2.1-3.8c-0.8-1.2-1.5-2.5-2.3-3.8l-1.1-1.9l-1.2-1.8c-0.8-1.2-1.6-2.5-2.5-3.7
								c-1.8-2.4-3.5-4.9-5.5-7.2c-1.9-2.4-3.9-4.7-5.9-7c-1-1.2-2.1-2.2-3.2-3.4l-1.6-1.7l-1.7-1.6c-8.9-8.7-19.3-16.2-30.3-22.1
								c-5.5-3-11.3-5.4-17.1-7.5c-2.9-0.9-5.8-2-8.8-2.7c-1.5-0.4-2.9-0.8-4.4-1.1c-1.5-0.3-2.9-0.6-4.4-0.9
								c1.6,0.4,3.2,0.8,4.7,1.2c1.5,0.4,3,1,4.5,1.4c0.7,0.2,1.5,0.5,2.2,0.7c0.7,0.3,1.4,0.6,2.2,0.8c1.4,0.6,2.9,1.1,4.3,1.7
								c15.3,5.4,29.4,13.6,41.7,24C249,56.5,259.4,69,267.1,82.9c7.7,13.9,12.9,29.1,15.4,44.7c1.3,7.8,1.7,15.7,1.6,23.5
								c-0.2,7.9-1,15.7-2.5,23.4c5.7-25.9,3.9-53.2-5-77.9c-0.5-1.2-1-2.5-1.6-3.6l-1.7-3.6C276.1,96.1,278.2,102.9,279.6,109.3z"
								/>
						</g>
					</g>
				</g>
			</g>
		</g>
	</g>
</g>
</svg>
