<?xml version="1.0" encoding="utf-8"?>
<!-- Generator: Adobe Illustrator 18.0.0, SVG Export Plug-In . SVG Version: 6.00 Build 0)  -->
<!DOCTYPE svg PUBLIC "-//W3C//DTD SVG 1.1//EN" "http://www.w3.org/Graphics/SVG/1.1/DTD/svg11.dtd">
<svg version="1.1" id="Layer_1" xmlns="http://www.w3.org/2000/svg" xmlns:xlink="http://www.w3.org/1999/xlink" x="0px" y="0px"
	 viewBox="0 0 280 100" enable-background="new 0 0 280 100" xml:space="preserve">
<linearGradient id="SVGID_1_" gradientUnits="userSpaceOnUse" x1="114.6566" y1="14.2012" x2="114.6566" y2="43.6028">
	<stop  offset="0" style="stop-color:#DDDDE0"/>
	<stop  offset="1" style="stop-color:#FFFFFF"/>
</linearGradient>
<path fill="url(#SVGID_1_)" d="M114.598,43.504c-3.471,0-5.85-0.929-7.137-2.788c-1.287-1.859-1.931-4.83-1.931-8.912
	c0-1.378,0.052-2.567,0.156-3.568c0.104-1,0.338-2.047,0.702-3.14c0.363-1.092,0.87-1.976,1.521-2.651
	c0.649-0.676,1.547-1.235,2.691-1.678c1.144-0.441,2.509-0.662,4.095-0.662s2.944,0.221,4.075,0.662
	c1.132,0.442,2.015,1.002,2.652,1.678c0.637,0.676,1.137,1.559,1.502,2.651c0.363,1.093,0.598,2.14,0.701,3.14
	c0.104,1.001,0.156,2.19,0.156,3.568v0.624h-15.521c0.025,3.173,0.474,5.428,1.345,6.767c0.871,1.34,2.535,2.009,4.992,2.009
	c2.457,0,4.128-0.448,5.012-1.346c0.884-0.896,1.404-2.203,1.56-3.919l2.263,0.116c-0.104,1.118-0.286,2.074-0.546,2.867
	c-0.261,0.793-0.689,1.566-1.287,2.32C120.403,42.75,118.07,43.504,114.598,43.504z M114.657,22.405c-1.3,0-2.386,0.208-3.256,0.624
	c-0.872,0.416-1.528,1.027-1.97,1.833c-0.729,1.352-1.118,3.159-1.17,5.421h12.753c-0.053-2.34-0.43-4.173-1.131-5.499
	C119.05,23.198,117.309,22.405,114.657,22.405z"/>
<linearGradient id="SVGID_2_" gradientUnits="userSpaceOnUse" x1="142.9242" y1="14.2012" x2="142.9242" y2="43.6027">
	<stop  offset="0" style="stop-color:#DDDDE0"/>
	<stop  offset="1" style="stop-color:#FFFFFF"/>
</linearGradient>
<path fill="url(#SVGID_2_)" d="M139.219,42.958v-1.95h2.34V27.046c0-3.094-1.391-4.641-4.173-4.641
	c-2.496,0-4.758,0.935-6.786,2.808v15.795h2.34v1.95h-7.409v-1.95h2.34V22.6h-2.34V20.65h4.173l0.624,2.418
	c2.184-1.976,4.705-2.964,7.566-2.964c2.86,0,4.771,1.079,5.733,3.236c0.909-0.909,2.073-1.677,3.49-2.301
	c1.417-0.624,2.854-0.936,4.31-0.936c4.368,0,6.552,2.313,6.552,6.941v13.962h2.34v1.95h-7.409v-1.95h2.34V27.046
	c0-3.094-1.392-4.641-4.173-4.641c-2.523,0-4.823,0.962-6.903,2.886c0.078,0.546,0.117,1.131,0.117,1.755v13.962h2.34v1.95H139.219z
	"/>
<linearGradient id="SVGID_3_" gradientUnits="userSpaceOnUse" x1="171.1161" y1="14.2012" x2="171.1161" y2="43.6028">
	<stop  offset="0" style="stop-color:#DDDDE0"/>
	<stop  offset="1" style="stop-color:#FFFFFF"/>
</linearGradient>
<path fill="url(#SVGID_3_)" d="M161.054,15.658v-1.95h5.07v8.502c2.365-1.404,4.654-2.105,6.864-2.105
	c3.926,0,6.395,1.664,7.41,4.991c0.52,1.794,0.779,3.705,0.779,5.733c0,2.028-0.045,3.543-0.136,4.543
	c-0.092,1.002-0.307,2.048-0.644,3.14c-0.339,1.093-0.794,1.977-1.365,2.652c-1.326,1.56-3.283,2.34-5.869,2.34
	c-2.588,0-5.051-0.845-7.391-2.535l-0.546,1.989h-1.833v-27.3H161.054z M166.124,24.433V38.98c1.95,1.481,3.979,2.223,6.084,2.223
	c2.158,0,3.718-0.598,4.68-1.794c0.806-0.962,1.3-2.509,1.482-4.642c0.052-0.779,0.078-1.689,0.078-2.729
	c0-1.04-0.026-1.892-0.078-2.555c-0.053-0.663-0.144-1.378-0.273-2.145c-0.13-0.767-0.331-1.43-0.605-1.989
	c-0.272-0.559-0.617-1.072-1.033-1.541c-0.832-0.935-2.236-1.403-4.212-1.403C170.271,22.405,168.231,23.081,166.124,24.433z"/>
<linearGradient id="SVGID_4_" gradientUnits="userSpaceOnUse" x1="193.4706" y1="14.2012" x2="193.4706" y2="43.6028">
	<stop  offset="0" style="stop-color:#DDDDE0"/>
	<stop  offset="1" style="stop-color:#FFFFFF"/>
</linearGradient>
<path fill="url(#SVGID_4_)" d="M196.688,43.153c-0.949,0.233-2.021,0.351-3.217,0.351c-1.196,0-2.27-0.117-3.218-0.351
	c-0.949-0.234-1.755-0.54-2.418-0.917c-0.663-0.376-1.235-0.864-1.716-1.462c-0.481-0.599-0.858-1.209-1.132-1.833
	c-0.273-0.624-0.487-1.358-0.643-2.204c-0.156-0.845-0.261-1.638-0.312-2.379c-0.053-0.741-0.078-1.592-0.078-2.555
	c0-0.961,0.025-1.813,0.078-2.555c0.052-0.74,0.156-1.533,0.312-2.379c0.155-0.844,0.37-1.579,0.643-2.203
	c0.273-0.624,0.65-1.234,1.132-1.833c0.48-0.598,1.053-1.085,1.716-1.463c0.663-0.376,1.469-0.682,2.418-0.916
	c0.948-0.234,2.021-0.351,3.218-0.351c1.195,0,2.268,0.116,3.217,0.351c0.949,0.234,1.755,0.54,2.418,0.916
	c0.663,0.378,1.235,0.865,1.716,1.463c0.481,0.599,0.858,1.209,1.132,1.833c0.272,0.624,0.487,1.359,0.644,2.203
	c0.155,0.846,0.259,1.639,0.311,2.379c0.052,0.741,0.078,1.594,0.078,2.555c0,0.963-0.026,1.813-0.078,2.555
	c-0.053,0.741-0.156,1.534-0.311,2.379c-0.156,0.846-0.371,1.58-0.644,2.204c-0.273,0.624-0.65,1.234-1.132,1.833
	c-0.48,0.598-1.053,1.086-1.716,1.462C198.443,42.613,197.637,42.919,196.688,43.153z M190.292,40.638
	c0.87,0.377,1.931,0.566,3.179,0.566c1.247,0,2.307-0.188,3.178-0.566c0.871-0.377,1.534-0.832,1.989-1.365
	c0.455-0.532,0.812-1.261,1.072-2.184c0.26-0.923,0.416-1.755,0.469-2.496c0.052-0.741,0.077-1.671,0.077-2.789
	c0-1.117-0.025-2.047-0.077-2.788c-0.053-0.741-0.209-1.573-0.469-2.496c-0.26-0.923-0.617-1.65-1.072-2.184
	c-0.455-0.533-1.118-0.988-1.989-1.365c-0.871-0.377-1.931-0.565-3.178-0.565c-1.248,0-2.309,0.188-3.179,0.565
	c-0.872,0.377-1.534,0.832-1.989,1.365c-0.455,0.533-0.812,1.261-1.072,2.184c-0.261,0.923-0.416,1.755-0.468,2.496
	c-0.053,0.741-0.078,1.671-0.078,2.788c0,1.118,0.025,2.048,0.078,2.789c0.052,0.741,0.207,1.573,0.468,2.496
	c0.26,0.923,0.617,1.651,1.072,2.184C188.758,39.806,189.42,40.261,190.292,40.638z"/>
<linearGradient id="SVGID_5_" gradientUnits="userSpaceOnUse" x1="215.4539" y1="14.2012" x2="215.4539" y2="43.6028">
	<stop  offset="0" style="stop-color:#DDDDE0"/>
	<stop  offset="1" style="stop-color:#FFFFFF"/>
</linearGradient>
<path fill="url(#SVGID_5_)" d="M213.777,43.504c-1.456,0-2.71-0.221-3.763-0.663c-1.054-0.441-1.872-1-2.457-1.677
	c-0.585-0.676-1.047-1.56-1.385-2.652c-0.338-1.092-0.553-2.138-0.644-3.14c-0.092-1-0.137-2.19-0.137-3.568
	c0-1.378,0.045-2.567,0.137-3.568c0.091-1,0.311-2.047,0.663-3.14c0.351-1.092,0.825-1.976,1.424-2.651
	c0.598-0.676,1.436-1.235,2.515-1.678c1.079-0.441,2.509-0.662,4.29-0.662c1.781,0,3.789,0.468,6.025,1.403v-5.85h-2.34v-1.95h5.07
	v27.3h2.34v1.95h-4.173l-0.507-2.34C218.652,42.542,216.299,43.504,213.777,43.504z M208.122,31.979
	c0,2.978,0.415,5.259,1.248,6.845c0.831,1.586,2.411,2.379,4.738,2.379c2.326,0,4.439-0.871,6.337-2.613V23.732
	c-1.897-0.884-3.926-1.326-6.084-1.326c-2.521,0-4.212,0.896-5.069,2.69C208.512,26.708,208.122,29.003,208.122,31.979z"/>
<linearGradient id="SVGID_6_" gradientUnits="userSpaceOnUse" x1="231.7401" y1="14.2012" x2="231.7401" y2="43.6027">
	<stop  offset="0" style="stop-color:#DDDDE0"/>
	<stop  offset="1" style="stop-color:#FFFFFF"/>
</linearGradient>
<path fill="url(#SVGID_6_)" d="M228.035,22.6V20.65h5.069v20.357h2.34v1.95h-7.409v-1.95h2.34V22.6H228.035z M233.417,15.678
	c-0.053,0.247-0.215,0.487-0.488,0.722c-0.272,0.233-0.662,0.351-1.17,0.351c-0.507,0-0.891-0.117-1.15-0.351
	c-0.26-0.234-0.416-0.475-0.468-0.722c-0.053-0.247-0.078-0.585-0.078-1.015c0-0.429,0.025-0.767,0.078-1.014
	c0.052-0.247,0.208-0.487,0.468-0.722c0.26-0.233,0.702-0.351,1.326-0.351c0.624,0,1.04,0.182,1.248,0.546
	c0.208,0.364,0.312,0.819,0.312,1.365C233.495,15.034,233.469,15.431,233.417,15.678z"/>
<linearGradient id="SVGID_7_" gradientUnits="userSpaceOnUse" x1="246.1508" y1="14.2012" x2="246.1508" y2="43.6028">
	<stop  offset="0" style="stop-color:#DDDDE0"/>
	<stop  offset="1" style="stop-color:#FFFFFF"/>
</linearGradient>
<path fill="url(#SVGID_7_)" d="M246.092,43.504c-3.471,0-5.85-0.929-7.137-2.788c-1.287-1.859-1.931-4.83-1.931-8.912
	c0-1.378,0.052-2.567,0.156-3.568c0.104-1,0.338-2.047,0.702-3.14c0.363-1.092,0.87-1.976,1.521-2.651
	c0.649-0.676,1.547-1.235,2.691-1.678c1.144-0.441,2.509-0.662,4.095-0.662c1.586,0,2.944,0.221,4.075,0.662
	c1.132,0.442,2.015,1.002,2.652,1.678c0.637,0.676,1.137,1.559,1.502,2.651c0.363,1.093,0.598,2.14,0.701,3.14
	c0.105,1.001,0.156,2.19,0.156,3.568v0.624h-15.521c0.025,3.173,0.474,5.428,1.345,6.767c0.871,1.34,2.535,2.009,4.992,2.009
	s4.128-0.448,5.012-1.346c0.884-0.896,1.404-2.203,1.56-3.919l2.263,0.116c-0.104,1.118-0.286,2.074-0.546,2.867
	c-0.261,0.793-0.69,1.566-1.287,2.32C251.897,42.75,249.564,43.504,246.092,43.504z M246.151,22.405c-1.3,0-2.386,0.208-3.256,0.624
	c-0.872,0.416-1.528,1.027-1.97,1.833c-0.729,1.352-1.118,3.159-1.17,5.421h12.753c-0.053-2.34-0.43-4.173-1.131-5.499
	C250.544,23.198,248.803,22.405,246.151,22.405z"/>
<linearGradient id="SVGID_8_" gradientUnits="userSpaceOnUse" x1="267.6513" y1="14.2012" x2="267.6513" y2="43.6028">
	<stop  offset="0" style="stop-color:#DDDDE0"/>
	<stop  offset="1" style="stop-color:#FFFFFF"/>
</linearGradient>
<path fill="url(#SVGID_8_)" d="M265.974,43.504c-1.456,0-2.71-0.221-3.763-0.663c-1.054-0.441-1.872-1-2.457-1.677
	c-0.585-0.676-1.047-1.56-1.385-2.652c-0.338-1.092-0.553-2.138-0.643-3.14c-0.092-1-0.137-2.19-0.137-3.568
	c0-1.378,0.045-2.567,0.137-3.568c0.091-1,0.311-2.047,0.663-3.14c0.35-1.092,0.825-1.976,1.424-2.651
	c0.598-0.676,1.435-1.235,2.515-1.678c1.079-0.441,2.509-0.662,4.29-0.662c1.781,0,3.789,0.468,6.025,1.403v-5.85h-2.34v-1.95h5.07
	v27.3h2.34v1.95h-4.173l-0.507-2.34C270.849,42.542,268.496,43.504,265.974,43.504z M260.32,31.979c0,2.978,0.415,5.259,1.248,6.845
	c0.831,1.586,2.411,2.379,4.738,2.379c2.326,0,4.439-0.871,6.337-2.613V23.732c-1.897-0.884-3.926-1.326-6.084-1.326
	c-2.522,0-4.212,0.896-5.069,2.69C260.709,26.708,260.32,29.003,260.32,31.979z"/>
<linearGradient id="SVGID_9_" gradientUnits="userSpaceOnUse" x1="129.9022" y1="78.5347" x2="129.9022" y2="45.1744">
	<stop  offset="0" style="stop-color:#DDDDE0"/>
	<stop  offset="1" style="stop-color:#FFFFFF"/>
</linearGradient>
<path fill="url(#SVGID_9_)" d="M124.984,77.302v-2.588h3.106V56.182c0-4.107-1.847-6.16-5.539-6.16
	c-3.313,0-6.315,1.242-9.007,3.727v20.966h3.105v2.588h-9.835v-2.588h3.106V50.28h-3.106v-2.589h5.538l0.829,3.21
	c2.899-2.622,6.245-3.935,10.042-3.935c3.796,0,6.332,1.433,7.609,4.297c1.208-1.208,2.752-2.226,4.633-3.054
	c1.881-0.829,3.787-1.243,5.721-1.243c5.798,0,8.696,3.072,8.696,9.215v18.532h3.106v2.588h-9.836v-2.588h3.107V56.182
	c0-4.107-1.847-6.16-5.539-6.16c-3.348,0-6.402,1.277-9.163,3.83c0.104,0.726,0.155,1.502,0.155,2.33v18.532h3.106v2.588H124.984z"
	/>
<linearGradient id="SVGID_10_" gradientUnits="userSpaceOnUse" x1="167.5809" y1="78.5347" x2="167.5809" y2="45.1745">
	<stop  offset="0" style="stop-color:#DDDDE0"/>
	<stop  offset="1" style="stop-color:#FFFFFF"/>
</linearGradient>
<path fill="url(#SVGID_10_)" d="M173.741,73.937c-3.037,2.728-6.281,4.09-9.731,4.09c-3.451,0-5.823-0.69-7.118-2.07
	c-1.294-1.38-1.94-3.494-1.94-6.342c0-2.847,0.621-4.926,1.863-6.237s3.605-2.088,7.092-2.329l9.576-0.622V55.25
	c0-3.485-2.209-5.229-6.626-5.229c-2.934,0-4.892,0.5-5.875,1.501c-0.983,1.001-1.545,2.571-1.683,4.711l-3.054-0.155
	c0.104-1.483,0.318-2.726,0.646-3.728c0.328-1,0.854-1.933,1.579-2.795c1.449-1.726,4.245-2.589,8.386-2.589
	c6.833,0,10.25,2.762,10.25,8.283v19.464h3.105v2.588h-5.538L173.741,73.937z M164.216,75.076c3.347,0,6.436-1.347,9.266-4.038
	v-7.816l-9.369,0.569c-2.209,0.139-3.701,0.613-4.477,1.424c-0.776,0.811-1.165,2.234-1.165,4.271c0,2.036,0.432,3.477,1.294,4.322
	C160.626,74.653,162.111,75.076,164.216,75.076z"/>
<linearGradient id="SVGID_11_" gradientUnits="userSpaceOnUse" x1="195.4774" y1="78.5347" x2="195.4774" y2="45.1745">
	<stop  offset="0" style="stop-color:#DDDDE0"/>
	<stop  offset="1" style="stop-color:#FFFFFF"/>
</linearGradient>
<path fill="url(#SVGID_11_)" d="M182.38,41.065v-2.588h4.263l2.468,2.714v18.717h4.658l6.729-9.628h-2.691v-2.589h9.835v2.589
	h-3.105l-8.023,11.337l9.007,13.097h3.055v2.588h-9.836v-2.588h2.743l-8.23-12.01h-4.141v12.01h3.105v2.588h-9.836v-2.588h3.106
	V41.065H182.38z"/>
<linearGradient id="SVGID_12_" gradientUnits="userSpaceOnUse" x1="215.1796" y1="78.5347" x2="215.1796" y2="45.1745">
	<stop  offset="0" style="stop-color:#DDDDE0"/>
	<stop  offset="1" style="stop-color:#FFFFFF"/>
</linearGradient>
<path fill="url(#SVGID_12_)" d="M210.262,50.28v-2.589h6.73v27.022h3.105v2.588h-9.835v-2.588h3.105V50.28H210.262z"/>
<linearGradient id="SVGID_13_" gradientUnits="userSpaceOnUse" x1="237.0292" y1="78.5347" x2="237.0292" y2="45.1744">
	<stop  offset="0" style="stop-color:#DDDDE0"/>
	<stop  offset="1" style="stop-color:#FFFFFF"/>
</linearGradient>
<path fill="url(#SVGID_13_)" d="M222.509,50.28v-2.589h5.538l0.881,3.314c3.484-2.691,7.144-4.038,10.974-4.038
	c3.036,0,5.22,0.751,6.549,2.252c1.328,1.501,1.993,3.84,1.993,7.015v18.48h3.105v2.588h-9.835v-2.588h3.105V56.182
	c0-2.175-0.423-3.744-1.269-4.711c-0.846-0.966-2.252-1.449-4.219-1.449c-3.52,0-6.885,1.277-10.094,3.83v20.862h3.105v2.588h-9.835
	v-2.588h3.105V50.28H222.509z"/>
<linearGradient id="SVGID_14_" gradientUnits="userSpaceOnUse" x1="266.053" y1="78.5347" x2="266.053" y2="45.1746">
	<stop  offset="0" style="stop-color:#DDDDE0"/>
	<stop  offset="1" style="stop-color:#FFFFFF"/>
</linearGradient>
<path fill="url(#SVGID_14_)" d="M265.691,67.777c-2.036,0-3.83-0.276-5.384-0.829l-2.484,2.382
	c-0.898,0.863-1.346,1.863-1.346,3.002c0,1.484,0.914,2.227,2.743,2.227h11.854c2.45,0,4.34,0.587,5.668,1.76
	c1.328,1.173,1.993,2.881,1.993,5.125c0,1.553-0.268,2.873-0.802,3.96c-0.536,1.087-1.165,1.906-1.89,2.459
	c-0.725,0.551-1.752,0.983-3.08,1.294c-1.329,0.31-2.494,0.491-3.494,0.543c-1.002,0.052-2.416,0.078-4.245,0.078
	s-3.383-0.078-4.658-0.233c-1.277-0.155-2.503-0.475-3.676-0.957c-2.348-0.898-3.521-2.865-3.521-5.901
	c0-2.244,1.001-4.176,3.003-5.798c-1.898-0.794-2.848-2.226-2.848-4.297c0-1.69,0.759-3.295,2.278-4.813l2.226-2.123
	c-1.795-1.518-2.691-4.278-2.691-8.282c0-4.071,0.914-6.851,2.743-8.334c1.76-1.38,4.201-2.071,7.325-2.071
	c3.123,0,5.547,0.433,7.272,1.295l3.676-3.676l2.174,2.174l-3.468,3.469c1.104,1.519,1.656,3.9,1.656,7.144
	c0,4.038-0.915,6.816-2.743,8.334C272.247,67.087,269.487,67.777,265.691,67.777z M266.183,87.033c3.191,0,5.521-0.319,6.988-0.957
	c1.467-0.639,2.2-2.166,2.2-4.581c0-2.796-1.778-4.193-5.332-4.193h-11.13c-1.588,1.311-2.381,3.036-2.381,5.177
	c0,2.001,0.88,3.278,2.64,3.83C260.652,86.792,262.991,87.033,266.183,87.033z M258.858,57.372c0,2.623,0.457,4.556,1.372,5.798
	c0.914,1.242,2.847,1.863,5.798,1.863c2.95,0,4.883-0.621,5.798-1.863c0.914-1.242,1.371-3.175,1.371-5.798
	c0-2.622-0.457-4.556-1.371-5.798c-0.915-1.242-2.848-1.863-5.798-1.863c-2.951,0-4.884,0.621-5.798,1.863
	C259.315,52.816,258.858,54.75,258.858,57.372z"/>
<linearGradient id="SVGID_15_" gradientUnits="userSpaceOnUse" x1="22.0776" y1="76.6877" x2="53.9037" y2="40.9124">
	<stop  offset="0" style="stop-color:#000000;stop-opacity:0.3"/>
	<stop  offset="1" style="stop-color:#000000;stop-opacity:0"/>
</linearGradient>
<path opacity="0.5" fill="url(#SVGID_15_)" d="M72.28,23.699l-17.1-10.032c-2.527-1.458-5.669-2.261-9.1-2.261
	c-3.43,0-6.639,0.802-9.165,2.261L19.868,23.699c-5.178,2.99-8.905,10.016-8.905,15.995V59.76c0,5.978,3.761,13.004,8.939,15.994
	l17.229,10.032c2.525,1.459,5.731,2.263,9.161,2.263s6.672-0.803,9.198-2.263l16.807-10.032c5.179-2.989,8.665-10.016,8.665-15.994
	V39.694C80.962,33.715,77.457,26.69,72.28,23.699z"/>
<g>
	<linearGradient id="SVGID_16_" gradientUnits="userSpaceOnUse" x1="65.7588" y1="22.181" x2="61.0082" y2="29.545">
		<stop  offset="0" style="stop-color:#000000;stop-opacity:0.3"/>
		<stop  offset="1" style="stop-color:#000000;stop-opacity:0"/>
	</linearGradient>
	<path fill="url(#SVGID_16_)" d="M73.002,26.242L54.855,15.49l5.608,15.029c3.831-1.673,12.57-4.155,15.78-0.998
		C75.369,28.073,74.277,26.915,73.002,26.242z"/>
</g>
<g>
	<linearGradient id="SVGID_17_" gradientUnits="userSpaceOnUse" x1="32.0148" y1="18.6768" x2="37.242" y2="26.8734">
		<stop  offset="0" style="stop-color:#000000;stop-opacity:0.3"/>
		<stop  offset="1" style="stop-color:#000000;stop-opacity:0"/>
	</linearGradient>
	<path fill="url(#SVGID_17_)" d="M39.355,14.682L20.849,24.804l15.787,2.847c0.517-4.15,2.84-12.933,7.193-14.083
		C42.136,13.582,40.583,13.93,39.355,14.682z"/>
</g>
<g>
	<linearGradient id="SVGID_18_" gradientUnits="userSpaceOnUse" x1="11.3915" y1="46.8313" x2="21.1298" y2="47.0686">
		<stop  offset="0" style="stop-color:#000000;stop-opacity:0.3"/>
		<stop  offset="1" style="stop-color:#000000;stop-opacity:0"/>
	</linearGradient>
	<path fill="url(#SVGID_18_)" d="M11.45,38.518l-0.384,21.09l10.297-12.302c-3.348-2.504-9.823-8.877-8.664-13.227
		C11.872,35.556,11.406,37.077,11.45,38.518z"/>
</g>
<g>
	<linearGradient id="SVGID_19_" gradientUnits="userSpaceOnUse" x1="25.0009" y1="77.9009" x2="30.7021" y2="70.1801">
		<stop  offset="0" style="stop-color:#000000;stop-opacity:0.3"/>
		<stop  offset="1" style="stop-color:#000000;stop-opacity:0"/>
	</linearGradient>
	<path fill="url(#SVGID_19_)" d="M18.021,73.483l17.942,11.089l-5.324-15.133c-3.864,1.602-12.647,3.92-15.798,0.703
		C15.689,71.607,16.759,72.785,18.021,73.483z"/>
</g>
<g>
	<linearGradient id="SVGID_20_" gradientUnits="userSpaceOnUse" x1="59.816" y1="81.0257" x2="56.0157" y2="72.4746">
		<stop  offset="0" style="stop-color:#000000;stop-opacity:0.3"/>
		<stop  offset="1" style="stop-color:#000000;stop-opacity:0"/>
	</linearGradient>
	<path fill="url(#SVGID_20_)" d="M52.691,85.263l18.445-10.23l-15.805-2.751c-0.49,4.152-2.762,12.949-7.107,14.126
		C49.915,86.381,51.466,86.024,52.691,85.263z"/>
</g>
<g>
	<linearGradient id="SVGID_21_" gradientUnits="userSpaceOnUse" x1="79.4404" y1="53.7349" x2="69.7009" y2="53.6159">
		<stop  offset="0" style="stop-color:#000000;stop-opacity:0.3"/>
		<stop  offset="1" style="stop-color:#000000;stop-opacity:0"/>
	</linearGradient>
	<path fill="url(#SVGID_21_)" d="M79.663,62.062l0.609-21.084L69.842,53.166c3.322,2.542,9.729,8.984,8.521,13.322
		C79.206,65.021,79.691,63.504,79.663,62.062z"/>
</g>
<linearGradient id="SVGID_22_" gradientUnits="userSpaceOnUse" x1="22.5701" y1="12.4117" x2="8.792" y2="47.0953">
	<stop  offset="0" style="stop-color:#1010A6"/>
	<stop  offset="0.7231" style="stop-color:#6666CC"/>
	<stop  offset="0.7257" style="stop-color:#6666CC"/>
	<stop  offset="0.8512" style="stop-color:#7272D0"/>
	<stop  offset="0.9792" style="stop-color:#7676D1"/>
</linearGradient>
<path fill="url(#SVGID_22_)" d="M3.716,25.869c3.637-6.344,10.365-9.883,19.463-10.231c6.141-0.235,11.158,1.043,11.377,1.1
	c0,0-4.272,2.499-9.078,5.284c-3.595,2.08-7.924,3.769-11.536,9.626c-3.753,6.084,3.423,17.119,6.264,20.493l-8.701,7.369
	c-0.157-0.186-3.898-4.623-6.776-10.6C0.482,40.092,0.134,32.125,3.716,25.869z"/>
<linearGradient id="SVGID_23_" gradientUnits="userSpaceOnUse" x1="67.3952" y1="11.2673" x2="28.91" y2="16.2561">
	<stop  offset="0" style="stop-color:#1010A6"/>
	<stop  offset="0.7231" style="stop-color:#6666CC"/>
	<stop  offset="0.7257" style="stop-color:#6666CC"/>
	<stop  offset="0.8512" style="stop-color:#7272D0"/>
	<stop  offset="0.9792" style="stop-color:#7676D1"/>
</linearGradient>
<path fill="url(#SVGID_23_)" d="M45.87,1.395c7.312,0,13.727,4.08,18.553,11.8c3.258,5.21,4.643,10.201,4.703,10.42
	c0,0-4.293-2.465-9.099-5.252c-3.591-2.083-7.209-5.001-14.088-5.225c-7.144-0.23-13.152,11.482-14.667,15.625l-10.721-3.888
	c0.084-0.229,2.074-5.679,5.83-11.148C31.923,5.66,38.661,1.395,45.87,1.395z"/>
<linearGradient id="SVGID_24_" gradientUnits="userSpaceOnUse" x1="89.7462" y1="48.9486" x2="67.6528" y2="19.7282">
	<stop  offset="0" style="stop-color:#1010A6"/>
	<stop  offset="0.7231" style="stop-color:#6666CC"/>
	<stop  offset="0.7257" style="stop-color:#6666CC"/>
	<stop  offset="0.8512" style="stop-color:#7272D0"/>
	<stop  offset="0.9792" style="stop-color:#7676D1"/>
</linearGradient>
<path fill="url(#SVGID_24_)" d="M87.82,25.387c3.699,6.309,3.424,13.906-0.797,21.973c-2.848,5.443-6.451,9.164-6.609,9.326
	c0,0-0.047-4.947-0.072-10.504c-0.02-4.152,0.668-8.748-2.618-14.796c-3.411-6.281-16.556-5.539-20.894-4.752l-2.068-11.215
	c0.238-0.043,5.947-1.082,12.566-0.608C77.089,15.51,84.175,19.169,87.82,25.387z"/>
<linearGradient id="SVGID_25_" gradientUnits="userSpaceOnUse" x1="68.7554" y1="87.8768" x2="83.7211" y2="51.888">
	<stop  offset="0" style="stop-color:#1010A6"/>
	<stop  offset="0.7231" style="stop-color:#6666CC"/>
	<stop  offset="0.7257" style="stop-color:#6666CC"/>
	<stop  offset="0.8512" style="stop-color:#7272D0"/>
	<stop  offset="0.9792" style="stop-color:#7676D1"/>
</linearGradient>
<path fill="url(#SVGID_25_)" d="M88.101,74.129c-3.637,6.346-10.365,9.883-19.463,10.232c-6.139,0.235-11.159-1.043-11.376-1.1
	c0,0,4.269-2.499,9.077-5.284c3.594-2.079,7.922-3.768,11.535-9.626c3.756-6.083-3.424-17.119-6.263-20.492l8.702-7.369
	c0.156,0.186,3.896,4.622,6.775,10.6C91.335,59.908,91.683,67.875,88.101,74.129z"/>
<linearGradient id="SVGID_26_" gradientUnits="userSpaceOnUse" x1="24.6065" y1="88.5485" x2="62.8542" y2="83.797">
	<stop  offset="0" style="stop-color:#1010A6"/>
	<stop  offset="0.7231" style="stop-color:#6666CC"/>
	<stop  offset="0.7257" style="stop-color:#6666CC"/>
	<stop  offset="0.8512" style="stop-color:#7272D0"/>
	<stop  offset="0.9792" style="stop-color:#7676D1"/>
</linearGradient>
<path fill="url(#SVGID_26_)" d="M45.947,98.604c-7.312,0-13.728-4.08-18.553-11.8c-3.257-5.21-4.644-10.201-4.703-10.42
	c0,0,4.293,2.464,9.1,5.252c3.59,2.083,7.208,5.002,14.087,5.225c7.144,0.231,13.151-11.482,14.667-15.624l10.72,3.887
	c-0.083,0.229-2.073,5.679-5.829,11.147C59.894,94.34,53.156,98.604,45.947,98.604z"/>
<linearGradient id="SVGID_27_" gradientUnits="userSpaceOnUse" x1="1.9252" y1="50.8521" x2="24.7308" y2="81.0218">
	<stop  offset="0" style="stop-color:#1010A6"/>
	<stop  offset="0.7231" style="stop-color:#6666CC"/>
	<stop  offset="0.7257" style="stop-color:#6666CC"/>
	<stop  offset="0.8512" style="stop-color:#7272D0"/>
	<stop  offset="0.9792" style="stop-color:#7676D1"/>
</linearGradient>
<path fill="url(#SVGID_27_)" d="M3.996,74.613c-3.698-6.31-3.422-13.906,0.798-21.975c2.848-5.443,6.453-9.163,6.607-9.325
	c0,0,0.048,4.948,0.072,10.503c0.021,4.154-0.667,8.749,2.617,14.797c3.416,6.279,16.558,5.539,20.898,4.753l2.067,11.214
	c-0.238,0.043-5.949,1.082-12.565,0.608C14.728,84.49,7.642,80.831,3.996,74.613z"/>
<linearGradient id="SVGID_28_" gradientUnits="userSpaceOnUse" x1="22.4466" y1="12.362" x2="8.6682" y2="47.0462">
	<stop  offset="0" style="stop-color:#1010A6"/>
	<stop  offset="0.7231" style="stop-color:#6666CC"/>
	<stop  offset="0.7257" style="stop-color:#6666CC"/>
	<stop  offset="0.8512" style="stop-color:#7272D0"/>
	<stop  offset="0.9792" style="stop-color:#7676D1"/>
</linearGradient>
<path fill="url(#SVGID_28_)" d="M3.716,25.869c3.637-6.344,13.838-0.079,10.226,5.778c-3.753,6.084,3.423,17.119,6.264,20.493
	l-8.701,7.369c-0.157-0.186-3.898-4.623-6.776-10.6C0.482,40.092,0.134,32.125,3.716,25.869z"/>
</svg>
