<?xml version="1.0" encoding="utf-8"?>
<!-- Generator: Adobe Illustrator 19.1.0, SVG Export Plug-In . SVG Version: 6.00 Build 0)  -->
<!DOCTYPE svg PUBLIC "-//W3C//DTD SVG 1.1//EN" "http://www.w3.org/Graphics/SVG/1.1/DTD/svg11.dtd">
<svg version="1.1" id="Layer_1" xmlns="http://www.w3.org/2000/svg" xmlns:xlink="http://www.w3.org/1999/xlink" x="0px" y="0px"
	 viewBox="0 0 200 70" enable-background="new 0 0 200 70" xml:space="preserve">
<linearGradient id="SVGID_1_" gradientUnits="userSpaceOnUse" x1="81.0605" y1="10.3643" x2="81.0605" y2="30.4777">
	<stop  offset="0" style="stop-color:#4F4F5E"/>
	<stop  offset="1" style="stop-color:#6A6A77"/>
</linearGradient>
<path fill="url(#SVGID_1_)" d="M81,30.4c-2.4,0-4-0.6-4.9-1.9c-0.9-1.3-1.3-3.3-1.3-6.1c0-0.9,0-1.8,0.1-2.4
	c0.1-0.7,0.2-1.4,0.5-2.1c0.2-0.7,0.6-1.4,1-1.8c0.4-0.5,1.1-0.8,1.8-1.1c0.8-0.3,1.7-0.5,2.8-0.5s2,0.2,2.8,0.5
	c0.8,0.3,1.4,0.7,1.8,1.1c0.4,0.5,0.8,1.1,1,1.8c0.2,0.7,0.4,1.5,0.5,2.1c0.1,0.7,0.1,1.5,0.1,2.4v0.4H76.7c0,2.2,0.3,3.7,0.9,4.6
	c0.6,0.9,1.7,1.4,3.4,1.4c1.7,0,2.8-0.3,3.4-0.9c0.6-0.6,1-1.5,1.1-2.7l1.5,0.1c-0.1,0.8-0.2,1.4-0.4,2c-0.2,0.5-0.5,1.1-0.9,1.6
	C85,29.9,83.4,30.4,81,30.4z M81.1,16c-0.9,0-1.6,0.1-2.2,0.4c-0.6,0.3-1,0.7-1.3,1.3c-0.5,0.9-0.8,2.2-0.8,3.7h8.7
	c0-1.6-0.3-2.9-0.8-3.8C84.1,16.5,82.9,16,81.1,16z"/>
<linearGradient id="SVGID_2_" gradientUnits="userSpaceOnUse" x1="100.3982" y1="10.3643" x2="100.3982" y2="30.4776">
	<stop  offset="0" style="stop-color:#4F4F5E"/>
	<stop  offset="1" style="stop-color:#6A6A77"/>
</linearGradient>
<path fill="url(#SVGID_2_)" d="M97.9,30v-1.3h1.6v-9.6c0-2.1-1-3.2-2.9-3.2c-1.7,0-3.3,0.6-4.6,1.9v10.8h1.6V30h-5.1v-1.3h1.6V16.1
	h-1.6v-1.3h2.9l0.4,1.7c1.5-1.4,3.2-2,5.2-2c2,0,3.3,0.7,3.9,2.2c0.6-0.6,1.4-1.1,2.4-1.6c1-0.4,2-0.6,2.9-0.6c3,0,4.5,1.6,4.5,4.7
	v9.6h1.6V30h-5.1v-1.3h1.6v-9.6c0-2.1-1-3.2-2.9-3.2c-1.7,0-3.3,0.7-4.7,2c0.1,0.4,0.1,0.8,0.1,1.2v9.6h1.6V30H97.9z"/>
<linearGradient id="SVGID_3_" gradientUnits="userSpaceOnUse" x1="119.684" y1="10.3643" x2="119.684" y2="30.4777">
	<stop  offset="0" style="stop-color:#4F4F5E"/>
	<stop  offset="1" style="stop-color:#6A6A77"/>
</linearGradient>
<path fill="url(#SVGID_3_)" d="M112.8,11.4V10h3.5v5.8c1.6-1,3.2-1.4,4.7-1.4c2.7,0,4.4,1.1,5.1,3.4c0.4,1.2,0.5,2.5,0.5,3.9
	c0,1.4,0,2.4-0.1,3.1c-0.1,0.7-0.2,1.4-0.4,2.1c-0.2,0.7-0.5,1.4-0.9,1.8c-0.9,1.1-2.2,1.6-4,1.6c-1.8,0-3.5-0.6-5.1-1.7l-0.4,1.4
	h-1.3V11.4H112.8z M116.3,17.4v10c1.3,1,2.7,1.5,4.2,1.5c1.5,0,2.5-0.4,3.2-1.2c0.6-0.7,0.9-1.7,1-3.2c0-0.5,0.1-1.2,0.1-1.9
	c0-0.7,0-1.3-0.1-1.7c0-0.5-0.1-0.9-0.2-1.5c-0.1-0.5-0.2-1-0.4-1.4c-0.2-0.4-0.4-0.7-0.7-1.1c-0.6-0.6-1.5-1-2.9-1
	C119.1,16,117.7,16.4,116.3,17.4z"/>
<linearGradient id="SVGID_4_" gradientUnits="userSpaceOnUse" x1="134.9766" y1="10.3643" x2="134.9766" y2="30.4777">
	<stop  offset="0" style="stop-color:#4F4F5E"/>
	<stop  offset="1" style="stop-color:#6A6A77"/>
</linearGradient>
<path fill="url(#SVGID_4_)" d="M137.2,30.2c-0.6,0.2-1.4,0.2-2.2,0.2c-0.8,0-1.6-0.1-2.2-0.2c-0.6-0.2-1.2-0.4-1.7-0.6
	c-0.5-0.3-0.8-0.6-1.2-1c-0.3-0.4-0.6-0.8-0.8-1.3c-0.2-0.4-0.3-0.9-0.4-1.5c-0.1-0.6-0.2-1.1-0.2-1.6c0-0.5-0.1-1.1-0.1-1.7
	c0-0.7,0-1.2,0.1-1.7c0-0.5,0.1-1,0.2-1.6c0.1-0.6,0.3-1.1,0.4-1.5c0.2-0.4,0.4-0.8,0.8-1.3c0.3-0.4,0.7-0.7,1.2-1
	c0.5-0.3,1-0.5,1.7-0.6c0.6-0.2,1.4-0.2,2.2-0.2c0.8,0,1.6,0.1,2.2,0.2c0.6,0.2,1.2,0.4,1.7,0.6c0.5,0.3,0.8,0.6,1.2,1
	c0.3,0.4,0.6,0.8,0.8,1.3c0.2,0.4,0.3,0.9,0.4,1.5c0.1,0.6,0.2,1.1,0.2,1.6c0,0.5,0.1,1.1,0.1,1.7c0,0.7,0,1.2-0.1,1.7
	c0,0.5-0.1,1-0.2,1.6c-0.1,0.6-0.3,1.1-0.4,1.5c-0.2,0.4-0.4,0.8-0.8,1.3c-0.3,0.4-0.7,0.7-1.2,1C138.4,29.8,137.8,30,137.2,30.2z
	 M132.8,28.4c0.6,0.3,1.3,0.4,2.2,0.4c0.9,0,1.6-0.1,2.2-0.4c0.6-0.3,1-0.6,1.4-0.9c0.3-0.4,0.6-0.9,0.7-1.5
	c0.2-0.6,0.3-1.2,0.3-1.7c0-0.5,0.1-1.1,0.1-1.9c0-0.8,0-1.4-0.1-1.9c0-0.5-0.1-1.1-0.3-1.7c-0.2-0.6-0.4-1.1-0.7-1.5
	c-0.3-0.4-0.8-0.7-1.4-0.9c-0.6-0.3-1.3-0.4-2.2-0.4c-0.9,0-1.6,0.1-2.2,0.4c-0.6,0.3-1,0.6-1.4,0.9c-0.3,0.4-0.6,0.9-0.7,1.5
	c-0.2,0.6-0.3,1.2-0.3,1.7c0,0.5-0.1,1.1-0.1,1.9c0,0.8,0,1.4,0.1,1.9c0,0.5,0.1,1.1,0.3,1.7c0.2,0.6,0.4,1.1,0.7,1.5
	C131.8,27.9,132.2,28.2,132.8,28.4z"/>
<linearGradient id="SVGID_5_" gradientUnits="userSpaceOnUse" x1="150.0153" y1="10.3643" x2="150.0153" y2="30.4777">
	<stop  offset="0" style="stop-color:#4F4F5E"/>
	<stop  offset="1" style="stop-color:#6A6A77"/>
</linearGradient>
<path fill="url(#SVGID_5_)" d="M148.9,30.4c-1,0-1.9-0.2-2.6-0.5c-0.7-0.3-1.3-0.7-1.7-1.1c-0.4-0.5-0.7-1.1-0.9-1.8
	c-0.2-0.7-0.4-1.5-0.4-2.1c-0.1-0.7-0.1-1.5-0.1-2.4c0-0.9,0-1.8,0.1-2.4c0.1-0.7,0.2-1.4,0.5-2.1c0.2-0.7,0.6-1.4,1-1.8
	c0.4-0.5,1-0.8,1.7-1.1c0.7-0.3,1.7-0.5,2.9-0.5c1.2,0,2.6,0.3,4.1,1v-4h-1.6V10h3.5v18.7h1.6V30H154l-0.3-1.6
	C152.2,29.8,150.6,30.4,148.9,30.4z M145,22.5c0,2,0.3,3.6,0.9,4.7c0.6,1.1,1.6,1.6,3.2,1.6c1.6,0,3-0.6,4.3-1.8V16.9
	c-1.3-0.6-2.7-0.9-4.2-0.9c-1.7,0-2.9,0.6-3.5,1.8C145.3,18.9,145,20.5,145,22.5z"/>
<linearGradient id="SVGID_6_" gradientUnits="userSpaceOnUse" x1="161.1565" y1="10.3643" x2="161.1565" y2="30.4777">
	<stop  offset="0" style="stop-color:#4F4F5E"/>
	<stop  offset="1" style="stop-color:#6A6A77"/>
</linearGradient>
<path fill="url(#SVGID_6_)" d="M158.6,16.1v-1.3h3.5v13.9h1.6V30h-5.1v-1.3h1.6V16.1H158.6z M162.3,11.4c0,0.2-0.1,0.3-0.3,0.5
	c-0.2,0.2-0.5,0.2-0.8,0.2c-0.3,0-0.6-0.1-0.8-0.2c-0.2-0.2-0.3-0.3-0.3-0.5c0-0.2-0.1-0.4-0.1-0.7c0-0.3,0-0.5,0.1-0.7
	c0-0.2,0.1-0.3,0.3-0.5c0.2-0.2,0.5-0.2,0.9-0.2c0.4,0,0.7,0.1,0.9,0.4c0.1,0.2,0.2,0.6,0.2,0.9C162.4,10.9,162.3,11.2,162.3,11.4z"
	/>
<linearGradient id="SVGID_7_" gradientUnits="userSpaceOnUse" x1="171.0147" y1="10.3643" x2="171.0147" y2="30.4777">
	<stop  offset="0" style="stop-color:#4F4F5E"/>
	<stop  offset="1" style="stop-color:#6A6A77"/>
</linearGradient>
<path fill="url(#SVGID_7_)" d="M171,30.4c-2.4,0-4-0.6-4.9-1.9c-0.9-1.3-1.3-3.3-1.3-6.1c0-0.9,0-1.8,0.1-2.4
	c0.1-0.7,0.2-1.4,0.5-2.1c0.2-0.7,0.6-1.4,1-1.8c0.4-0.5,1.1-0.8,1.8-1.1c0.8-0.3,1.7-0.5,2.8-0.5c1.1,0,2,0.2,2.8,0.5
	c0.8,0.3,1.4,0.7,1.8,1.1c0.4,0.5,0.8,1.1,1,1.8c0.2,0.7,0.4,1.5,0.5,2.1c0.1,0.7,0.1,1.5,0.1,2.4v0.4h-10.6c0,2.2,0.3,3.7,0.9,4.6
	c0.6,0.9,1.7,1.4,3.4,1.4s2.8-0.3,3.4-0.9c0.6-0.6,1-1.5,1.1-2.7l1.5,0.1c-0.1,0.8-0.2,1.4-0.4,2c-0.2,0.5-0.5,1.1-0.9,1.6
	C174.9,29.9,173.3,30.4,171,30.4z M171,16c-0.9,0-1.6,0.1-2.2,0.4c-0.6,0.3-1,0.7-1.3,1.3c-0.5,0.9-0.8,2.2-0.8,3.7h8.7
	c0-1.6-0.3-2.9-0.8-3.8C174,16.5,172.8,16,171,16z"/>
<linearGradient id="SVGID_8_" gradientUnits="userSpaceOnUse" x1="185.7231" y1="10.3643" x2="185.7231" y2="30.4777">
	<stop  offset="0" style="stop-color:#4F4F5E"/>
	<stop  offset="1" style="stop-color:#6A6A77"/>
</linearGradient>
<path fill="url(#SVGID_8_)" d="M184.6,30.4c-1,0-1.9-0.2-2.6-0.5c-0.7-0.3-1.3-0.7-1.7-1.1c-0.4-0.5-0.7-1.1-0.9-1.8
	c-0.2-0.7-0.4-1.5-0.4-2.1c-0.1-0.7-0.1-1.5-0.1-2.4c0-0.9,0-1.8,0.1-2.4c0.1-0.7,0.2-1.4,0.5-2.1c0.2-0.7,0.6-1.4,1-1.8
	c0.4-0.5,1-0.8,1.7-1.1c0.7-0.3,1.7-0.5,2.9-0.5c1.2,0,2.6,0.3,4.1,1v-4h-1.6V10h3.5v18.7h1.6V30h-2.9l-0.3-1.6
	C187.9,29.8,186.3,30.4,184.6,30.4z M180.7,22.5c0,2,0.3,3.6,0.9,4.7c0.6,1.1,1.6,1.6,3.2,1.6c1.6,0,3-0.6,4.3-1.8V16.9
	c-1.3-0.6-2.7-0.9-4.2-0.9c-1.7,0-2.9,0.6-3.5,1.8C181,18.9,180.7,20.5,180.7,22.5z"/>
<linearGradient id="SVGID_9_" gradientUnits="userSpaceOnUse" x1="91.4899" y1="54.3744" x2="91.4899" y2="31.5528">
	<stop  offset="0" style="stop-color:#4F4F5E"/>
	<stop  offset="1" style="stop-color:#6A6A77"/>
</linearGradient>
<path fill="url(#SVGID_9_)" d="M88.1,53.5v-1.8h2.1V39.1c0-2.8-1.3-4.2-3.8-4.2c-2.3,0-4.3,0.8-6.2,2.5v14.3h2.1v1.8h-6.7v-1.8h2.1
	V35h-2.1v-1.8h3.8l0.6,2.2c2-1.8,4.3-2.7,6.9-2.7c2.6,0,4.3,1,5.2,2.9c0.8-0.8,1.9-1.5,3.2-2.1c1.3-0.6,2.6-0.9,3.9-0.9
	c4,0,5.9,2.1,5.9,6.3v12.7h2.1v1.8h-6.7v-1.8h2.1V39.1c0-2.8-1.3-4.2-3.8-4.2c-2.3,0-4.4,0.9-6.3,2.6c0.1,0.5,0.1,1,0.1,1.6v12.7
	h2.1v1.8H88.1z"/>
<linearGradient id="SVGID_10_" gradientUnits="userSpaceOnUse" x1="117.2656" y1="54.3744" x2="117.2656" y2="31.5529">
	<stop  offset="0" style="stop-color:#4F4F5E"/>
	<stop  offset="1" style="stop-color:#6A6A77"/>
</linearGradient>
<path fill="url(#SVGID_10_)" d="M121.5,51.2c-2.1,1.9-4.3,2.8-6.7,2.8c-2.4,0-4-0.5-4.9-1.4c-0.9-0.9-1.3-2.4-1.3-4.3
	c0-1.9,0.4-3.4,1.3-4.3c0.8-0.9,2.5-1.4,4.9-1.6l6.6-0.4v-3.5c0-2.4-1.5-3.6-4.5-3.6c-2,0-3.3,0.3-4,1c-0.7,0.7-1.1,1.8-1.2,3.2
	l-2.1-0.1c0.1-1,0.2-1.9,0.4-2.6c0.2-0.7,0.6-1.3,1.1-1.9c1-1.2,2.9-1.8,5.7-1.8c4.7,0,7,1.9,7,5.7v13.3h2.1v1.8h-3.8L121.5,51.2z
	 M115,52c2.3,0,4.4-0.9,6.3-2.8v-5.3l-6.4,0.4c-1.5,0.1-2.5,0.4-3.1,1c-0.5,0.6-0.8,1.5-0.8,2.9c0,1.4,0.3,2.4,0.9,3
	C112.5,51.7,113.5,52,115,52z"/>
<linearGradient id="SVGID_11_" gradientUnits="userSpaceOnUse" x1="136.3494" y1="54.3744" x2="136.3494" y2="31.5529">
	<stop  offset="0" style="stop-color:#4F4F5E"/>
	<stop  offset="1" style="stop-color:#6A6A77"/>
</linearGradient>
<path fill="url(#SVGID_11_)" d="M127.4,28.7V27h2.9l1.7,1.9v12.8h3.2l4.6-6.6h-1.8v-1.8h6.7V35h-2.1l-5.5,7.8l6.2,9h2.1v1.8h-6.7
	v-1.8h1.9l-5.6-8.2H132v8.2h2.1v1.8h-6.7v-1.8h2.1v-23H127.4z"/>
<linearGradient id="SVGID_12_" gradientUnits="userSpaceOnUse" x1="149.8275" y1="54.3744" x2="149.8275" y2="31.5529">
	<stop  offset="0" style="stop-color:#4F4F5E"/>
	<stop  offset="1" style="stop-color:#6A6A77"/>
</linearGradient>
<path fill="url(#SVGID_12_)" d="M146.5,35v-1.8h4.6v18.5h2.1v1.8h-6.7v-1.8h2.1V35H146.5z"/>
<linearGradient id="SVGID_13_" gradientUnits="userSpaceOnUse" x1="164.7747" y1="54.3744" x2="164.7747" y2="31.5528">
	<stop  offset="0" style="stop-color:#4F4F5E"/>
	<stop  offset="1" style="stop-color:#6A6A77"/>
</linearGradient>
<path fill="url(#SVGID_13_)" d="M154.8,35v-1.8h3.8l0.6,2.3c2.4-1.8,4.9-2.8,7.5-2.8c2.1,0,3.6,0.5,4.5,1.5c0.9,1,1.4,2.6,1.4,4.8
	v12.6h2.1v1.8H168v-1.8h2.1V39.1c0-1.5-0.3-2.6-0.9-3.2c-0.6-0.7-1.5-1-2.9-1c-2.4,0-4.7,0.9-6.9,2.6v14.3h2.1v1.8h-6.7v-1.8h2.1V35
	H154.8z"/>
<linearGradient id="SVGID_14_" gradientUnits="userSpaceOnUse" x1="184.6297" y1="54.3744" x2="184.6297" y2="31.553">
	<stop  offset="0" style="stop-color:#4F4F5E"/>
	<stop  offset="1" style="stop-color:#6A6A77"/>
</linearGradient>
<path fill="url(#SVGID_14_)" d="M184.4,47c-1.4,0-2.6-0.2-3.7-0.6l-1.7,1.6c-0.6,0.6-0.9,1.3-0.9,2.1c0,1,0.6,1.5,1.9,1.5h8.1
	c1.7,0,3,0.4,3.9,1.2c0.9,0.8,1.4,2,1.4,3.5c0,1.1-0.2,2-0.5,2.7c-0.4,0.7-0.8,1.3-1.3,1.7c-0.5,0.4-1.2,0.7-2.1,0.9
	c-0.9,0.2-1.7,0.3-2.4,0.4c-0.7,0-1.7,0.1-2.9,0.1c-1.3,0-2.3-0.1-3.2-0.2c-0.9-0.1-1.7-0.3-2.5-0.7c-1.6-0.6-2.4-2-2.4-4
	c0-1.5,0.7-2.9,2.1-4c-1.3-0.5-1.9-1.5-1.9-2.9c0-1.2,0.5-2.3,1.6-3.3l1.5-1.5c-1.2-1-1.8-2.9-1.8-5.7c0-2.8,0.6-4.7,1.9-5.7
	c1.2-0.9,2.9-1.4,5-1.4c2.1,0,3.8,0.3,5,0.9l2.5-2.5l1.5,1.5l-2.4,2.4c0.8,1,1.1,2.7,1.1,4.9c0,2.8-0.6,4.7-1.9,5.7
	C188.9,46.5,187,47,184.4,47z M184.7,60.2c2.2,0,3.8-0.2,4.8-0.7c1-0.4,1.5-1.5,1.5-3.1c0-1.9-1.2-2.9-3.6-2.9h-7.6
	c-1.1,0.9-1.6,2.1-1.6,3.5c0,1.4,0.6,2.2,1.8,2.6C180.9,60,182.5,60.2,184.7,60.2z M179.7,39.9c0,1.8,0.3,3.1,0.9,4
	c0.6,0.8,1.9,1.3,4,1.3c2,0,3.3-0.4,4-1.3c0.6-0.8,0.9-2.2,0.9-4c0-1.8-0.3-3.1-0.9-4c-0.6-0.8-1.9-1.3-4-1.3c-2,0-3.3,0.4-4,1.3
	C180,36.8,179.7,38.1,179.7,39.9z"/>
<linearGradient id="SVGID_15_" gradientUnits="userSpaceOnUse" x1="17.8836" y1="53.1367" x2="39.6728" y2="28.6437">
	<stop  offset="0" style="stop-color:#000000;stop-opacity:0.3"/>
	<stop  offset="1" style="stop-color:#000000;stop-opacity:0"/>
</linearGradient>
<path opacity="0.5" fill="url(#SVGID_15_)" d="M52.2,16.9L40.5,10c-1.7-1-3.9-1.5-6.3-1.5c-2.3,0-4.6,0.5-6.3,1.5l-11.6,6.9
	c-3.5,2-6,6.9-6,10.9v13.7c0,4.1,2.5,8.9,6,10.9l11.7,6.9c1.7,1,3.9,1.5,6.2,1.5s4.5-0.5,6.3-1.5l11.7-6.9c3.5-2,6.1-6.9,6.1-10.9
	V27.8C58.4,23.7,55.8,18.9,52.2,16.9z"/>
<g>
	<linearGradient id="SVGID_16_" gradientUnits="userSpaceOnUse" x1="47.6098" y1="15.8232" x2="44.36" y2="20.8608">
		<stop  offset="0" style="stop-color:#000000;stop-opacity:0.3"/>
		<stop  offset="1" style="stop-color:#000000;stop-opacity:0"/>
	</linearGradient>
	<path fill="url(#SVGID_16_)" d="M52.6,18.6l-12.4-7.4L44,21.5c2.6-1.1,8.6-2.8,10.8-0.7C54.2,19.9,53.4,19.1,52.6,18.6z"/>
</g>
<g>
	<linearGradient id="SVGID_17_" gradientUnits="userSpaceOnUse" x1="24.5258" y1="13.426" x2="28.1017" y2="19.0332">
		<stop  offset="0" style="stop-color:#000000;stop-opacity:0.3"/>
		<stop  offset="1" style="stop-color:#000000;stop-opacity:0"/>
	</linearGradient>
	<path fill="url(#SVGID_17_)" d="M29.5,10.7l-12.7,6.9l10.8,1.9c0.4-2.8,1.9-8.8,4.9-9.6C31.4,9.9,30.4,10.2,29.5,10.7z"/>
</g>
<g>
	<linearGradient id="SVGID_18_" gradientUnits="userSpaceOnUse" x1="10.4176" y1="32.6863" x2="17.0794" y2="32.8487">
		<stop  offset="0" style="stop-color:#000000;stop-opacity:0.3"/>
		<stop  offset="1" style="stop-color:#000000;stop-opacity:0"/>
	</linearGradient>
	<path fill="url(#SVGID_18_)" d="M10.5,27l-0.3,14.4l7-8.4c-2.3-1.7-6.7-6.1-5.9-9C10.7,25,10.4,26,10.5,27z"/>
</g>
<g>
	<linearGradient id="SVGID_19_" gradientUnits="userSpaceOnUse" x1="19.7277" y1="53.9408" x2="23.6278" y2="48.659">
		<stop  offset="0" style="stop-color:#000000;stop-opacity:0.3"/>
		<stop  offset="1" style="stop-color:#000000;stop-opacity:0"/>
	</linearGradient>
	<path fill="url(#SVGID_19_)" d="M15,50.9l12.3,7.6l-3.6-10.4c-2.6,1.1-8.7,2.7-10.8,0.5C13.4,49.6,14.1,50.4,15,50.9z"/>
</g>
<g>
	<linearGradient id="SVGID_20_" gradientUnits="userSpaceOnUse" x1="43.5444" y1="56.0785" x2="40.9447" y2="50.2287">
		<stop  offset="0" style="stop-color:#000000;stop-opacity:0.3"/>
		<stop  offset="1" style="stop-color:#000000;stop-opacity:0"/>
	</linearGradient>
	<path fill="url(#SVGID_20_)" d="M38.7,59l12.6-7l-10.8-1.9c-0.3,2.8-1.9,8.9-4.9,9.7C36.8,59.7,37.8,59.5,38.7,59z"/>
</g>
<g>
	<linearGradient id="SVGID_21_" gradientUnits="userSpaceOnUse" x1="56.9693" y1="37.409" x2="50.3066" y2="37.3276">
		<stop  offset="0" style="stop-color:#000000;stop-opacity:0.3"/>
		<stop  offset="1" style="stop-color:#000000;stop-opacity:0"/>
	</linearGradient>
	<path fill="url(#SVGID_21_)" d="M57.1,43.1l0.4-14.4L50.4,37c2.3,1.7,6.7,6.1,5.8,9.1C56.8,45.1,57.1,44.1,57.1,43.1z"/>
</g>
<linearGradient id="SVGID_22_" gradientUnits="userSpaceOnUse" x1="18.0647" y1="9.1401" x2="8.6392" y2="32.8669">
	<stop  offset="0" style="stop-color:#1010A6"/>
	<stop  offset="0.7231" style="stop-color:#6666CC"/>
	<stop  offset="0.7257" style="stop-color:#6666CC"/>
	<stop  offset="0.8512" style="stop-color:#7272D0"/>
	<stop  offset="0.9792" style="stop-color:#7676D1"/>
</linearGradient>
<path fill="url(#SVGID_22_)" d="M5.2,18.3c2.5-4.3,7.1-6.8,13.3-7c4.2-0.2,7.6,0.7,7.8,0.8c0,0-2.9,1.7-6.2,3.6
	c-2.5,1.4-5.4,2.6-7.9,6.6c-2.6,4.2,2.3,11.7,4.3,14l-6,5c-0.1-0.1-2.7-3.2-4.6-7.3C3,28.1,2.7,22.6,5.2,18.3z"/>
<linearGradient id="SVGID_23_" gradientUnits="userSpaceOnUse" x1="48.7293" y1="8.3572" x2="22.4018" y2="11.77">
	<stop  offset="0" style="stop-color:#1010A6"/>
	<stop  offset="0.7231" style="stop-color:#6666CC"/>
	<stop  offset="0.7257" style="stop-color:#6666CC"/>
	<stop  offset="0.8512" style="stop-color:#7272D0"/>
	<stop  offset="0.9792" style="stop-color:#7676D1"/>
</linearGradient>
<path fill="url(#SVGID_23_)" d="M34,1.6c5,0,9.4,2.8,12.7,8.1c2.2,3.6,3.2,7,3.2,7.1c0,0-2.9-1.7-6.2-3.6c-2.5-1.4-4.9-3.4-9.6-3.6
	c-4.9-0.2-9,7.9-10,10.7l-7.3-2.7c0.1-0.2,1.4-3.9,4-7.6C24.5,4.5,29.1,1.6,34,1.6z"/>
<linearGradient id="SVGID_24_" gradientUnits="userSpaceOnUse" x1="64.0195" y1="34.1347" x2="48.9055" y2="14.1453">
	<stop  offset="0" style="stop-color:#1010A6"/>
	<stop  offset="0.7231" style="stop-color:#6666CC"/>
	<stop  offset="0.7257" style="stop-color:#6666CC"/>
	<stop  offset="0.8512" style="stop-color:#7272D0"/>
	<stop  offset="0.9792" style="stop-color:#7676D1"/>
</linearGradient>
<path fill="url(#SVGID_24_)" d="M62.7,18c2.5,4.3,2.3,9.5-0.5,15c-1.9,3.7-4.4,6.3-4.5,6.4c0,0,0-3.4,0-7.2c0-2.8,0.5-6-1.8-10.1
	c-2.3-4.3-11.3-3.8-14.3-3.3l-1.4-7.7c0.2,0,4.1-0.7,8.6-0.4C55.4,11.3,60.2,13.8,62.7,18z"/>
<linearGradient id="SVGID_25_" gradientUnits="userSpaceOnUse" x1="49.6598" y1="60.7653" x2="59.8977" y2="36.1456">
	<stop  offset="0" style="stop-color:#1010A6"/>
	<stop  offset="0.7231" style="stop-color:#6666CC"/>
	<stop  offset="0.7257" style="stop-color:#6666CC"/>
	<stop  offset="0.8512" style="stop-color:#7272D0"/>
	<stop  offset="0.9792" style="stop-color:#7676D1"/>
</linearGradient>
<path fill="url(#SVGID_25_)" d="M62.9,51.4c-2.5,4.3-7.1,6.8-13.3,7c-4.2,0.2-7.6-0.7-7.8-0.8c0,0,2.9-1.7,6.2-3.6
	c2.5-1.4,5.4-2.6,7.9-6.6c2.6-4.2-2.3-11.7-4.3-14l6-5c0.1,0.1,2.7,3.2,4.6,7.3C65.1,41.6,65.3,47.1,62.9,51.4z"/>
<linearGradient id="SVGID_26_" gradientUnits="userSpaceOnUse" x1="19.4578" y1="61.2247" x2="45.6228" y2="57.9743">
	<stop  offset="0" style="stop-color:#1010A6"/>
	<stop  offset="0.7231" style="stop-color:#6666CC"/>
	<stop  offset="0.7257" style="stop-color:#6666CC"/>
	<stop  offset="0.8512" style="stop-color:#7272D0"/>
	<stop  offset="0.9792" style="stop-color:#7676D1"/>
</linearGradient>
<path fill="url(#SVGID_26_)" d="M34.1,68.1c-5,0-9.4-2.8-12.7-8.1c-2.2-3.6-3.2-7-3.2-7.1c0,0,2.9,1.7,6.2,3.6
	c2.5,1.4,4.9,3.4,9.6,3.6c4.9,0.2,9-7.9,10-10.7l7.3,2.7c-0.1,0.2-1.4,3.9-4,7.6C43.6,65.2,39,68.1,34.1,68.1z"/>
<linearGradient id="SVGID_27_" gradientUnits="userSpaceOnUse" x1="3.9417" y1="35.4369" x2="19.5429" y2="56.0758">
	<stop  offset="0" style="stop-color:#1010A6"/>
	<stop  offset="0.7231" style="stop-color:#6666CC"/>
	<stop  offset="0.7257" style="stop-color:#6666CC"/>
	<stop  offset="0.8512" style="stop-color:#7272D0"/>
	<stop  offset="0.9792" style="stop-color:#7676D1"/>
</linearGradient>
<path fill="url(#SVGID_27_)" d="M5.4,51.7c-2.5-4.3-2.3-9.5,0.5-15c1.9-3.7,4.4-6.3,4.5-6.4c0,0,0,3.4,0,7.2c0,2.8-0.5,6,1.8,10.1
	c2.3,4.3,11.3,3.8,14.3,3.3l1.4,7.7c-0.2,0-4.1,0.7-8.6,0.4C12.7,58.4,7.9,55.9,5.4,51.7z"/>
<linearGradient id="SVGID_28_" gradientUnits="userSpaceOnUse" x1="17.9802" y1="9.1061" x2="8.5546" y2="32.8333">
	<stop  offset="0" style="stop-color:#1010A6"/>
	<stop  offset="0.7231" style="stop-color:#6666CC"/>
	<stop  offset="0.7257" style="stop-color:#6666CC"/>
	<stop  offset="0.8512" style="stop-color:#7272D0"/>
	<stop  offset="0.9792" style="stop-color:#7676D1"/>
</linearGradient>
<path fill="url(#SVGID_28_)" d="M5.2,18.3c2.5-4.3,9.5-0.1,7,4c-2.6,4.2,2.3,11.7,4.3,14l-6,5c-0.1-0.1-2.7-3.2-4.6-7.3
	C3,28.1,2.7,22.6,5.2,18.3z"/>
</svg>
