<?xml version="1.0" encoding="utf-8"?>
<!-- Generator: Adobe Illustrator 19.1.0, SVG Export Plug-In . SVG Version: 6.00 Build 0)  -->
<!DOCTYPE svg PUBLIC "-//W3C//DTD SVG 1.1//EN" "http://www.w3.org/Graphics/SVG/1.1/DTD/svg11.dtd">
<svg version="1.1" id="Layer_1" xmlns="http://www.w3.org/2000/svg" xmlns:xlink="http://www.w3.org/1999/xlink" x="0px" y="0px"
	 viewBox="0 0 70 70" enable-background="new 0 0 70 70" xml:space="preserve">
<linearGradient id="SVGID_1_" gradientUnits="userSpaceOnUse" x1="18.4536" y1="53.1367" x2="40.2428" y2="28.6437">
	<stop  offset="0" style="stop-color:#000000;stop-opacity:0.3"/>
	<stop  offset="1" style="stop-color:#000000;stop-opacity:0"/>
</linearGradient>
<path opacity="0.5" fill="url(#SVGID_1_)" d="M52.8,16.9L41,10c-1.7-1-3.9-1.5-6.3-1.5c-2.3,0-4.6,0.5-6.3,1.5l-11.6,6.9
	c-3.5,2-6,6.9-6,10.9v13.7c0,4.1,2.5,8.9,6,10.9l11.7,6.9c1.7,1,3.9,1.5,6.2,1.5s4.5-0.5,6.3-1.5l11.7-6.9c3.5-2,6.1-6.9,6.1-10.9
	V27.8C58.9,23.7,56.4,18.9,52.8,16.9z"/>
<g>
	<linearGradient id="SVGID_2_" gradientUnits="userSpaceOnUse" x1="48.1798" y1="15.8232" x2="44.93" y2="20.8608">
		<stop  offset="0" style="stop-color:#000000;stop-opacity:0.3"/>
		<stop  offset="1" style="stop-color:#000000;stop-opacity:0"/>
	</linearGradient>
	<path fill="url(#SVGID_2_)" d="M53.1,18.6l-12.4-7.4l3.8,10.3c2.6-1.1,8.6-2.8,10.8-0.7C54.8,19.9,54,19.1,53.1,18.6z"/>
</g>
<g>
	<linearGradient id="SVGID_3_" gradientUnits="userSpaceOnUse" x1="25.0958" y1="13.426" x2="28.6717" y2="19.0332">
		<stop  offset="0" style="stop-color:#000000;stop-opacity:0.3"/>
		<stop  offset="1" style="stop-color:#000000;stop-opacity:0"/>
	</linearGradient>
	<path fill="url(#SVGID_3_)" d="M30.1,10.7l-12.7,6.9l10.8,1.9c0.4-2.8,1.9-8.8,4.9-9.6C32,9.9,31,10.2,30.1,10.7z"/>
</g>
<g>
	<linearGradient id="SVGID_4_" gradientUnits="userSpaceOnUse" x1="10.9876" y1="32.6863" x2="17.6494" y2="32.8487">
		<stop  offset="0" style="stop-color:#000000;stop-opacity:0.3"/>
		<stop  offset="1" style="stop-color:#000000;stop-opacity:0"/>
	</linearGradient>
	<path fill="url(#SVGID_4_)" d="M11,27l-0.3,14.4l7-8.4c-2.3-1.7-6.7-6.1-5.9-9C11.3,25,11,26,11,27z"/>
</g>
<g>
	<linearGradient id="SVGID_5_" gradientUnits="userSpaceOnUse" x1="20.2977" y1="53.9408" x2="24.1978" y2="48.659">
		<stop  offset="0" style="stop-color:#000000;stop-opacity:0.3"/>
		<stop  offset="1" style="stop-color:#000000;stop-opacity:0"/>
	</linearGradient>
	<path fill="url(#SVGID_5_)" d="M15.5,50.9l12.3,7.6l-3.6-10.4c-2.6,1.1-8.7,2.7-10.8,0.5C13.9,49.6,14.7,50.4,15.5,50.9z"/>
</g>
<g>
	<linearGradient id="SVGID_6_" gradientUnits="userSpaceOnUse" x1="44.1144" y1="56.0785" x2="41.5147" y2="50.2287">
		<stop  offset="0" style="stop-color:#000000;stop-opacity:0.3"/>
		<stop  offset="1" style="stop-color:#000000;stop-opacity:0"/>
	</linearGradient>
	<path fill="url(#SVGID_6_)" d="M39.2,59l12.6-7L41,50.1c-0.3,2.8-1.9,8.9-4.9,9.7C37.3,59.7,38.4,59.5,39.2,59z"/>
</g>
<g>
	<linearGradient id="SVGID_7_" gradientUnits="userSpaceOnUse" x1="57.5393" y1="37.409" x2="50.8766" y2="37.3276">
		<stop  offset="0" style="stop-color:#000000;stop-opacity:0.3"/>
		<stop  offset="1" style="stop-color:#000000;stop-opacity:0"/>
	</linearGradient>
	<path fill="url(#SVGID_7_)" d="M57.7,43.1l0.4-14.4L51,37c2.3,1.7,6.7,6.1,5.8,9.1C57.4,45.1,57.7,44.1,57.7,43.1z"/>
</g>
<linearGradient id="SVGID_8_" gradientUnits="userSpaceOnUse" x1="18.6347" y1="9.1401" x2="9.2092" y2="32.8669">
	<stop  offset="0" style="stop-color:#1010A6"/>
	<stop  offset="0.7231" style="stop-color:#6666CC"/>
	<stop  offset="0.7257" style="stop-color:#6666CC"/>
	<stop  offset="0.8512" style="stop-color:#7272D0"/>
	<stop  offset="0.9792" style="stop-color:#7676D1"/>
</linearGradient>
<path fill="url(#SVGID_8_)" d="M5.7,18.3c2.5-4.3,7.1-6.8,13.3-7c4.2-0.2,7.6,0.7,7.8,0.8c0,0-2.9,1.7-6.2,3.6
	c-2.5,1.4-5.4,2.6-7.9,6.6c-2.6,4.2,2.3,11.7,4.3,14l-6,5c-0.1-0.1-2.7-3.2-4.6-7.3C3.5,28.1,3.3,22.6,5.7,18.3z"/>
<linearGradient id="SVGID_9_" gradientUnits="userSpaceOnUse" x1="49.2993" y1="8.3572" x2="22.9718" y2="11.77">
	<stop  offset="0" style="stop-color:#1010A6"/>
	<stop  offset="0.7231" style="stop-color:#6666CC"/>
	<stop  offset="0.7257" style="stop-color:#6666CC"/>
	<stop  offset="0.8512" style="stop-color:#7272D0"/>
	<stop  offset="0.9792" style="stop-color:#7676D1"/>
</linearGradient>
<path fill="url(#SVGID_9_)" d="M34.6,1.6c5,0,9.4,2.8,12.7,8.1c2.2,3.6,3.2,7,3.2,7.1c0,0-2.9-1.7-6.2-3.6c-2.5-1.4-4.9-3.4-9.6-3.6
	c-4.9-0.2-9,7.9-10,10.7l-7.3-2.7c0.1-0.2,1.4-3.9,4-7.6C25,4.5,29.6,1.6,34.6,1.6z"/>
<linearGradient id="SVGID_10_" gradientUnits="userSpaceOnUse" x1="64.5895" y1="34.1347" x2="49.4755" y2="14.1453">
	<stop  offset="0" style="stop-color:#1010A6"/>
	<stop  offset="0.7231" style="stop-color:#6666CC"/>
	<stop  offset="0.7257" style="stop-color:#6666CC"/>
	<stop  offset="0.8512" style="stop-color:#7272D0"/>
	<stop  offset="0.9792" style="stop-color:#7676D1"/>
</linearGradient>
<path fill="url(#SVGID_10_)" d="M63.3,18c2.5,4.3,2.3,9.5-0.5,15c-1.9,3.7-4.4,6.3-4.5,6.4c0,0,0-3.4,0-7.2c0-2.8,0.5-6-1.8-10.1
	C54,17.8,45,18.3,42.1,18.9l-1.4-7.7c0.2,0,4.1-0.7,8.6-0.4C55.9,11.3,60.8,13.8,63.3,18z"/>
<linearGradient id="SVGID_11_" gradientUnits="userSpaceOnUse" x1="50.2298" y1="60.7653" x2="60.4677" y2="36.1456">
	<stop  offset="0" style="stop-color:#1010A6"/>
	<stop  offset="0.7231" style="stop-color:#6666CC"/>
	<stop  offset="0.7257" style="stop-color:#6666CC"/>
	<stop  offset="0.8512" style="stop-color:#7272D0"/>
	<stop  offset="0.9792" style="stop-color:#7676D1"/>
</linearGradient>
<path fill="url(#SVGID_11_)" d="M63.5,51.4c-2.5,4.3-7.1,6.8-13.3,7c-4.2,0.2-7.6-0.7-7.8-0.8c0,0,2.9-1.7,6.2-3.6
	c2.5-1.4,5.4-2.6,7.9-6.6c2.6-4.2-2.3-11.7-4.3-14l6-5c0.1,0.1,2.7,3.2,4.6,7.3C65.7,41.6,65.9,47.1,63.5,51.4z"/>
<linearGradient id="SVGID_12_" gradientUnits="userSpaceOnUse" x1="20.0278" y1="61.2247" x2="46.1928" y2="57.9743">
	<stop  offset="0" style="stop-color:#1010A6"/>
	<stop  offset="0.7231" style="stop-color:#6666CC"/>
	<stop  offset="0.7257" style="stop-color:#6666CC"/>
	<stop  offset="0.8512" style="stop-color:#7272D0"/>
	<stop  offset="0.9792" style="stop-color:#7676D1"/>
</linearGradient>
<path fill="url(#SVGID_12_)" d="M34.6,68.1c-5,0-9.4-2.8-12.7-8.1c-2.2-3.6-3.2-7-3.2-7.1c0,0,2.9,1.7,6.2,3.6
	c2.5,1.4,4.9,3.4,9.6,3.6c4.9,0.2,9-7.9,10-10.7l7.3,2.7c-0.1,0.2-1.4,3.9-4,7.6C44.2,65.2,39.6,68.1,34.6,68.1z"/>
<linearGradient id="SVGID_13_" gradientUnits="userSpaceOnUse" x1="4.5117" y1="35.4369" x2="20.1129" y2="56.0758">
	<stop  offset="0" style="stop-color:#1010A6"/>
	<stop  offset="0.7231" style="stop-color:#6666CC"/>
	<stop  offset="0.7257" style="stop-color:#6666CC"/>
	<stop  offset="0.8512" style="stop-color:#7272D0"/>
	<stop  offset="0.9792" style="stop-color:#7676D1"/>
</linearGradient>
<path fill="url(#SVGID_13_)" d="M5.9,51.7c-2.5-4.3-2.3-9.5,0.5-15c1.9-3.7,4.4-6.3,4.5-6.4c0,0,0,3.4,0,7.2c0,2.8-0.5,6,1.8,10.1
	c2.3,4.3,11.3,3.8,14.3,3.3l1.4,7.7c-0.2,0-4.1,0.7-8.6,0.4C13.3,58.4,8.4,55.9,5.9,51.7z"/>
<linearGradient id="SVGID_14_" gradientUnits="userSpaceOnUse" x1="18.5502" y1="9.1061" x2="9.1246" y2="32.8333">
	<stop  offset="0" style="stop-color:#1010A6"/>
	<stop  offset="0.7231" style="stop-color:#6666CC"/>
	<stop  offset="0.7257" style="stop-color:#6666CC"/>
	<stop  offset="0.8512" style="stop-color:#7272D0"/>
	<stop  offset="0.9792" style="stop-color:#7676D1"/>
</linearGradient>
<path fill="url(#SVGID_14_)" d="M5.7,18.3c2.5-4.3,9.5-0.1,7,4c-2.6,4.2,2.3,11.7,4.3,14l-6,5c-0.1-0.1-2.7-3.2-4.6-7.3
	C3.5,28.1,3.3,22.6,5.7,18.3z"/>
</svg>
